{"glyphs":{"0":{"ha":1389,"x_min":172,"x_max":1217,"o":"m 347 1389 l 521 1389 l 521 1215 l 347 1215 l 347 1389 m 521 1389 l 694 1389 l 694 1215 l 521 1215 l 521 1389 m 694 1389 l 868 1389 l 868 1215 l 694 1215 l 694 1389 m 868 1389 l 1042 1389 l 1042 1215 l 868 1215 l 868 1389 m 174 1215 l 347 1215 l 347 1042 l 174 1042 l 174 1215 m 347 1215 l 521 1215 l 521 1042 l 347 1042 l 347 1215 m 868 1215 l 1042 1215 l 1042 1042 l 868 1042 l 868 1215 m 1042 1215 l 1215 1215 l 1215 1042 l 1042 1042 l 1042 1215 m 174 1042 l 347 1042 l 347 868 l 174 868 l 174 1042 m 347 1042 l 521 1042 l 521 868 l 347 868 l 347 1042 m 694 1042 l 868 1042 l 868 868 l 694 868 l 694 1042 m 868 1042 l 1042 1042 l 1042 868 l 868 868 l 868 1042 m 1042 1042 l 1215 1042 l 1215 868 l 1042 868 l 1042 1042 m 174 868 l 347 868 l 347 694 l 174 694 l 174 868 m 347 868 l 521 868 l 521 694 l 347 694 l 347 868 m 521 868 l 694 868 l 694 694 l 521 694 l 521 868 m 694 868 l 868 868 l 868 694 l 694 694 l 694 868 m 868 868 l 1042 868 l 1042 694 l 868 694 l 868 868 m 1042 868 l 1215 868 l 1215 694 l 1042 694 l 1042 868 m 174 694 l 347 694 l 347 521 l 174 521 l 174 694 m 347 694 l 521 694 l 521 521 l 347 521 l 347 694 m 521 694 l 694 694 l 694 521 l 521 521 l 521 694 m 868 694 l 1042 694 l 1042 521 l 868 521 l 868 694 m 1042 694 l 1215 694 l 1215 521 l 1042 521 l 1042 694 m 174 521 l 347 521 l 347 347 l 174 347 l 174 521 m 347 521 l 521 521 l 521 347 l 347 347 l 347 521 m 868 521 l 1042 521 l 1042 347 l 868 347 l 868 521 m 1042 521 l 1215 521 l 1215 347 l 1042 347 l 1042 521 m 347 347 l 521 347 l 521 174 l 347 174 l 347 347 m 521 347 l 694 347 l 694 174 l 521 174 l 521 347 m 694 347 l 868 347 l 868 174 l 694 174 l 694 347 m 868 347 l 1042 347 l 1042 174 l 868 174 l 868 347 z "},"1":{"ha":1389,"x_min":172,"x_max":1217,"o":"m 521 1389 l 694 1389 l 694 1215 l 521 1215 l 521 1389 m 694 1389 l 868 1389 l 868 1215 l 694 1215 l 694 1389 m 347 1215 l 521 1215 l 521 1042 l 347 1042 l 347 1215 m 521 1215 l 694 1215 l 694 1042 l 521 1042 l 521 1215 m 694 1215 l 868 1215 l 868 1042 l 694 1042 l 694 1215 m 521 1042 l 694 1042 l 694 868 l 521 868 l 521 1042 m 694 1042 l 868 1042 l 868 868 l 694 868 l 694 1042 m 521 868 l 694 868 l 694 694 l 521 694 l 521 868 m 694 868 l 868 868 l 868 694 l 694 694 l 694 868 m 521 694 l 694 694 l 694 521 l 521 521 l 521 694 m 694 694 l 868 694 l 868 521 l 694 521 l 694 694 m 521 521 l 694 521 l 694 347 l 521 347 l 521 521 m 694 521 l 868 521 l 868 347 l 694 347 l 694 521 m 174 347 l 347 347 l 347 174 l 174 174 l 174 347 m 347 347 l 521 347 l 521 174 l 347 174 l 347 347 m 521 347 l 694 347 l 694 174 l 521 174 l 521 347 m 694 347 l 868 347 l 868 174 l 694 174 l 694 347 m 868 347 l 1042 347 l 1042 174 l 868 174 l 868 347 m 1042 347 l 1215 347 l 1215 174 l 1042 174 l 1042 347 z "},"2":{"ha":1389,"x_min":172,"x_max":1217,"o":"m 347 1389 l 521 1389 l 521 1215 l 347 1215 l 347 1389 m 521 1389 l 694 1389 l 694 1215 l 521 1215 l 521 1389 m 694 1389 l 868 1389 l 868 1215 l 694 1215 l 694 1389 m 868 1389 l 1042 1389 l 1042 1215 l 868 1215 l 868 1389 m 174 1215 l 347 1215 l 347 1042 l 174 1042 l 174 1215 m 347 1215 l 521 1215 l 521 1042 l 347 1042 l 347 1215 m 868 1215 l 1042 1215 l 1042 1042 l 868 1042 l 868 1215 m 1042 1215 l 1215 1215 l 1215 1042 l 1042 1042 l 1042 1215 m 868 1042 l 1042 1042 l 1042 868 l 868 868 l 868 1042 m 1042 1042 l 1215 1042 l 1215 868 l 1042 868 l 1042 1042 m 521 868 l 694 868 l 694 694 l 521 694 l 521 868 m 694 868 l 868 868 l 868 694 l 694 694 l 694 868 m 868 868 l 1042 868 l 1042 694 l 868 694 l 868 868 m 347 694 l 521 694 l 521 521 l 347 521 l 347 694 m 521 694 l 694 694 l 694 521 l 521 521 l 521 694 m 174 521 l 347 521 l 347 347 l 174 347 l 174 521 m 347 521 l 521 521 l 521 347 l 347 347 l 347 521 m 868 521 l 1042 521 l 1042 347 l 868 347 l 868 521 m 1042 521 l 1215 521 l 1215 347 l 1042 347 l 1042 521 m 174 347 l 347 347 l 347 174 l 174 174 l 174 347 m 347 347 l 521 347 l 521 174 l 347 174 l 347 347 m 521 347 l 694 347 l 694 174 l 521 174 l 521 347 m 694 347 l 868 347 l 868 174 l 694 174 l 694 347 m 868 347 l 1042 347 l 1042 174 l 868 174 l 868 347 m 1042 347 l 1215 347 l 1215 174 l 1042 174 l 1042 347 z "},"3":{"ha":1389,"x_min":172,"x_max":1217,"o":"m 347 1389 l 521 1389 l 521 1215 l 347 1215 l 347 1389 m 521 1389 l 694 1389 l 694 1215 l 521 1215 l 521 1389 m 694 1389 l 868 1389 l 868 1215 l 694 1215 l 694 1389 m 868 1389 l 1042 1389 l 1042 1215 l 868 1215 l 868 1389 m 174 1215 l 347 1215 l 347 1042 l 174 1042 l 174 1215 m 347 1215 l 521 1215 l 521 1042 l 347 1042 l 347 1215 m 868 1215 l 1042 1215 l 1042 1042 l 868 1042 l 868 1215 m 1042 1215 l 1215 1215 l 1215 1042 l 1042 1042 l 1042 1215 m 868 1042 l 1042 1042 l 1042 868 l 868 868 l 868 1042 m 1042 1042 l 1215 1042 l 1215 868 l 1042 868 l 1042 1042 m 521 868 l 694 868 l 694 694 l 521 694 l 521 868 m 694 868 l 868 868 l 868 694 l 694 694 l 694 868 m 868 868 l 1042 868 l 1042 694 l 868 694 l 868 868 m 868 694 l 1042 694 l 1042 521 l 868 521 l 868 694 m 1042 694 l 1215 694 l 1215 521 l 1042 521 l 1042 694 m 174 521 l 347 521 l 347 347 l 174 347 l 174 521 m 347 521 l 521 521 l 521 347 l 347 347 l 347 521 m 868 521 l 1042 521 l 1042 347 l 868 347 l 868 521 m 1042 521 l 1215 521 l 1215 347 l 1042 347 l 1042 521 m 347 347 l 521 347 l 521 174 l 347 174 l 347 347 m 521 347 l 694 347 l 694 174 l 521 174 l 521 347 m 694 347 l 868 347 l 868 174 l 694 174 l 694 347 m 868 347 l 1042 347 l 1042 174 l 868 174 l 868 347 z "},"4":{"ha":1389,"x_min":-2,"x_max":1217,"o":"m 521 1389 l 694 1389 l 694 1215 l 521 1215 l 521 1389 m 694 1389 l 868 1389 l 868 1215 l 694 1215 l 694 1389 m 868 1389 l 1042 1389 l 1042 1215 l 868 1215 l 868 1389 m 347 1215 l 521 1215 l 521 1042 l 347 1042 l 347 1215 m 521 1215 l 694 1215 l 694 1042 l 521 1042 l 521 1215 m 694 1215 l 868 1215 l 868 1042 l 694 1042 l 694 1215 m 868 1215 l 1042 1215 l 1042 1042 l 868 1042 l 868 1215 m 174 1042 l 347 1042 l 347 868 l 174 868 l 174 1042 m 347 1042 l 521 1042 l 521 868 l 347 868 l 347 1042 m 694 1042 l 868 1042 l 868 868 l 694 868 l 694 1042 m 868 1042 l 1042 1042 l 1042 868 l 868 868 l 868 1042 m 0 868 l 174 868 l 174 694 l 0 694 l 0 868 m 174 868 l 347 868 l 347 694 l 174 694 l 174 868 m 694 868 l 868 868 l 868 694 l 694 694 l 694 868 m 868 868 l 1042 868 l 1042 694 l 868 694 l 868 868 m 0 694 l 174 694 l 174 521 l 0 521 l 0 694 m 174 694 l 347 694 l 347 521 l 174 521 l 174 694 m 347 694 l 521 694 l 521 521 l 347 521 l 347 694 m 521 694 l 694 694 l 694 521 l 521 521 l 521 694 m 694 694 l 868 694 l 868 521 l 694 521 l 694 694 m 868 694 l 1042 694 l 1042 521 l 868 521 l 868 694 m 1042 694 l 1215 694 l 1215 521 l 1042 521 l 1042 694 m 694 521 l 868 521 l 868 347 l 694 347 l 694 521 m 868 521 l 1042 521 l 1042 347 l 868 347 l 868 521 m 521 347 l 694 347 l 694 174 l 521 174 l 521 347 m 694 347 l 868 347 l 868 174 l 694 174 l 694 347 m 868 347 l 1042 347 l 1042 174 l 868 174 l 868 347 m 1042 347 l 1215 347 l 1215 174 l 1042 174 l 1042 347 z "},"5":{"ha":1389,"x_min":172,"x_max":1217,"o":"m 174 1389 l 347 1389 l 347 1215 l 174 1215 l 174 1389 m 347 1389 l 521 1389 l 521 1215 l 347 1215 l 347 1389 m 521 1389 l 694 1389 l 694 1215 l 521 1215 l 521 1389 m 694 1389 l 868 1389 l 868 1215 l 694 1215 l 694 1389 m 868 1389 l 1042 1389 l 1042 1215 l 868 1215 l 868 1389 m 1042 1389 l 1215 1389 l 1215 1215 l 1042 1215 l 1042 1389 m 174 1215 l 347 1215 l 347 1042 l 174 1042 l 174 1215 m 347 1215 l 521 1215 l 521 1042 l 347 1042 l 347 1215 m 174 1042 l 347 1042 l 347 868 l 174 868 l 174 1042 m 347 1042 l 521 1042 l 521 868 l 347 868 l 347 1042 m 521 1042 l 694 1042 l 694 868 l 521 868 l 521 1042 m 694 1042 l 868 1042 l 868 868 l 694 868 l 694 1042 m 868 1042 l 1042 1042 l 1042 868 l 868 868 l 868 1042 m 868 868 l 1042 868 l 1042 694 l 868 694 l 868 868 m 1042 868 l 1215 868 l 1215 694 l 1042 694 l 1042 868 m 868 694 l 1042 694 l 1042 521 l 868 521 l 868 694 m 1042 694 l 1215 694 l 1215 521 l 1042 521 l 1042 694 m 174 521 l 347 521 l 347 347 l 174 347 l 174 521 m 347 521 l 521 521 l 521 347 l 347 347 l 347 521 m 868 521 l 1042 521 l 1042 347 l 868 347 l 868 521 m 1042 521 l 1215 521 l 1215 347 l 1042 347 l 1042 521 m 347 347 l 521 347 l 521 174 l 347 174 l 347 347 m 521 347 l 694 347 l 694 174 l 521 174 l 521 347 m 694 347 l 868 347 l 868 174 l 694 174 l 694 347 m 868 347 l 1042 347 l 1042 174 l 868 174 l 868 347 z "},"6":{"ha":1389,"x_min":172,"x_max":1217,"o":"m 521 1389 l 694 1389 l 694 1215 l 521 1215 l 521 1389 m 694 1389 l 868 1389 l 868 1215 l 694 1215 l 694 1389 m 868 1389 l 1042 1389 l 1042 1215 l 868 1215 l 868 1389 m 347 1215 l 521 1215 l 521 1042 l 347 1042 l 347 1215 m 521 1215 l 694 1215 l 694 1042 l 521 1042 l 521 1215 m 174 1042 l 347 1042 l 347 868 l 174 868 l 174 1042 m 347 1042 l 521 1042 l 521 868 l 347 868 l 347 1042 m 174 868 l 347 868 l 347 694 l 174 694 l 174 868 m 347 868 l 521 868 l 521 694 l 347 694 l 347 868 m 521 868 l 694 868 l 694 694 l 521 694 l 521 868 m 694 868 l 868 868 l 868 694 l 694 694 l 694 868 m 868 868 l 1042 868 l 1042 694 l 868 694 l 868 868 m 174 694 l 347 694 l 347 521 l 174 521 l 174 694 m 347 694 l 521 694 l 521 521 l 347 521 l 347 694 m 868 694 l 1042 694 l 1042 521 l 868 521 l 868 694 m 1042 694 l 1215 694 l 1215 521 l 1042 521 l 1042 694 m 174 521 l 347 521 l 347 347 l 174 347 l 174 521 m 347 521 l 521 521 l 521 347 l 347 347 l 347 521 m 868 521 l 1042 521 l 1042 347 l 868 347 l 868 521 m 1042 521 l 1215 521 l 1215 347 l 1042 347 l 1042 521 m 347 347 l 521 347 l 521 174 l 347 174 l 347 347 m 521 347 l 694 347 l 694 174 l 521 174 l 521 347 m 694 347 l 868 347 l 868 174 l 694 174 l 694 347 m 868 347 l 1042 347 l 1042 174 l 868 174 l 868 347 z "},"7":{"ha":1389,"x_min":172,"x_max":1217,"o":"m 174 1389 l 347 1389 l 347 1215 l 174 1215 l 174 1389 m 347 1389 l 521 1389 l 521 1215 l 347 1215 l 347 1389 m 521 1389 l 694 1389 l 694 1215 l 521 1215 l 521 1389 m 694 1389 l 868 1389 l 868 1215 l 694 1215 l 694 1389 m 868 1389 l 1042 1389 l 1042 1215 l 868 1215 l 868 1389 m 1042 1389 l 1215 1389 l 1215 1215 l 1042 1215 l 1042 1389 m 174 1215 l 347 1215 l 347 1042 l 174 1042 l 174 1215 m 347 1215 l 521 1215 l 521 1042 l 347 1042 l 347 1215 m 868 1215 l 1042 1215 l 1042 1042 l 868 1042 l 868 1215 m 1042 1215 l 1215 1215 l 1215 1042 l 1042 1042 l 1042 1215 m 868 1042 l 1042 1042 l 1042 868 l 868 868 l 868 1042 m 1042 1042 l 1215 1042 l 1215 868 l 1042 868 l 1042 1042 m 694 868 l 868 868 l 868 694 l 694 694 l 694 868 m 868 868 l 1042 868 l 1042 694 l 868 694 l 868 868 m 521 694 l 694 694 l 694 521 l 521 521 l 521 694 m 694 694 l 868 694 l 868 521 l 694 521 l 694 694 m 521 521 l 694 521 l 694 347 l 521 347 l 521 521 m 694 521 l 868 521 l 868 347 l 694 347 l 694 521 m 521 347 l 694 347 l 694 174 l 521 174 l 521 347 m 694 347 l 868 347 l 868 174 l 694 174 l 694 347 z "},"8":{"ha":1389,"x_min":172,"x_max":1217,"o":"m 347 1389 l 521 1389 l 521 1215 l 347 1215 l 347 1389 m 521 1389 l 694 1389 l 694 1215 l 521 1215 l 521 1389 m 694 1389 l 868 1389 l 868 1215 l 694 1215 l 694 1389 m 868 1389 l 1042 1389 l 1042 1215 l 868 1215 l 868 1389 m 174 1215 l 347 1215 l 347 1042 l 174 1042 l 174 1215 m 347 1215 l 521 1215 l 521 1042 l 347 1042 l 347 1215 m 868 1215 l 1042 1215 l 1042 1042 l 868 1042 l 868 1215 m 1042 1215 l 1215 1215 l 1215 1042 l 1042 1042 l 1042 1215 m 174 1042 l 347 1042 l 347 868 l 174 868 l 174 1042 m 347 1042 l 521 1042 l 521 868 l 347 868 l 347 1042 m 868 1042 l 1042 1042 l 1042 868 l 868 868 l 868 1042 m 1042 1042 l 1215 1042 l 1215 868 l 1042 868 l 1042 1042 m 347 868 l 521 868 l 521 694 l 347 694 l 347 868 m 521 868 l 694 868 l 694 694 l 521 694 l 521 868 m 694 868 l 868 868 l 868 694 l 694 694 l 694 868 m 868 868 l 1042 868 l 1042 694 l 868 694 l 868 868 m 174 694 l 347 694 l 347 521 l 174 521 l 174 694 m 347 694 l 521 694 l 521 521 l 347 521 l 347 694 m 868 694 l 1042 694 l 1042 521 l 868 521 l 868 694 m 1042 694 l 1215 694 l 1215 521 l 1042 521 l 1042 694 m 174 521 l 347 521 l 347 347 l 174 347 l 174 521 m 347 521 l 521 521 l 521 347 l 347 347 l 347 521 m 868 521 l 1042 521 l 1042 347 l 868 347 l 868 521 m 1042 521 l 1215 521 l 1215 347 l 1042 347 l 1042 521 m 347 347 l 521 347 l 521 174 l 347 174 l 347 347 m 521 347 l 694 347 l 694 174 l 521 174 l 521 347 m 694 347 l 868 347 l 868 174 l 694 174 l 694 347 m 868 347 l 1042 347 l 1042 174 l 868 174 l 868 347 z "},"9":{"ha":1389,"x_min":172,"x_max":1217,"o":"m 347 1389 l 521 1389 l 521 1215 l 347 1215 l 347 1389 m 521 1389 l 694 1389 l 694 1215 l 521 1215 l 521 1389 m 694 1389 l 868 1389 l 868 1215 l 694 1215 l 694 1389 m 868 1389 l 1042 1389 l 1042 1215 l 868 1215 l 868 1389 m 174 1215 l 347 1215 l 347 1042 l 174 1042 l 174 1215 m 347 1215 l 521 1215 l 521 1042 l 347 1042 l 347 1215 m 868 1215 l 1042 1215 l 1042 1042 l 868 1042 l 868 1215 m 1042 1215 l 1215 1215 l 1215 1042 l 1042 1042 l 1042 1215 m 174 1042 l 347 1042 l 347 868 l 174 868 l 174 1042 m 347 1042 l 521 1042 l 521 868 l 347 868 l 347 1042 m 868 1042 l 1042 1042 l 1042 868 l 868 868 l 868 1042 m 1042 1042 l 1215 1042 l 1215 868 l 1042 868 l 1042 1042 m 347 868 l 521 868 l 521 694 l 347 694 l 347 868 m 521 868 l 694 868 l 694 694 l 521 694 l 521 868 m 694 868 l 868 868 l 868 694 l 694 694 l 694 868 m 868 868 l 1042 868 l 1042 694 l 868 694 l 868 868 m 1042 868 l 1215 868 l 1215 694 l 1042 694 l 1042 868 m 868 694 l 1042 694 l 1042 521 l 868 521 l 868 694 m 1042 694 l 1215 694 l 1215 521 l 1042 521 l 1042 694 m 694 521 l 868 521 l 868 347 l 694 347 l 694 521 m 868 521 l 1042 521 l 1042 347 l 868 347 l 868 521 m 347 347 l 521 347 l 521 174 l 347 174 l 347 347 m 521 347 l 694 347 l 694 174 l 521 174 l 521 347 m 694 347 l 868 347 l 868 174 l 694 174 l 694 347 z "}," ":{"ha":1389,"x_min":0,"x_max":0,"o":"m 0 0 z "},"!":{"ha":1389,"x_min":345,"x_max":1043,"o":"m 521 1389 l 694 1389 l 694 1215 l 521 1215 l 521 1389 m 694 1389 l 868 1389 l 868 1215 l 694 1215 l 694 1389 m 347 1215 l 521 1215 l 521 1042 l 347 1042 l 347 1215 m 521 1215 l 694 1215 l 694 1042 l 521 1042 l 521 1215 m 694 1215 l 868 1215 l 868 1042 l 694 1042 l 694 1215 m 868 1215 l 1042 1215 l 1042 1042 l 868 1042 l 868 1215 m 347 1042 l 521 1042 l 521 868 l 347 868 l 347 1042 m 521 1042 l 694 1042 l 694 868 l 521 868 l 521 1042 m 694 1042 l 868 1042 l 868 868 l 694 868 l 694 1042 m 868 1042 l 1042 1042 l 1042 868 l 868 868 l 868 1042 m 521 868 l 694 868 l 694 694 l 521 694 l 521 868 m 694 868 l 868 868 l 868 694 l 694 694 l 694 868 m 521 694 l 694 694 l 694 521 l 521 521 l 521 694 m 694 694 l 868 694 l 868 521 l 694 521 l 694 694 m 521 347 l 694 347 l 694 174 l 521 174 l 521 347 m 694 347 l 868 347 l 868 174 l 694 174 l 694 347 z "},"\"":{"ha":1389,"x_min":172,"x_max":1043,"o":"m 174 1389 l 347 1389 l 347 1215 l 174 1215 l 174 1389 m 347 1389 l 521 1389 l 521 1215 l 347 1215 l 347 1389 m 694 1389 l 868 1389 l 868 1215 l 694 1215 l 694 1389 m 868 1389 l 1042 1389 l 1042 1215 l 868 1215 l 868 1389 m 174 1215 l 347 1215 l 347 1042 l 174 1042 l 174 1215 m 347 1215 l 521 1215 l 521 1042 l 347 1042 l 347 1215 m 694 1215 l 868 1215 l 868 1042 l 694 1042 l 694 1215 m 868 1215 l 1042 1215 l 1042 1042 l 868 1042 l 868 1215 z "},"#":{"ha":1389,"x_min":-2,"x_max":1217,"o":"m 174 1389 l 347 1389 l 347 1215 l 174 1215 l 174 1389 m 347 1389 l 521 1389 l 521 1215 l 347 1215 l 347 1389 m 694 1389 l 868 1389 l 868 1215 l 694 1215 l 694 1389 m 868 1389 l 1042 1389 l 1042 1215 l 868 1215 l 868 1389 m 174 1215 l 347 1215 l 347 1042 l 174 1042 l 174 1215 m 347 1215 l 521 1215 l 521 1042 l 347 1042 l 347 1215 m 694 1215 l 868 1215 l 868 1042 l 694 1042 l 694 1215 m 868 1215 l 1042 1215 l 1042 1042 l 868 1042 l 868 1215 m 0 1042 l 174 1042 l 174 868 l 0 868 l 0 1042 m 174 1042 l 347 1042 l 347 868 l 174 868 l 174 1042 m 347 1042 l 521 1042 l 521 868 l 347 868 l 347 1042 m 521 1042 l 694 1042 l 694 868 l 521 868 l 521 1042 m 694 1042 l 868 1042 l 868 868 l 694 868 l 694 1042 m 868 1042 l 1042 1042 l 1042 868 l 868 868 l 868 1042 m 1042 1042 l 1215 1042 l 1215 868 l 1042 868 l 1042 1042 m 174 868 l 347 868 l 347 694 l 174 694 l 174 868 m 347 868 l 521 868 l 521 694 l 347 694 l 347 868 m 694 868 l 868 868 l 868 694 l 694 694 l 694 868 m 868 868 l 1042 868 l 1042 694 l 868 694 l 868 868 m 0 694 l 174 694 l 174 521 l 0 521 l 0 694 m 174 694 l 347 694 l 347 521 l 174 521 l 174 694 m 347 694 l 521 694 l 521 521 l 347 521 l 347 694 m 521 694 l 694 694 l 694 521 l 521 521 l 521 694 m 694 694 l 868 694 l 868 521 l 694 521 l 694 694 m 868 694 l 1042 694 l 1042 521 l 868 521 l 868 694 m 1042 694 l 1215 694 l 1215 521 l 1042 521 l 1042 694 m 174 521 l 347 521 l 347 347 l 174 347 l 174 521 m 347 521 l 521 521 l 521 347 l 347 347 l 347 521 m 694 521 l 868 521 l 868 347 l 694 347 l 694 521 m 868 521 l 1042 521 l 1042 347 l 868 347 l 868 521 m 174 347 l 347 347 l 347 174 l 174 174 l 174 347 m 347 347 l 521 347 l 521 174 l 347 174 l 347 347 m 694 347 l 868 347 l 868 174 l 694 174 l 694 347 m 868 347 l 1042 347 l 1042 174 l 868 174 l 868 347 z "},"$":{"ha":1389,"x_min":172,"x_max":1217,"o":"m 521 1389 l 694 1389 l 694 1215 l 521 1215 l 521 1389 m 694 1389 l 868 1389 l 868 1215 l 694 1215 l 694 1389 m 347 1215 l 521 1215 l 521 1042 l 347 1042 l 347 1215 m 521 1215 l 694 1215 l 694 1042 l 521 1042 l 521 1215 m 694 1215 l 868 1215 l 868 1042 l 694 1042 l 694 1215 m 868 1215 l 1042 1215 l 1042 1042 l 868 1042 l 868 1215 m 1042 1215 l 1215 1215 l 1215 1042 l 1042 1042 l 1042 1215 m 174 1042 l 347 1042 l 347 868 l 174 868 l 174 1042 m 347 1042 l 521 1042 l 521 868 l 347 868 l 347 1042 m 347 868 l 521 868 l 521 694 l 347 694 l 347 868 m 521 868 l 694 868 l 694 694 l 521 694 l 521 868 m 694 868 l 868 868 l 868 694 l 694 694 l 694 868 m 868 868 l 1042 868 l 1042 694 l 868 694 l 868 868 m 868 694 l 1042 694 l 1042 521 l 868 521 l 868 694 m 1042 694 l 1215 694 l 1215 521 l 1042 521 l 1042 694 m 174 521 l 347 521 l 347 347 l 174 347 l 174 521 m 347 521 l 521 521 l 521 347 l 347 347 l 347 521 m 521 521 l 694 521 l 694 347 l 521 347 l 521 521 m 694 521 l 868 521 l 868 347 l 694 347 l 694 521 m 868 521 l 1042 521 l 1042 347 l 868 347 l 868 521 m 521 347 l 694 347 l 694 174 l 521 174 l 521 347 m 694 347 l 868 347 l 868 174 l 694 174 l 694 347 z "},"%":{"ha":1389,"x_min":-2,"x_max":1217,"o":"m 0 1215 l 174 1215 l 174 1042 l 0 1042 l 0 1215 m 174 1215 l 347 1215 l 347 1042 l 174 1042 l 174 1215 m 868 1215 l 1042 1215 l 1042 1042 l 868 1042 l 868 1215 m 1042 1215 l 1215 1215 l 1215 1042 l 1042 1042 l 1042 1215 m 0 1042 l 174 1042 l 174 868 l 0 868 l 0 1042 m 174 1042 l 347 1042 l 347 868 l 174 868 l 174 1042 m 694 1042 l 868 1042 l 868 868 l 694 868 l 694 1042 m 868 1042 l 1042 1042 l 1042 868 l 868 868 l 868 1042 m 521 868 l 694 868 l 694 694 l 521 694 l 521 868 m 694 868 l 868 868 l 868 694 l 694 694 l 694 868 m 347 694 l 521 694 l 521 521 l 347 521 l 347 694 m 521 694 l 694 694 l 694 521 l 521 521 l 521 694 m 174 521 l 347 521 l 347 347 l 174 347 l 174 521 m 347 521 l 521 521 l 521 347 l 347 347 l 347 521 m 868 521 l 1042 521 l 1042 347 l 868 347 l 868 521 m 1042 521 l 1215 521 l 1215 347 l 1042 347 l 1042 521 m 0 347 l 174 347 l 174 174 l 0 174 l 0 347 m 174 347 l 347 347 l 347 174 l 174 174 l 174 347 m 868 347 l 1042 347 l 1042 174 l 868 174 l 868 347 m 1042 347 l 1215 347 l 1215 174 l 1042 174 l 1042 347 z "},"&":{"ha":1389,"x_min":-2,"x_max":1217,"o":"m 347 1389 l 521 1389 l 521 1215 l 347 1215 l 347 1389 m 521 1389 l 694 1389 l 694 1215 l 521 1215 l 521 1389 m 694 1389 l 868 1389 l 868 1215 l 694 1215 l 694 1389 m 174 1215 l 347 1215 l 347 1042 l 174 1042 l 174 1215 m 347 1215 l 521 1215 l 521 1042 l 347 1042 l 347 1215 m 694 1215 l 868 1215 l 868 1042 l 694 1042 l 694 1215 m 868 1215 l 1042 1215 l 1042 1042 l 868 1042 l 868 1215 m 174 1042 l 347 1042 l 347 868 l 174 868 l 174 1042 m 347 1042 l 521 1042 l 521 868 l 347 868 l 347 1042 m 694 1042 l 868 1042 l 868 868 l 694 868 l 694 1042 m 174 868 l 347 868 l 347 694 l 174 694 l 174 868 m 347 868 l 521 868 l 521 694 l 347 694 l 347 868 m 521 868 l 694 868 l 694 694 l 521 694 l 521 868 m 868 868 l 1042 868 l 1042 694 l 868 694 l 868 868 m 1042 868 l 1215 868 l 1215 694 l 1042 694 l 1042 868 m 0 694 l 174 694 l 174 521 l 0 521 l 0 694 m 174 694 l 347 694 l 347 521 l 174 521 l 174 694 m 521 694 l 694 694 l 694 521 l 521 521 l 521 694 m 694 694 l 868 694 l 868 521 l 694 521 l 694 694 m 868 694 l 1042 694 l 1042 521 l 868 521 l 868 694 m 0 521 l 174 521 l 174 347 l 0 347 l 0 521 m 174 521 l 347 521 l 347 347 l 174 347 l 174 521 m 694 521 l 868 521 l 868 347 l 694 347 l 694 521 m 868 521 l 1042 521 l 1042 347 l 868 347 l 868 521 m 174 347 l 347 347 l 347 174 l 174 174 l 174 347 m 347 347 l 521 347 l 521 174 l 347 174 l 347 347 m 521 347 l 694 347 l 694 174 l 521 174 l 521 347 m 868 347 l 1042 347 l 1042 174 l 868 174 l 868 347 m 1042 347 l 1215 347 l 1215 174 l 1042 174 l 1042 347 z "},"'":{"ha":1389,"x_min":345,"x_max":870,"o":"m 521 1389 l 694 1389 l 694 1215 l 521 1215 l 521 1389 m 694 1389 l 868 1389 l 868 1215 l 694 1215 l 694 1389 m 521 1215 l 694 1215 l 694 1042 l 521 1042 l 521 1215 m 694 1215 l 868 1215 l 868 1042 l 694 1042 l 694 1215 m 347 1042 l 521 1042 l 521 868 l 347 868 l 347 1042 m 521 1042 l 694 1042 l 694 868 l 521 868 l 521 1042 z "},"(":{"ha":1389,"x_min":345,"x_max":1043,"o":"m 694 1389 l 868 1389 l 868 1215 l 694 1215 l 694 1389 m 868 1389 l 1042 1389 l 1042 1215 l 868 1215 l 868 1389 m 521 1215 l 694 1215 l 694 1042 l 521 1042 l 521 1215 m 694 1215 l 868 1215 l 868 1042 l 694 1042 l 694 1215 m 347 1042 l 521 1042 l 521 868 l 347 868 l 347 1042 m 521 1042 l 694 1042 l 694 868 l 521 868 l 521 1042 m 347 868 l 521 868 l 521 694 l 347 694 l 347 868 m 521 868 l 694 868 l 694 694 l 521 694 l 521 868 m 347 694 l 521 694 l 521 521 l 347 521 l 347 694 m 521 694 l 694 694 l 694 521 l 521 521 l 521 694 m 521 521 l 694 521 l 694 347 l 521 347 l 521 521 m 694 521 l 868 521 l 868 347 l 694 347 l 694 521 m 694 347 l 868 347 l 868 174 l 694 174 l 694 347 m 868 347 l 1042 347 l 1042 174 l 868 174 l 868 347 z "},")":{"ha":1389,"x_min":345,"x_max":1043,"o":"m 347 1389 l 521 1389 l 521 1215 l 347 1215 l 347 1389 m 521 1389 l 694 1389 l 694 1215 l 521 1215 l 521 1389 m 521 1215 l 694 1215 l 694 1042 l 521 1042 l 521 1215 m 694 1215 l 868 1215 l 868 1042 l 694 1042 l 694 1215 m 694 1042 l 868 1042 l 868 868 l 694 868 l 694 1042 m 868 1042 l 1042 1042 l 1042 868 l 868 868 l 868 1042 m 694 868 l 868 868 l 868 694 l 694 694 l 694 868 m 868 868 l 1042 868 l 1042 694 l 868 694 l 868 868 m 694 694 l 868 694 l 868 521 l 694 521 l 694 694 m 868 694 l 1042 694 l 1042 521 l 868 521 l 868 694 m 521 521 l 694 521 l 694 347 l 521 347 l 521 521 m 694 521 l 868 521 l 868 347 l 694 347 l 694 521 m 347 347 l 521 347 l 521 174 l 347 174 l 347 347 m 521 347 l 694 347 l 694 174 l 521 174 l 521 347 z "},"*":{"ha":1389,"x_min":-2,"x_max":1391,"o":"m 174 1215 l 347 1215 l 347 1042 l 174 1042 l 174 1215 m 347 1215 l 521 1215 l 521 1042 l 347 1042 l 347 1215 m 868 1215 l 1042 1215 l 1042 1042 l 868 1042 l 868 1215 m 1042 1215 l 1215 1215 l 1215 1042 l 1042 1042 l 1042 1215 m 347 1042 l 521 1042 l 521 868 l 347 868 l 347 1042 m 521 1042 l 694 1042 l 694 868 l 521 868 l 521 1042 m 694 1042 l 868 1042 l 868 868 l 694 868 l 694 1042 m 868 1042 l 1042 1042 l 1042 868 l 868 868 l 868 1042 m 0 868 l 174 868 l 174 694 l 0 694 l 0 868 m 174 868 l 347 868 l 347 694 l 174 694 l 174 868 m 347 868 l 521 868 l 521 694 l 347 694 l 347 868 m 521 868 l 694 868 l 694 694 l 521 694 l 521 868 m 694 868 l 868 868 l 868 694 l 694 694 l 694 868 m 868 868 l 1042 868 l 1042 694 l 868 694 l 868 868 m 1042 868 l 1215 868 l 1215 694 l 1042 694 l 1042 868 m 1215 868 l 1389 868 l 1389 694 l 1215 694 l 1215 868 m 347 694 l 521 694 l 521 521 l 347 521 l 347 694 m 521 694 l 694 694 l 694 521 l 521 521 l 521 694 m 694 694 l 868 694 l 868 521 l 694 521 l 694 694 m 868 694 l 1042 694 l 1042 521 l 868 521 l 868 694 m 174 521 l 347 521 l 347 347 l 174 347 l 174 521 m 347 521 l 521 521 l 521 347 l 347 347 l 347 521 m 868 521 l 1042 521 l 1042 347 l 868 347 l 868 521 m 1042 521 l 1215 521 l 1215 347 l 1042 347 l 1042 521 z "},"+":{"ha":1389,"x_min":172,"x_max":1217,"o":"m 521 1215 l 694 1215 l 694 1042 l 521 1042 l 521 1215 m 694 1215 l 868 1215 l 868 1042 l 694 1042 l 694 1215 m 521 1042 l 694 1042 l 694 868 l 521 868 l 521 1042 m 694 1042 l 868 1042 l 868 868 l 694 868 l 694 1042 m 174 868 l 347 868 l 347 694 l 174 694 l 174 868 m 347 868 l 521 868 l 521 694 l 347 694 l 347 868 m 521 868 l 694 868 l 694 694 l 521 694 l 521 868 m 694 868 l 868 868 l 868 694 l 694 694 l 694 868 m 868 868 l 1042 868 l 1042 694 l 868 694 l 868 868 m 1042 868 l 1215 868 l 1215 694 l 1042 694 l 1042 868 m 521 694 l 694 694 l 694 521 l 521 521 l 521 694 m 694 694 l 868 694 l 868 521 l 694 521 l 694 694 m 521 521 l 694 521 l 694 347 l 521 347 l 521 521 m 694 521 l 868 521 l 868 347 l 694 347 l 694 521 z "},",":{"ha":1389,"x_min":345,"x_max":870,"o":"m 521 521 l 694 521 l 694 347 l 521 347 l 521 521 m 694 521 l 868 521 l 868 347 l 694 347 l 694 521 m 521 347 l 694 347 l 694 174 l 521 174 l 521 347 m 694 347 l 868 347 l 868 174 l 694 174 l 694 347 m 347 174 l 521 174 l 521 0 l 347 0 l 347 174 m 521 174 l 694 174 l 694 0 l 521 0 l 521 174 z "},"-":{"ha":1389,"x_min":172,"x_max":1217,"o":"m 174 868 l 347 868 l 347 694 l 174 694 l 174 868 m 347 868 l 521 868 l 521 694 l 347 694 l 347 868 m 521 868 l 694 868 l 694 694 l 521 694 l 521 868 m 694 868 l 868 868 l 868 694 l 694 694 l 694 868 m 868 868 l 1042 868 l 1042 694 l 868 694 l 868 868 m 1042 868 l 1215 868 l 1215 694 l 1042 694 l 1042 868 z "},".":{"ha":1389,"x_min":519,"x_max":870,"o":"m 521 521 l 694 521 l 694 347 l 521 347 l 521 521 m 694 521 l 868 521 l 868 347 l 694 347 l 694 521 m 521 347 l 694 347 l 694 174 l 521 174 l 521 347 m 694 347 l 868 347 l 868 174 l 694 174 l 694 347 z "},"/":{"ha":1389,"x_min":-2,"x_max":1391,"o":"m 1042 1389 l 1215 1389 l 1215 1215 l 1042 1215 l 1042 1389 m 1215 1389 l 1389 1389 l 1389 1215 l 1215 1215 l 1215 1389 m 868 1215 l 1042 1215 l 1042 1042 l 868 1042 l 868 1215 m 1042 1215 l 1215 1215 l 1215 1042 l 1042 1042 l 1042 1215 m 694 1042 l 868 1042 l 868 868 l 694 868 l 694 1042 m 868 1042 l 1042 1042 l 1042 868 l 868 868 l 868 1042 m 521 868 l 694 868 l 694 694 l 521 694 l 521 868 m 694 868 l 868 868 l 868 694 l 694 694 l 694 868 m 347 694 l 521 694 l 521 521 l 347 521 l 347 694 m 521 694 l 694 694 l 694 521 l 521 521 l 521 694 m 174 521 l 347 521 l 347 347 l 174 347 l 174 521 m 347 521 l 521 521 l 521 347 l 347 347 l 347 521 m 0 347 l 174 347 l 174 174 l 0 174 l 0 347 m 174 347 l 347 347 l 347 174 l 174 174 l 174 347 z "},":":{"ha":1389,"x_min":519,"x_max":870,"o":"m 521 1215 l 694 1215 l 694 1042 l 521 1042 l 521 1215 m 694 1215 l 868 1215 l 868 1042 l 694 1042 l 694 1215 m 521 1042 l 694 1042 l 694 868 l 521 868 l 521 1042 m 694 1042 l 868 1042 l 868 868 l 694 868 l 694 1042 m 521 521 l 694 521 l 694 347 l 521 347 l 521 521 m 694 521 l 868 521 l 868 347 l 694 347 l 694 521 m 521 347 l 694 347 l 694 174 l 521 174 l 521 347 m 694 347 l 868 347 l 868 174 l 694 174 l 694 347 z "},";":{"ha":1389,"x_min":345,"x_max":870,"o":"m 521 1215 l 694 1215 l 694 1042 l 521 1042 l 521 1215 m 694 1215 l 868 1215 l 868 1042 l 694 1042 l 694 1215 m 521 1042 l 694 1042 l 694 868 l 521 868 l 521 1042 m 694 1042 l 868 1042 l 868 868 l 694 868 l 694 1042 m 521 521 l 694 521 l 694 347 l 521 347 l 521 521 m 694 521 l 868 521 l 868 347 l 694 347 l 694 521 m 521 347 l 694 347 l 694 174 l 521 174 l 521 347 m 694 347 l 868 347 l 868 174 l 694 174 l 694 347 m 347 174 l 521 174 l 521 0 l 347 0 l 347 174 m 521 174 l 694 174 l 694 0 l 521 0 l 521 174 z "},"<":{"ha":1389,"x_min":172,"x_max":1043,"o":"m 694 1389 l 868 1389 l 868 1215 l 694 1215 l 694 1389 m 868 1389 l 1042 1389 l 1042 1215 l 868 1215 l 868 1389 m 521 1215 l 694 1215 l 694 1042 l 521 1042 l 521 1215 m 694 1215 l 868 1215 l 868 1042 l 694 1042 l 694 1215 m 347 1042 l 521 1042 l 521 868 l 347 868 l 347 1042 m 521 1042 l 694 1042 l 694 868 l 521 868 l 521 1042 m 174 868 l 347 868 l 347 694 l 174 694 l 174 868 m 347 868 l 521 868 l 521 694 l 347 694 l 347 868 m 347 694 l 521 694 l 521 521 l 347 521 l 347 694 m 521 694 l 694 694 l 694 521 l 521 521 l 521 694 m 521 521 l 694 521 l 694 347 l 521 347 l 521 521 m 694 521 l 868 521 l 868 347 l 694 347 l 694 521 m 694 347 l 868 347 l 868 174 l 694 174 l 694 347 m 868 347 l 1042 347 l 1042 174 l 868 174 l 868 347 z "},"=":{"ha":1389,"x_min":172,"x_max":1217,"o":"m 174 1042 l 347 1042 l 347 868 l 174 868 l 174 1042 m 347 1042 l 521 1042 l 521 868 l 347 868 l 347 1042 m 521 1042 l 694 1042 l 694 868 l 521 868 l 521 1042 m 694 1042 l 868 1042 l 868 868 l 694 868 l 694 1042 m 868 1042 l 1042 1042 l 1042 868 l 868 868 l 868 1042 m 1042 1042 l 1215 1042 l 1215 868 l 1042 868 l 1042 1042 m 174 521 l 347 521 l 347 347 l 174 347 l 174 521 m 347 521 l 521 521 l 521 347 l 347 347 l 347 521 m 521 521 l 694 521 l 694 347 l 521 347 l 521 521 m 694 521 l 868 521 l 868 347 l 694 347 l 694 521 m 868 521 l 1042 521 l 1042 347 l 868 347 l 868 521 m 1042 521 l 1215 521 l 1215 347 l 1042 347 l 1042 521 z "},">":{"ha":1389,"x_min":345,"x_max":1217,"o":"m 347 1389 l 521 1389 l 521 1215 l 347 1215 l 347 1389 m 521 1389 l 694 1389 l 694 1215 l 521 1215 l 521 1389 m 521 1215 l 694 1215 l 694 1042 l 521 1042 l 521 1215 m 694 1215 l 868 1215 l 868 1042 l 694 1042 l 694 1215 m 694 1042 l 868 1042 l 868 868 l 694 868 l 694 1042 m 868 1042 l 1042 1042 l 1042 868 l 868 868 l 868 1042 m 868 868 l 1042 868 l 1042 694 l 868 694 l 868 868 m 1042 868 l 1215 868 l 1215 694 l 1042 694 l 1042 868 m 694 694 l 868 694 l 868 521 l 694 521 l 694 694 m 868 694 l 1042 694 l 1042 521 l 868 521 l 868 694 m 521 521 l 694 521 l 694 347 l 521 347 l 521 521 m 694 521 l 868 521 l 868 347 l 694 347 l 694 521 m 347 347 l 521 347 l 521 174 l 347 174 l 347 347 m 521 347 l 694 347 l 694 174 l 521 174 l 521 347 z "},"?":{"ha":1389,"x_min":172,"x_max":1217,"o":"m 347 1389 l 521 1389 l 521 1215 l 347 1215 l 347 1389 m 521 1389 l 694 1389 l 694 1215 l 521 1215 l 521 1389 m 694 1389 l 868 1389 l 868 1215 l 694 1215 l 694 1389 m 868 1389 l 1042 1389 l 1042 1215 l 868 1215 l 868 1389 m 174 1215 l 347 1215 l 347 1042 l 174 1042 l 174 1215 m 347 1215 l 521 1215 l 521 1042 l 347 1042 l 347 1215 m 868 1215 l 1042 1215 l 1042 1042 l 868 1042 l 868 1215 m 1042 1215 l 1215 1215 l 1215 1042 l 1042 1042 l 1042 1215 m 868 1042 l 1042 1042 l 1042 868 l 868 868 l 868 1042 m 1042 1042 l 1215 1042 l 1215 868 l 1042 868 l 1042 1042 m 694 868 l 868 868 l 868 694 l 694 694 l 694 868 m 868 868 l 1042 868 l 1042 694 l 868 694 l 868 868 m 521 694 l 694 694 l 694 521 l 521 521 l 521 694 m 694 694 l 868 694 l 868 521 l 694 521 l 694 694 m 521 347 l 694 347 l 694 174 l 521 174 l 521 347 m 694 347 l 868 347 l 868 174 l 694 174 l 694 347 z "},"@":{"ha":1389,"x_min":-2,"x_max":1217,"o":"m 174 1389 l 347 1389 l 347 1215 l 174 1215 l 174 1389 m 347 1389 l 521 1389 l 521 1215 l 347 1215 l 347 1389 m 521 1389 l 694 1389 l 694 1215 l 521 1215 l 521 1389 m 694 1389 l 868 1389 l 868 1215 l 694 1215 l 694 1389 m 868 1389 l 1042 1389 l 1042 1215 l 868 1215 l 868 1389 m 0 1215 l 174 1215 l 174 1042 l 0 1042 l 0 1215 m 174 1215 l 347 1215 l 347 1042 l 174 1042 l 174 1215 m 868 1215 l 1042 1215 l 1042 1042 l 868 1042 l 868 1215 m 1042 1215 l 1215 1215 l 1215 1042 l 1042 1042 l 1042 1215 m 0 1042 l 174 1042 l 174 868 l 0 868 l 0 1042 m 174 1042 l 347 1042 l 347 868 l 174 868 l 174 1042 m 521 1042 l 694 1042 l 694 868 l 521 868 l 521 1042 m 694 1042 l 868 1042 l 868 868 l 694 868 l 694 1042 m 868 1042 l 1042 1042 l 1042 868 l 868 868 l 868 1042 m 1042 1042 l 1215 1042 l 1215 868 l 1042 868 l 1042 1042 m 0 868 l 174 868 l 174 694 l 0 694 l 0 868 m 174 868 l 347 868 l 347 694 l 174 694 l 174 868 m 521 868 l 694 868 l 694 694 l 521 694 l 521 868 m 694 868 l 868 868 l 868 694 l 694 694 l 694 868 m 868 868 l 1042 868 l 1042 694 l 868 694 l 868 868 m 1042 868 l 1215 868 l 1215 694 l 1042 694 l 1042 868 m 0 694 l 174 694 l 174 521 l 0 521 l 0 694 m 174 694 l 347 694 l 347 521 l 174 521 l 174 694 m 521 694 l 694 694 l 694 521 l 521 521 l 521 694 m 694 694 l 868 694 l 868 521 l 694 521 l 694 694 m 868 694 l 1042 694 l 1042 521 l 868 521 l 868 694 m 1042 694 l 1215 694 l 1215 521 l 1042 521 l 1042 694 m 0 521 l 174 521 l 174 347 l 0 347 l 0 521 m 174 521 l 347 521 l 347 347 l 174 347 l 174 521 m 174 347 l 347 347 l 347 174 l 174 174 l 174 347 m 347 347 l 521 347 l 521 174 l 347 174 l 347 347 m 521 347 l 694 347 l 694 174 l 521 174 l 521 347 m 694 347 l 868 347 l 868 174 l 694 174 l 694 347 z "},"A":{"ha":1389,"x_min":-2,"x_max":1391,"o":"m 521 1389 l 694 1389 l 694 1215 l 521 1215 l 521 1389 m 694 1389 l 868 1389 l 868 1215 l 694 1215 l 694 1389 m 347 1215 l 521 1215 l 521 1042 l 347 1042 l 347 1215 m 521 1215 l 694 1215 l 694 1042 l 521 1042 l 521 1215 m 694 1215 l 868 1215 l 868 1042 l 694 1042 l 694 1215 m 868 1215 l 1042 1215 l 1042 1042 l 868 1042 l 868 1215 m 347 1042 l 521 1042 l 521 868 l 347 868 l 347 1042 m 521 1042 l 694 1042 l 694 868 l 521 868 l 521 1042 m 694 1042 l 868 1042 l 868 868 l 694 868 l 694 1042 m 868 1042 l 1042 1042 l 1042 868 l 868 868 l 868 1042 m 174 868 l 347 868 l 347 694 l 174 694 l 174 868 m 347 868 l 521 868 l 521 694 l 347 694 l 347 868 m 868 868 l 1042 868 l 1042 694 l 868 694 l 868 868 m 1042 868 l 1215 868 l 1215 694 l 1042 694 l 1042 868 m 174 694 l 347 694 l 347 521 l 174 521 l 174 694 m 347 694 l 521 694 l 521 521 l 347 521 l 347 694 m 521 694 l 694 694 l 694 521 l 521 521 l 521 694 m 694 694 l 868 694 l 868 521 l 694 521 l 694 694 m 868 694 l 1042 694 l 1042 521 l 868 521 l 868 694 m 1042 694 l 1215 694 l 1215 521 l 1042 521 l 1042 694 m 0 521 l 174 521 l 174 347 l 0 347 l 0 521 m 174 521 l 347 521 l 347 347 l 174 347 l 174 521 m 1042 521 l 1215 521 l 1215 347 l 1042 347 l 1042 521 m 1215 521 l 1389 521 l 1389 347 l 1215 347 l 1215 521 m 0 347 l 174 347 l 174 174 l 0 174 l 0 347 m 174 347 l 347 347 l 347 174 l 174 174 l 174 347 m 1042 347 l 1215 347 l 1215 174 l 1042 174 l 1042 347 m 1215 347 l 1389 347 l 1389 174 l 1215 174 l 1215 347 z "},"B":{"ha":1389,"x_min":-2,"x_max":1217,"o":"m 0 1389 l 174 1389 l 174 1215 l 0 1215 l 0 1389 m 174 1389 l 347 1389 l 347 1215 l 174 1215 l 174 1389 m 347 1389 l 521 1389 l 521 1215 l 347 1215 l 347 1389 m 521 1389 l 694 1389 l 694 1215 l 521 1215 l 521 1389 m 694 1389 l 868 1389 l 868 1215 l 694 1215 l 694 1389 m 868 1389 l 1042 1389 l 1042 1215 l 868 1215 l 868 1389 m 174 1215 l 347 1215 l 347 1042 l 174 1042 l 174 1215 m 347 1215 l 521 1215 l 521 1042 l 347 1042 l 347 1215 m 868 1215 l 1042 1215 l 1042 1042 l 868 1042 l 868 1215 m 1042 1215 l 1215 1215 l 1215 1042 l 1042 1042 l 1042 1215 m 174 1042 l 347 1042 l 347 868 l 174 868 l 174 1042 m 347 1042 l 521 1042 l 521 868 l 347 868 l 347 1042 m 868 1042 l 1042 1042 l 1042 868 l 868 868 l 868 1042 m 1042 1042 l 1215 1042 l 1215 868 l 1042 868 l 1042 1042 m 174 868 l 347 868 l 347 694 l 174 694 l 174 868 m 347 868 l 521 868 l 521 694 l 347 694 l 347 868 m 521 868 l 694 868 l 694 694 l 521 694 l 521 868 m 694 868 l 868 868 l 868 694 l 694 694 l 694 868 m 868 868 l 1042 868 l 1042 694 l 868 694 l 868 868 m 174 694 l 347 694 l 347 521 l 174 521 l 174 694 m 347 694 l 521 694 l 521 521 l 347 521 l 347 694 m 868 694 l 1042 694 l 1042 521 l 868 521 l 868 694 m 1042 694 l 1215 694 l 1215 521 l 1042 521 l 1042 694 m 174 521 l 347 521 l 347 347 l 174 347 l 174 521 m 347 521 l 521 521 l 521 347 l 347 347 l 347 521 m 868 521 l 1042 521 l 1042 347 l 868 347 l 868 521 m 1042 521 l 1215 521 l 1215 347 l 1042 347 l 1042 521 m 0 347 l 174 347 l 174 174 l 0 174 l 0 347 m 174 347 l 347 347 l 347 174 l 174 174 l 174 347 m 347 347 l 521 347 l 521 174 l 347 174 l 347 347 m 521 347 l 694 347 l 694 174 l 521 174 l 521 347 m 694 347 l 868 347 l 868 174 l 694 174 l 694 347 m 868 347 l 1042 347 l 1042 174 l 868 174 l 868 347 z "},"C":{"ha":1389,"x_min":-2,"x_max":1217,"o":"m 347 1389 l 521 1389 l 521 1215 l 347 1215 l 347 1389 m 521 1389 l 694 1389 l 694 1215 l 521 1215 l 521 1389 m 694 1389 l 868 1389 l 868 1215 l 694 1215 l 694 1389 m 868 1389 l 1042 1389 l 1042 1215 l 868 1215 l 868 1389 m 174 1215 l 347 1215 l 347 1042 l 174 1042 l 174 1215 m 347 1215 l 521 1215 l 521 1042 l 347 1042 l 347 1215 m 868 1215 l 1042 1215 l 1042 1042 l 868 1042 l 868 1215 m 1042 1215 l 1215 1215 l 1215 1042 l 1042 1042 l 1042 1215 m 0 1042 l 174 1042 l 174 868 l 0 868 l 0 1042 m 174 1042 l 347 1042 l 347 868 l 174 868 l 174 1042 m 0 868 l 174 868 l 174 694 l 0 694 l 0 868 m 174 868 l 347 868 l 347 694 l 174 694 l 174 868 m 0 694 l 174 694 l 174 521 l 0 521 l 0 694 m 174 694 l 347 694 l 347 521 l 174 521 l 174 694 m 174 521 l 347 521 l 347 347 l 174 347 l 174 521 m 347 521 l 521 521 l 521 347 l 347 347 l 347 521 m 868 521 l 1042 521 l 1042 347 l 868 347 l 868 521 m 1042 521 l 1215 521 l 1215 347 l 1042 347 l 1042 521 m 347 347 l 521 347 l 521 174 l 347 174 l 347 347 m 521 347 l 694 347 l 694 174 l 521 174 l 521 347 m 694 347 l 868 347 l 868 174 l 694 174 l 694 347 m 868 347 l 1042 347 l 1042 174 l 868 174 l 868 347 z "},"D":{"ha":1389,"x_min":-2,"x_max":1217,"o":"m 0 1389 l 174 1389 l 174 1215 l 0 1215 l 0 1389 m 174 1389 l 347 1389 l 347 1215 l 174 1215 l 174 1389 m 347 1389 l 521 1389 l 521 1215 l 347 1215 l 347 1389 m 521 1389 l 694 1389 l 694 1215 l 521 1215 l 521 1389 m 694 1389 l 868 1389 l 868 1215 l 694 1215 l 694 1389 m 174 1215 l 347 1215 l 347 1042 l 174 1042 l 174 1215 m 347 1215 l 521 1215 l 521 1042 l 347 1042 l 347 1215 m 694 1215 l 868 1215 l 868 1042 l 694 1042 l 694 1215 m 868 1215 l 1042 1215 l 1042 1042 l 868 1042 l 868 1215 m 174 1042 l 347 1042 l 347 868 l 174 868 l 174 1042 m 347 1042 l 521 1042 l 521 868 l 347 868 l 347 1042 m 868 1042 l 1042 1042 l 1042 868 l 868 868 l 868 1042 m 1042 1042 l 1215 1042 l 1215 868 l 1042 868 l 1042 1042 m 174 868 l 347 868 l 347 694 l 174 694 l 174 868 m 347 868 l 521 868 l 521 694 l 347 694 l 347 868 m 868 868 l 1042 868 l 1042 694 l 868 694 l 868 868 m 1042 868 l 1215 868 l 1215 694 l 1042 694 l 1042 868 m 174 694 l 347 694 l 347 521 l 174 521 l 174 694 m 347 694 l 521 694 l 521 521 l 347 521 l 347 694 m 868 694 l 1042 694 l 1042 521 l 868 521 l 868 694 m 1042 694 l 1215 694 l 1215 521 l 1042 521 l 1042 694 m 174 521 l 347 521 l 347 347 l 174 347 l 174 521 m 347 521 l 521 521 l 521 347 l 347 347 l 347 521 m 694 521 l 868 521 l 868 347 l 694 347 l 694 521 m 868 521 l 1042 521 l 1042 347 l 868 347 l 868 521 m 0 347 l 174 347 l 174 174 l 0 174 l 0 347 m 174 347 l 347 347 l 347 174 l 174 174 l 174 347 m 347 347 l 521 347 l 521 174 l 347 174 l 347 347 m 521 347 l 694 347 l 694 174 l 521 174 l 521 347 m 694 347 l 868 347 l 868 174 l 694 174 l 694 347 z "},"E":{"ha":1389,"x_min":-2,"x_max":1217,"o":"m 0 1389 l 174 1389 l 174 1215 l 0 1215 l 0 1389 m 174 1389 l 347 1389 l 347 1215 l 174 1215 l 174 1389 m 347 1389 l 521 1389 l 521 1215 l 347 1215 l 347 1389 m 521 1389 l 694 1389 l 694 1215 l 521 1215 l 521 1389 m 694 1389 l 868 1389 l 868 1215 l 694 1215 l 694 1389 m 868 1389 l 1042 1389 l 1042 1215 l 868 1215 l 868 1389 m 1042 1389 l 1215 1389 l 1215 1215 l 1042 1215 l 1042 1389 m 174 1215 l 347 1215 l 347 1042 l 174 1042 l 174 1215 m 347 1215 l 521 1215 l 521 1042 l 347 1042 l 347 1215 m 868 1215 l 1042 1215 l 1042 1042 l 868 1042 l 868 1215 m 1042 1215 l 1215 1215 l 1215 1042 l 1042 1042 l 1042 1215 m 174 1042 l 347 1042 l 347 868 l 174 868 l 174 1042 m 347 1042 l 521 1042 l 521 868 l 347 868 l 347 1042 m 174 868 l 347 868 l 347 694 l 174 694 l 174 868 m 347 868 l 521 868 l 521 694 l 347 694 l 347 868 m 521 868 l 694 868 l 694 694 l 521 694 l 521 868 m 694 868 l 868 868 l 868 694 l 694 694 l 694 868 m 174 694 l 347 694 l 347 521 l 174 521 l 174 694 m 347 694 l 521 694 l 521 521 l 347 521 l 347 694 m 174 521 l 347 521 l 347 347 l 174 347 l 174 521 m 347 521 l 521 521 l 521 347 l 347 347 l 347 521 m 868 521 l 1042 521 l 1042 347 l 868 347 l 868 521 m 1042 521 l 1215 521 l 1215 347 l 1042 347 l 1042 521 m 0 347 l 174 347 l 174 174 l 0 174 l 0 347 m 174 347 l 347 347 l 347 174 l 174 174 l 174 347 m 347 347 l 521 347 l 521 174 l 347 174 l 347 347 m 521 347 l 694 347 l 694 174 l 521 174 l 521 347 m 694 347 l 868 347 l 868 174 l 694 174 l 694 347 m 868 347 l 1042 347 l 1042 174 l 868 174 l 868 347 m 1042 347 l 1215 347 l 1215 174 l 1042 174 l 1042 347 z "},"F":{"ha":1389,"x_min":-2,"x_max":1217,"o":"m 0 1389 l 174 1389 l 174 1215 l 0 1215 l 0 1389 m 174 1389 l 347 1389 l 347 1215 l 174 1215 l 174 1389 m 347 1389 l 521 1389 l 521 1215 l 347 1215 l 347 1389 m 521 1389 l 694 1389 l 694 1215 l 521 1215 l 521 1389 m 694 1389 l 868 1389 l 868 1215 l 694 1215 l 694 1389 m 868 1389 l 1042 1389 l 1042 1215 l 868 1215 l 868 1389 m 1042 1389 l 1215 1389 l 1215 1215 l 1042 1215 l 1042 1389 m 174 1215 l 347 1215 l 347 1042 l 174 1042 l 174 1215 m 347 1215 l 521 1215 l 521 1042 l 347 1042 l 347 1215 m 868 1215 l 1042 1215 l 1042 1042 l 868 1042 l 868 1215 m 1042 1215 l 1215 1215 l 1215 1042 l 1042 1042 l 1042 1215 m 174 1042 l 347 1042 l 347 868 l 174 868 l 174 1042 m 347 1042 l 521 1042 l 521 868 l 347 868 l 347 1042 m 174 868 l 347 868 l 347 694 l 174 694 l 174 868 m 347 868 l 521 868 l 521 694 l 347 694 l 347 868 m 521 868 l 694 868 l 694 694 l 521 694 l 521 868 m 694 868 l 868 868 l 868 694 l 694 694 l 694 868 m 174 694 l 347 694 l 347 521 l 174 521 l 174 694 m 347 694 l 521 694 l 521 521 l 347 521 l 347 694 m 174 521 l 347 521 l 347 347 l 174 347 l 174 521 m 347 521 l 521 521 l 521 347 l 347 347 l 347 521 m 0 347 l 174 347 l 174 174 l 0 174 l 0 347 m 174 347 l 347 347 l 347 174 l 174 174 l 174 347 m 347 347 l 521 347 l 521 174 l 347 174 l 347 347 m 521 347 l 694 347 l 694 174 l 521 174 l 521 347 z "},"G":{"ha":1389,"x_min":-2,"x_max":1217,"o":"m 347 1389 l 521 1389 l 521 1215 l 347 1215 l 347 1389 m 521 1389 l 694 1389 l 694 1215 l 521 1215 l 521 1389 m 694 1389 l 868 1389 l 868 1215 l 694 1215 l 694 1389 m 868 1389 l 1042 1389 l 1042 1215 l 868 1215 l 868 1389 m 174 1215 l 347 1215 l 347 1042 l 174 1042 l 174 1215 m 347 1215 l 521 1215 l 521 1042 l 347 1042 l 347 1215 m 868 1215 l 1042 1215 l 1042 1042 l 868 1042 l 868 1215 m 1042 1215 l 1215 1215 l 1215 1042 l 1042 1042 l 1042 1215 m 0 1042 l 174 1042 l 174 868 l 0 868 l 0 1042 m 174 1042 l 347 1042 l 347 868 l 174 868 l 174 1042 m 0 868 l 174 868 l 174 694 l 0 694 l 0 868 m 174 868 l 347 868 l 347 694 l 174 694 l 174 868 m 694 868 l 868 868 l 868 694 l 694 694 l 694 868 m 868 868 l 1042 868 l 1042 694 l 868 694 l 868 868 m 1042 868 l 1215 868 l 1215 694 l 1042 694 l 1042 868 m 0 694 l 174 694 l 174 521 l 0 521 l 0 694 m 174 694 l 347 694 l 347 521 l 174 521 l 174 694 m 868 694 l 1042 694 l 1042 521 l 868 521 l 868 694 m 1042 694 l 1215 694 l 1215 521 l 1042 521 l 1042 694 m 174 521 l 347 521 l 347 347 l 174 347 l 174 521 m 347 521 l 521 521 l 521 347 l 347 347 l 347 521 m 868 521 l 1042 521 l 1042 347 l 868 347 l 868 521 m 1042 521 l 1215 521 l 1215 347 l 1042 347 l 1042 521 m 347 347 l 521 347 l 521 174 l 347 174 l 347 347 m 521 347 l 694 347 l 694 174 l 521 174 l 521 347 m 694 347 l 868 347 l 868 174 l 694 174 l 694 347 m 868 347 l 1042 347 l 1042 174 l 868 174 l 868 347 m 1042 347 l 1215 347 l 1215 174 l 1042 174 l 1042 347 z "},"H":{"ha":1389,"x_min":172,"x_max":1217,"o":"m 174 1389 l 347 1389 l 347 1215 l 174 1215 l 174 1389 m 347 1389 l 521 1389 l 521 1215 l 347 1215 l 347 1389 m 868 1389 l 1042 1389 l 1042 1215 l 868 1215 l 868 1389 m 1042 1389 l 1215 1389 l 1215 1215 l 1042 1215 l 1042 1389 m 174 1215 l 347 1215 l 347 1042 l 174 1042 l 174 1215 m 347 1215 l 521 1215 l 521 1042 l 347 1042 l 347 1215 m 868 1215 l 1042 1215 l 1042 1042 l 868 1042 l 868 1215 m 1042 1215 l 1215 1215 l 1215 1042 l 1042 1042 l 1042 1215 m 174 1042 l 347 1042 l 347 868 l 174 868 l 174 1042 m 347 1042 l 521 1042 l 521 868 l 347 868 l 347 1042 m 868 1042 l 1042 1042 l 1042 868 l 868 868 l 868 1042 m 1042 1042 l 1215 1042 l 1215 868 l 1042 868 l 1042 1042 m 174 868 l 347 868 l 347 694 l 174 694 l 174 868 m 347 868 l 521 868 l 521 694 l 347 694 l 347 868 m 521 868 l 694 868 l 694 694 l 521 694 l 521 868 m 694 868 l 868 868 l 868 694 l 694 694 l 694 868 m 868 868 l 1042 868 l 1042 694 l 868 694 l 868 868 m 1042 868 l 1215 868 l 1215 694 l 1042 694 l 1042 868 m 174 694 l 347 694 l 347 521 l 174 521 l 174 694 m 347 694 l 521 694 l 521 521 l 347 521 l 347 694 m 868 694 l 1042 694 l 1042 521 l 868 521 l 868 694 m 1042 694 l 1215 694 l 1215 521 l 1042 521 l 1042 694 m 174 521 l 347 521 l 347 347 l 174 347 l 174 521 m 347 521 l 521 521 l 521 347 l 347 347 l 347 521 m 868 521 l 1042 521 l 1042 347 l 868 347 l 868 521 m 1042 521 l 1215 521 l 1215 347 l 1042 347 l 1042 521 m 174 347 l 347 347 l 347 174 l 174 174 l 174 347 m 347 347 l 521 347 l 521 174 l 347 174 l 347 347 m 868 347 l 1042 347 l 1042 174 l 868 174 l 868 347 m 1042 347 l 1215 347 l 1215 174 l 1042 174 l 1042 347 z "},"I":{"ha":1389,"x_min":172,"x_max":1217,"o":"m 174 1389 l 347 1389 l 347 1215 l 174 1215 l 174 1389 m 347 1389 l 521 1389 l 521 1215 l 347 1215 l 347 1389 m 521 1389 l 694 1389 l 694 1215 l 521 1215 l 521 1389 m 694 1389 l 868 1389 l 868 1215 l 694 1215 l 694 1389 m 868 1389 l 1042 1389 l 1042 1215 l 868 1215 l 868 1389 m 1042 1389 l 1215 1389 l 1215 1215 l 1042 1215 l 1042 1389 m 521 1215 l 694 1215 l 694 1042 l 521 1042 l 521 1215 m 694 1215 l 868 1215 l 868 1042 l 694 1042 l 694 1215 m 521 1042 l 694 1042 l 694 868 l 521 868 l 521 1042 m 694 1042 l 868 1042 l 868 868 l 694 868 l 694 1042 m 521 868 l 694 868 l 694 694 l 521 694 l 521 868 m 694 868 l 868 868 l 868 694 l 694 694 l 694 868 m 521 694 l 694 694 l 694 521 l 521 521 l 521 694 m 694 694 l 868 694 l 868 521 l 694 521 l 694 694 m 521 521 l 694 521 l 694 347 l 521 347 l 521 521 m 694 521 l 868 521 l 868 347 l 694 347 l 694 521 m 174 347 l 347 347 l 347 174 l 174 174 l 174 347 m 347 347 l 521 347 l 521 174 l 347 174 l 347 347 m 521 347 l 694 347 l 694 174 l 521 174 l 521 347 m 694 347 l 868 347 l 868 174 l 694 174 l 694 347 m 868 347 l 1042 347 l 1042 174 l 868 174 l 868 347 m 1042 347 l 1215 347 l 1215 174 l 1042 174 l 1042 347 z "},"J":{"ha":1389,"x_min":172,"x_max":1217,"o":"m 694 1389 l 868 1389 l 868 1215 l 694 1215 l 694 1389 m 868 1389 l 1042 1389 l 1042 1215 l 868 1215 l 868 1389 m 1042 1389 l 1215 1389 l 1215 1215 l 1042 1215 l 1042 1389 m 868 1215 l 1042 1215 l 1042 1042 l 868 1042 l 868 1215 m 1042 1215 l 1215 1215 l 1215 1042 l 1042 1042 l 1042 1215 m 868 1042 l 1042 1042 l 1042 868 l 868 868 l 868 1042 m 1042 1042 l 1215 1042 l 1215 868 l 1042 868 l 1042 1042 m 868 868 l 1042 868 l 1042 694 l 868 694 l 868 868 m 1042 868 l 1215 868 l 1215 694 l 1042 694 l 1042 868 m 174 694 l 347 694 l 347 521 l 174 521 l 174 694 m 347 694 l 521 694 l 521 521 l 347 521 l 347 694 m 868 694 l 1042 694 l 1042 521 l 868 521 l 868 694 m 1042 694 l 1215 694 l 1215 521 l 1042 521 l 1042 694 m 174 521 l 347 521 l 347 347 l 174 347 l 174 521 m 347 521 l 521 521 l 521 347 l 347 347 l 347 521 m 868 521 l 1042 521 l 1042 347 l 868 347 l 868 521 m 1042 521 l 1215 521 l 1215 347 l 1042 347 l 1042 521 m 347 347 l 521 347 l 521 174 l 347 174 l 347 347 m 521 347 l 694 347 l 694 174 l 521 174 l 521 347 m 694 347 l 868 347 l 868 174 l 694 174 l 694 347 m 868 347 l 1042 347 l 1042 174 l 868 174 l 868 347 z "},"K":{"ha":1389,"x_min":-2,"x_max":1217,"o":"m 0 1389 l 174 1389 l 174 1215 l 0 1215 l 0 1389 m 174 1389 l 347 1389 l 347 1215 l 174 1215 l 174 1389 m 347 1389 l 521 1389 l 521 1215 l 347 1215 l 347 1389 m 868 1389 l 1042 1389 l 1042 1215 l 868 1215 l 868 1389 m 1042 1389 l 1215 1389 l 1215 1215 l 1042 1215 l 1042 1389 m 174 1215 l 347 1215 l 347 1042 l 174 1042 l 174 1215 m 347 1215 l 521 1215 l 521 1042 l 347 1042 l 347 1215 m 868 1215 l 1042 1215 l 1042 1042 l 868 1042 l 868 1215 m 1042 1215 l 1215 1215 l 1215 1042 l 1042 1042 l 1042 1215 m 174 1042 l 347 1042 l 347 868 l 174 868 l 174 1042 m 347 1042 l 521 1042 l 521 868 l 347 868 l 347 1042 m 694 1042 l 868 1042 l 868 868 l 694 868 l 694 1042 m 868 1042 l 1042 1042 l 1042 868 l 868 868 l 868 1042 m 174 868 l 347 868 l 347 694 l 174 694 l 174 868 m 347 868 l 521 868 l 521 694 l 347 694 l 347 868 m 521 868 l 694 868 l 694 694 l 521 694 l 521 868 m 694 868 l 868 868 l 868 694 l 694 694 l 694 868 m 174 694 l 347 694 l 347 521 l 174 521 l 174 694 m 347 694 l 521 694 l 521 521 l 347 521 l 347 694 m 694 694 l 868 694 l 868 521 l 694 521 l 694 694 m 868 694 l 1042 694 l 1042 521 l 868 521 l 868 694 m 174 521 l 347 521 l 347 347 l 174 347 l 174 521 m 347 521 l 521 521 l 521 347 l 347 347 l 347 521 m 868 521 l 1042 521 l 1042 347 l 868 347 l 868 521 m 1042 521 l 1215 521 l 1215 347 l 1042 347 l 1042 521 m 0 347 l 174 347 l 174 174 l 0 174 l 0 347 m 174 347 l 347 347 l 347 174 l 174 174 l 174 347 m 347 347 l 521 347 l 521 174 l 347 174 l 347 347 m 868 347 l 1042 347 l 1042 174 l 868 174 l 868 347 m 1042 347 l 1215 347 l 1215 174 l 1042 174 l 1042 347 z "},"L":{"ha":1389,"x_min":-2,"x_max":1217,"o":"m 0 1389 l 174 1389 l 174 1215 l 0 1215 l 0 1389 m 174 1389 l 347 1389 l 347 1215 l 174 1215 l 174 1389 m 347 1389 l 521 1389 l 521 1215 l 347 1215 l 347 1389 m 521 1389 l 694 1389 l 694 1215 l 521 1215 l 521 1389 m 174 1215 l 347 1215 l 347 1042 l 174 1042 l 174 1215 m 347 1215 l 521 1215 l 521 1042 l 347 1042 l 347 1215 m 174 1042 l 347 1042 l 347 868 l 174 868 l 174 1042 m 347 1042 l 521 1042 l 521 868 l 347 868 l 347 1042 m 174 868 l 347 868 l 347 694 l 174 694 l 174 868 m 347 868 l 521 868 l 521 694 l 347 694 l 347 868 m 174 694 l 347 694 l 347 521 l 174 521 l 174 694 m 347 694 l 521 694 l 521 521 l 347 521 l 347 694 m 1042 694 l 1215 694 l 1215 521 l 1042 521 l 1042 694 m 174 521 l 347 521 l 347 347 l 174 347 l 174 521 m 347 521 l 521 521 l 521 347 l 347 347 l 347 521 m 868 521 l 1042 521 l 1042 347 l 868 347 l 868 521 m 1042 521 l 1215 521 l 1215 347 l 1042 347 l 1042 521 m 0 347 l 174 347 l 174 174 l 0 174 l 0 347 m 174 347 l 347 347 l 347 174 l 174 174 l 174 347 m 347 347 l 521 347 l 521 174 l 347 174 l 347 347 m 521 347 l 694 347 l 694 174 l 521 174 l 521 347 m 694 347 l 868 347 l 868 174 l 694 174 l 694 347 m 868 347 l 1042 347 l 1042 174 l 868 174 l 868 347 m 1042 347 l 1215 347 l 1215 174 l 1042 174 l 1042 347 z "},"M":{"ha":1389,"x_min":-2,"x_max":1217,"o":"m 0 1389 l 174 1389 l 174 1215 l 0 1215 l 0 1389 m 1042 1389 l 1215 1389 l 1215 1215 l 1042 1215 l 1042 1389 m 0 1215 l 174 1215 l 174 1042 l 0 1042 l 0 1215 m 174 1215 l 347 1215 l 347 1042 l 174 1042 l 174 1215 m 868 1215 l 1042 1215 l 1042 1042 l 868 1042 l 868 1215 m 1042 1215 l 1215 1215 l 1215 1042 l 1042 1042 l 1042 1215 m 0 1042 l 174 1042 l 174 868 l 0 868 l 0 1042 m 174 1042 l 347 1042 l 347 868 l 174 868 l 174 1042 m 347 1042 l 521 1042 l 521 868 l 347 868 l 347 1042 m 694 1042 l 868 1042 l 868 868 l 694 868 l 694 1042 m 868 1042 l 1042 1042 l 1042 868 l 868 868 l 868 1042 m 1042 1042 l 1215 1042 l 1215 868 l 1042 868 l 1042 1042 m 0 868 l 174 868 l 174 694 l 0 694 l 0 868 m 174 868 l 347 868 l 347 694 l 174 694 l 174 868 m 347 868 l 521 868 l 521 694 l 347 694 l 347 868 m 521 868 l 694 868 l 694 694 l 521 694 l 521 868 m 694 868 l 868 868 l 868 694 l 694 694 l 694 868 m 868 868 l 1042 868 l 1042 694 l 868 694 l 868 868 m 1042 868 l 1215 868 l 1215 694 l 1042 694 l 1042 868 m 0 694 l 174 694 l 174 521 l 0 521 l 0 694 m 174 694 l 347 694 l 347 521 l 174 521 l 174 694 m 521 694 l 694 694 l 694 521 l 521 521 l 521 694 m 868 694 l 1042 694 l 1042 521 l 868 521 l 868 694 m 1042 694 l 1215 694 l 1215 521 l 1042 521 l 1042 694 m 0 521 l 174 521 l 174 347 l 0 347 l 0 521 m 174 521 l 347 521 l 347 347 l 174 347 l 174 521 m 868 521 l 1042 521 l 1042 347 l 868 347 l 868 521 m 1042 521 l 1215 521 l 1215 347 l 1042 347 l 1042 521 m 0 347 l 174 347 l 174 174 l 0 174 l 0 347 m 174 347 l 347 347 l 347 174 l 174 174 l 174 347 m 868 347 l 1042 347 l 1042 174 l 868 174 l 868 347 m 1042 347 l 1215 347 l 1215 174 l 1042 174 l 1042 347 z "},"N":{"ha":1389,"x_min":-2,"x_max":1217,"o":"m 0 1389 l 174 1389 l 174 1215 l 0 1215 l 0 1389 m 174 1389 l 347 1389 l 347 1215 l 174 1215 l 174 1389 m 868 1389 l 1042 1389 l 1042 1215 l 868 1215 l 868 1389 m 1042 1389 l 1215 1389 l 1215 1215 l 1042 1215 l 1042 1389 m 0 1215 l 174 1215 l 174 1042 l 0 1042 l 0 1215 m 174 1215 l 347 1215 l 347 1042 l 174 1042 l 174 1215 m 347 1215 l 521 1215 l 521 1042 l 347 1042 l 347 1215 m 868 1215 l 1042 1215 l 1042 1042 l 868 1042 l 868 1215 m 1042 1215 l 1215 1215 l 1215 1042 l 1042 1042 l 1042 1215 m 0 1042 l 174 1042 l 174 868 l 0 868 l 0 1042 m 174 1042 l 347 1042 l 347 868 l 174 868 l 174 1042 m 347 1042 l 521 1042 l 521 868 l 347 868 l 347 1042 m 521 1042 l 694 1042 l 694 868 l 521 868 l 521 1042 m 868 1042 l 1042 1042 l 1042 868 l 868 868 l 868 1042 m 1042 1042 l 1215 1042 l 1215 868 l 1042 868 l 1042 1042 m 0 868 l 174 868 l 174 694 l 0 694 l 0 868 m 174 868 l 347 868 l 347 694 l 174 694 l 174 868 m 521 868 l 694 868 l 694 694 l 521 694 l 521 868 m 694 868 l 868 868 l 868 694 l 694 694 l 694 868 m 868 868 l 1042 868 l 1042 694 l 868 694 l 868 868 m 1042 868 l 1215 868 l 1215 694 l 1042 694 l 1042 868 m 0 694 l 174 694 l 174 521 l 0 521 l 0 694 m 174 694 l 347 694 l 347 521 l 174 521 l 174 694 m 694 694 l 868 694 l 868 521 l 694 521 l 694 694 m 868 694 l 1042 694 l 1042 521 l 868 521 l 868 694 m 1042 694 l 1215 694 l 1215 521 l 1042 521 l 1042 694 m 0 521 l 174 521 l 174 347 l 0 347 l 0 521 m 174 521 l 347 521 l 347 347 l 174 347 l 174 521 m 868 521 l 1042 521 l 1042 347 l 868 347 l 868 521 m 1042 521 l 1215 521 l 1215 347 l 1042 347 l 1042 521 m 0 347 l 174 347 l 174 174 l 0 174 l 0 347 m 174 347 l 347 347 l 347 174 l 174 174 l 174 347 m 868 347 l 1042 347 l 1042 174 l 868 174 l 868 347 m 1042 347 l 1215 347 l 1215 174 l 1042 174 l 1042 347 z "},"O":{"ha":1389,"x_min":-2,"x_max":1217,"o":"m 347 1389 l 521 1389 l 521 1215 l 347 1215 l 347 1389 m 521 1389 l 694 1389 l 694 1215 l 521 1215 l 521 1389 m 694 1389 l 868 1389 l 868 1215 l 694 1215 l 694 1389 m 174 1215 l 347 1215 l 347 1042 l 174 1042 l 174 1215 m 347 1215 l 521 1215 l 521 1042 l 347 1042 l 347 1215 m 694 1215 l 868 1215 l 868 1042 l 694 1042 l 694 1215 m 868 1215 l 1042 1215 l 1042 1042 l 868 1042 l 868 1215 m 0 1042 l 174 1042 l 174 868 l 0 868 l 0 1042 m 174 1042 l 347 1042 l 347 868 l 174 868 l 174 1042 m 868 1042 l 1042 1042 l 1042 868 l 868 868 l 868 1042 m 1042 1042 l 1215 1042 l 1215 868 l 1042 868 l 1042 1042 m 0 868 l 174 868 l 174 694 l 0 694 l 0 868 m 174 868 l 347 868 l 347 694 l 174 694 l 174 868 m 868 868 l 1042 868 l 1042 694 l 868 694 l 868 868 m 1042 868 l 1215 868 l 1215 694 l 1042 694 l 1042 868 m 0 694 l 174 694 l 174 521 l 0 521 l 0 694 m 174 694 l 347 694 l 347 521 l 174 521 l 174 694 m 868 694 l 1042 694 l 1042 521 l 868 521 l 868 694 m 1042 694 l 1215 694 l 1215 521 l 1042 521 l 1042 694 m 174 521 l 347 521 l 347 347 l 174 347 l 174 521 m 347 521 l 521 521 l 521 347 l 347 347 l 347 521 m 694 521 l 868 521 l 868 347 l 694 347 l 694 521 m 868 521 l 1042 521 l 1042 347 l 868 347 l 868 521 m 347 347 l 521 347 l 521 174 l 347 174 l 347 347 m 521 347 l 694 347 l 694 174 l 521 174 l 521 347 m 694 347 l 868 347 l 868 174 l 694 174 l 694 347 z "},"P":{"ha":1389,"x_min":-2,"x_max":1217,"o":"m 0 1389 l 174 1389 l 174 1215 l 0 1215 l 0 1389 m 174 1389 l 347 1389 l 347 1215 l 174 1215 l 174 1389 m 347 1389 l 521 1389 l 521 1215 l 347 1215 l 347 1389 m 521 1389 l 694 1389 l 694 1215 l 521 1215 l 521 1389 m 694 1389 l 868 1389 l 868 1215 l 694 1215 l 694 1389 m 868 1389 l 1042 1389 l 1042 1215 l 868 1215 l 868 1389 m 174 1215 l 347 1215 l 347 1042 l 174 1042 l 174 1215 m 347 1215 l 521 1215 l 521 1042 l 347 1042 l 347 1215 m 868 1215 l 1042 1215 l 1042 1042 l 868 1042 l 868 1215 m 1042 1215 l 1215 1215 l 1215 1042 l 1042 1042 l 1042 1215 m 174 1042 l 347 1042 l 347 868 l 174 868 l 174 1042 m 347 1042 l 521 1042 l 521 868 l 347 868 l 347 1042 m 868 1042 l 1042 1042 l 1042 868 l 868 868 l 868 1042 m 1042 1042 l 1215 1042 l 1215 868 l 1042 868 l 1042 1042 m 174 868 l 347 868 l 347 694 l 174 694 l 174 868 m 347 868 l 521 868 l 521 694 l 347 694 l 347 868 m 521 868 l 694 868 l 694 694 l 521 694 l 521 868 m 694 868 l 868 868 l 868 694 l 694 694 l 694 868 m 868 868 l 1042 868 l 1042 694 l 868 694 l 868 868 m 174 694 l 347 694 l 347 521 l 174 521 l 174 694 m 347 694 l 521 694 l 521 521 l 347 521 l 347 694 m 174 521 l 347 521 l 347 347 l 174 347 l 174 521 m 347 521 l 521 521 l 521 347 l 347 347 l 347 521 m 0 347 l 174 347 l 174 174 l 0 174 l 0 347 m 174 347 l 347 347 l 347 174 l 174 174 l 174 347 m 347 347 l 521 347 l 521 174 l 347 174 l 347 347 m 521 347 l 694 347 l 694 174 l 521 174 l 521 347 z "},"Q":{"ha":1389,"x_min":-2,"x_max":1217,"o":"m 347 1389 l 521 1389 l 521 1215 l 347 1215 l 347 1389 m 521 1389 l 694 1389 l 694 1215 l 521 1215 l 521 1389 m 694 1389 l 868 1389 l 868 1215 l 694 1215 l 694 1389 m 174 1215 l 347 1215 l 347 1042 l 174 1042 l 174 1215 m 347 1215 l 521 1215 l 521 1042 l 347 1042 l 347 1215 m 694 1215 l 868 1215 l 868 1042 l 694 1042 l 694 1215 m 868 1215 l 1042 1215 l 1042 1042 l 868 1042 l 868 1215 m 0 1042 l 174 1042 l 174 868 l 0 868 l 0 1042 m 174 1042 l 347 1042 l 347 868 l 174 868 l 174 1042 m 868 1042 l 1042 1042 l 1042 868 l 868 868 l 868 1042 m 1042 1042 l 1215 1042 l 1215 868 l 1042 868 l 1042 1042 m 0 868 l 174 868 l 174 694 l 0 694 l 0 868 m 174 868 l 347 868 l 347 694 l 174 694 l 174 868 m 868 868 l 1042 868 l 1042 694 l 868 694 l 868 868 m 1042 868 l 1215 868 l 1215 694 l 1042 694 l 1042 868 m 0 694 l 174 694 l 174 521 l 0 521 l 0 694 m 174 694 l 347 694 l 347 521 l 174 521 l 174 694 m 868 694 l 1042 694 l 1042 521 l 868 521 l 868 694 m 1042 694 l 1215 694 l 1215 521 l 1042 521 l 1042 694 m 174 521 l 347 521 l 347 347 l 174 347 l 174 521 m 347 521 l 521 521 l 521 347 l 347 347 l 347 521 m 694 521 l 868 521 l 868 347 l 694 347 l 694 521 m 868 521 l 1042 521 l 1042 347 l 868 347 l 868 521 m 347 347 l 521 347 l 521 174 l 347 174 l 347 347 m 521 347 l 694 347 l 694 174 l 521 174 l 521 347 m 694 347 l 868 347 l 868 174 l 694 174 l 694 347 m 868 347 l 1042 347 l 1042 174 l 868 174 l 868 347 m 868 174 l 1042 174 l 1042 0 l 868 0 l 868 174 m 1042 174 l 1215 174 l 1215 0 l 1042 0 l 1042 174 z "},"R":{"ha":1389,"x_min":-2,"x_max":1391,"o":"m 0 1389 l 174 1389 l 174 1215 l 0 1215 l 0 1389 m 174 1389 l 347 1389 l 347 1215 l 174 1215 l 174 1389 m 347 1389 l 521 1389 l 521 1215 l 347 1215 l 347 1389 m 521 1389 l 694 1389 l 694 1215 l 521 1215 l 521 1389 m 694 1389 l 868 1389 l 868 1215 l 694 1215 l 694 1389 m 868 1389 l 1042 1389 l 1042 1215 l 868 1215 l 868 1389 m 174 1215 l 347 1215 l 347 1042 l 174 1042 l 174 1215 m 347 1215 l 521 1215 l 521 1042 l 347 1042 l 347 1215 m 868 1215 l 1042 1215 l 1042 1042 l 868 1042 l 868 1215 m 1042 1215 l 1215 1215 l 1215 1042 l 1042 1042 l 1042 1215 m 174 1042 l 347 1042 l 347 868 l 174 868 l 174 1042 m 347 1042 l 521 1042 l 521 868 l 347 868 l 347 1042 m 868 1042 l 1042 1042 l 1042 868 l 868 868 l 868 1042 m 1042 1042 l 1215 1042 l 1215 868 l 1042 868 l 1042 1042 m 174 868 l 347 868 l 347 694 l 174 694 l 174 868 m 347 868 l 521 868 l 521 694 l 347 694 l 347 868 m 521 868 l 694 868 l 694 694 l 521 694 l 521 868 m 694 868 l 868 868 l 868 694 l 694 694 l 694 868 m 868 868 l 1042 868 l 1042 694 l 868 694 l 868 868 m 174 694 l 347 694 l 347 521 l 174 521 l 174 694 m 347 694 l 521 694 l 521 521 l 347 521 l 347 694 m 694 694 l 868 694 l 868 521 l 694 521 l 694 694 m 868 694 l 1042 694 l 1042 521 l 868 521 l 868 694 m 174 521 l 347 521 l 347 347 l 174 347 l 174 521 m 347 521 l 521 521 l 521 347 l 347 347 l 347 521 m 868 521 l 1042 521 l 1042 347 l 868 347 l 868 521 m 1042 521 l 1215 521 l 1215 347 l 1042 347 l 1042 521 m 0 347 l 174 347 l 174 174 l 0 174 l 0 347 m 174 347 l 347 347 l 347 174 l 174 174 l 174 347 m 347 347 l 521 347 l 521 174 l 347 174 l 347 347 m 1042 347 l 1215 347 l 1215 174 l 1042 174 l 1042 347 m 1215 347 l 1389 347 l 1389 174 l 1215 174 l 1215 347 z "},"S":{"ha":1389,"x_min":172,"x_max":1217,"o":"m 347 1389 l 521 1389 l 521 1215 l 347 1215 l 347 1389 m 521 1389 l 694 1389 l 694 1215 l 521 1215 l 521 1389 m 694 1389 l 868 1389 l 868 1215 l 694 1215 l 694 1389 m 868 1389 l 1042 1389 l 1042 1215 l 868 1215 l 868 1389 m 174 1215 l 347 1215 l 347 1042 l 174 1042 l 174 1215 m 347 1215 l 521 1215 l 521 1042 l 347 1042 l 347 1215 m 868 1215 l 1042 1215 l 1042 1042 l 868 1042 l 868 1215 m 1042 1215 l 1215 1215 l 1215 1042 l 1042 1042 l 1042 1215 m 174 1042 l 347 1042 l 347 868 l 174 868 l 174 1042 m 347 1042 l 521 1042 l 521 868 l 347 868 l 347 1042 m 521 1042 l 694 1042 l 694 868 l 521 868 l 521 1042 m 347 868 l 521 868 l 521 694 l 347 694 l 347 868 m 521 868 l 694 868 l 694 694 l 521 694 l 521 868 m 694 868 l 868 868 l 868 694 l 694 694 l 694 868 m 694 694 l 868 694 l 868 521 l 694 521 l 694 694 m 868 694 l 1042 694 l 1042 521 l 868 521 l 868 694 m 1042 694 l 1215 694 l 1215 521 l 1042 521 l 1042 694 m 174 521 l 347 521 l 347 347 l 174 347 l 174 521 m 347 521 l 521 521 l 521 347 l 347 347 l 347 521 m 868 521 l 1042 521 l 1042 347 l 868 347 l 868 521 m 1042 521 l 1215 521 l 1215 347 l 1042 347 l 1042 521 m 347 347 l 521 347 l 521 174 l 347 174 l 347 347 m 521 347 l 694 347 l 694 174 l 521 174 l 521 347 m 694 347 l 868 347 l 868 174 l 694 174 l 694 347 m 868 347 l 1042 347 l 1042 174 l 868 174 l 868 347 z "},"T":{"ha":1389,"x_min":172,"x_max":1217,"o":"m 174 1389 l 347 1389 l 347 1215 l 174 1215 l 174 1389 m 347 1389 l 521 1389 l 521 1215 l 347 1215 l 347 1389 m 521 1389 l 694 1389 l 694 1215 l 521 1215 l 521 1389 m 694 1389 l 868 1389 l 868 1215 l 694 1215 l 694 1389 m 868 1389 l 1042 1389 l 1042 1215 l 868 1215 l 868 1389 m 1042 1389 l 1215 1389 l 1215 1215 l 1042 1215 l 1042 1389 m 174 1215 l 347 1215 l 347 1042 l 174 1042 l 174 1215 m 521 1215 l 694 1215 l 694 1042 l 521 1042 l 521 1215 m 694 1215 l 868 1215 l 868 1042 l 694 1042 l 694 1215 m 1042 1215 l 1215 1215 l 1215 1042 l 1042 1042 l 1042 1215 m 521 1042 l 694 1042 l 694 868 l 521 868 l 521 1042 m 694 1042 l 868 1042 l 868 868 l 694 868 l 694 1042 m 521 868 l 694 868 l 694 694 l 521 694 l 521 868 m 694 868 l 868 868 l 868 694 l 694 694 l 694 868 m 521 694 l 694 694 l 694 521 l 521 521 l 521 694 m 694 694 l 868 694 l 868 521 l 694 521 l 694 694 m 521 521 l 694 521 l 694 347 l 521 347 l 521 521 m 694 521 l 868 521 l 868 347 l 694 347 l 694 521 m 347 347 l 521 347 l 521 174 l 347 174 l 347 347 m 521 347 l 694 347 l 694 174 l 521 174 l 521 347 m 694 347 l 868 347 l 868 174 l 694 174 l 694 347 m 868 347 l 1042 347 l 1042 174 l 868 174 l 868 347 z "},"U":{"ha":1389,"x_min":172,"x_max":1217,"o":"m 174 1389 l 347 1389 l 347 1215 l 174 1215 l 174 1389 m 347 1389 l 521 1389 l 521 1215 l 347 1215 l 347 1389 m 868 1389 l 1042 1389 l 1042 1215 l 868 1215 l 868 1389 m 1042 1389 l 1215 1389 l 1215 1215 l 1042 1215 l 1042 1389 m 174 1215 l 347 1215 l 347 1042 l 174 1042 l 174 1215 m 347 1215 l 521 1215 l 521 1042 l 347 1042 l 347 1215 m 868 1215 l 1042 1215 l 1042 1042 l 868 1042 l 868 1215 m 1042 1215 l 1215 1215 l 1215 1042 l 1042 1042 l 1042 1215 m 174 1042 l 347 1042 l 347 868 l 174 868 l 174 1042 m 347 1042 l 521 1042 l 521 868 l 347 868 l 347 1042 m 868 1042 l 1042 1042 l 1042 868 l 868 868 l 868 1042 m 1042 1042 l 1215 1042 l 1215 868 l 1042 868 l 1042 1042 m 174 868 l 347 868 l 347 694 l 174 694 l 174 868 m 347 868 l 521 868 l 521 694 l 347 694 l 347 868 m 868 868 l 1042 868 l 1042 694 l 868 694 l 868 868 m 1042 868 l 1215 868 l 1215 694 l 1042 694 l 1042 868 m 174 694 l 347 694 l 347 521 l 174 521 l 174 694 m 347 694 l 521 694 l 521 521 l 347 521 l 347 694 m 868 694 l 1042 694 l 1042 521 l 868 521 l 868 694 m 1042 694 l 1215 694 l 1215 521 l 1042 521 l 1042 694 m 174 521 l 347 521 l 347 347 l 174 347 l 174 521 m 347 521 l 521 521 l 521 347 l 347 347 l 347 521 m 868 521 l 1042 521 l 1042 347 l 868 347 l 868 521 m 1042 521 l 1215 521 l 1215 347 l 1042 347 l 1042 521 m 347 347 l 521 347 l 521 174 l 347 174 l 347 347 m 521 347 l 694 347 l 694 174 l 521 174 l 521 347 m 694 347 l 868 347 l 868 174 l 694 174 l 694 347 m 868 347 l 1042 347 l 1042 174 l 868 174 l 868 347 m 1042 347 l 1215 347 l 1215 174 l 1042 174 l 1042 347 z "},"V":{"ha":1389,"x_min":-2,"x_max":1391,"o":"m 0 1389 l 174 1389 l 174 1215 l 0 1215 l 0 1389 m 174 1389 l 347 1389 l 347 1215 l 174 1215 l 174 1389 m 1042 1389 l 1215 1389 l 1215 1215 l 1042 1215 l 1042 1389 m 1215 1389 l 1389 1389 l 1389 1215 l 1215 1215 l 1215 1389 m 0 1215 l 174 1215 l 174 1042 l 0 1042 l 0 1215 m 174 1215 l 347 1215 l 347 1042 l 174 1042 l 174 1215 m 1042 1215 l 1215 1215 l 1215 1042 l 1042 1042 l 1042 1215 m 1215 1215 l 1389 1215 l 1389 1042 l 1215 1042 l 1215 1215 m 174 1042 l 347 1042 l 347 868 l 174 868 l 174 1042 m 347 1042 l 521 1042 l 521 868 l 347 868 l 347 1042 m 868 1042 l 1042 1042 l 1042 868 l 868 868 l 868 1042 m 1042 1042 l 1215 1042 l 1215 868 l 1042 868 l 1042 1042 m 174 868 l 347 868 l 347 694 l 174 694 l 174 868 m 347 868 l 521 868 l 521 694 l 347 694 l 347 868 m 868 868 l 1042 868 l 1042 694 l 868 694 l 868 868 m 1042 868 l 1215 868 l 1215 694 l 1042 694 l 1042 868 m 347 694 l 521 694 l 521 521 l 347 521 l 347 694 m 521 694 l 694 694 l 694 521 l 521 521 l 521 694 m 694 694 l 868 694 l 868 521 l 694 521 l 694 694 m 868 694 l 1042 694 l 1042 521 l 868 521 l 868 694 m 347 521 l 521 521 l 521 347 l 347 347 l 347 521 m 521 521 l 694 521 l 694 347 l 521 347 l 521 521 m 694 521 l 868 521 l 868 347 l 694 347 l 694 521 m 868 521 l 1042 521 l 1042 347 l 868 347 l 868 521 m 521 347 l 694 347 l 694 174 l 521 174 l 521 347 m 694 347 l 868 347 l 868 174 l 694 174 l 694 347 z "},"W":{"ha":1389,"x_min":-2,"x_max":1217,"o":"m 0 1389 l 174 1389 l 174 1215 l 0 1215 l 0 1389 m 174 1389 l 347 1389 l 347 1215 l 174 1215 l 174 1389 m 868 1389 l 1042 1389 l 1042 1215 l 868 1215 l 868 1389 m 1042 1389 l 1215 1389 l 1215 1215 l 1042 1215 l 1042 1389 m 0 1215 l 174 1215 l 174 1042 l 0 1042 l 0 1215 m 174 1215 l 347 1215 l 347 1042 l 174 1042 l 174 1215 m 868 1215 l 1042 1215 l 1042 1042 l 868 1042 l 868 1215 m 1042 1215 l 1215 1215 l 1215 1042 l 1042 1042 l 1042 1215 m 0 1042 l 174 1042 l 174 868 l 0 868 l 0 1042 m 174 1042 l 347 1042 l 347 868 l 174 868 l 174 1042 m 868 1042 l 1042 1042 l 1042 868 l 868 868 l 868 1042 m 1042 1042 l 1215 1042 l 1215 868 l 1042 868 l 1042 1042 m 0 868 l 174 868 l 174 694 l 0 694 l 0 868 m 174 868 l 347 868 l 347 694 l 174 694 l 174 868 m 521 868 l 694 868 l 694 694 l 521 694 l 521 868 m 868 868 l 1042 868 l 1042 694 l 868 694 l 868 868 m 1042 868 l 1215 868 l 1215 694 l 1042 694 l 1042 868 m 0 694 l 174 694 l 174 521 l 0 521 l 0 694 m 174 694 l 347 694 l 347 521 l 174 521 l 174 694 m 347 694 l 521 694 l 521 521 l 347 521 l 347 694 m 521 694 l 694 694 l 694 521 l 521 521 l 521 694 m 694 694 l 868 694 l 868 521 l 694 521 l 694 694 m 868 694 l 1042 694 l 1042 521 l 868 521 l 868 694 m 1042 694 l 1215 694 l 1215 521 l 1042 521 l 1042 694 m 0 521 l 174 521 l 174 347 l 0 347 l 0 521 m 174 521 l 347 521 l 347 347 l 174 347 l 174 521 m 347 521 l 521 521 l 521 347 l 347 347 l 347 521 m 694 521 l 868 521 l 868 347 l 694 347 l 694 521 m 868 521 l 1042 521 l 1042 347 l 868 347 l 868 521 m 1042 521 l 1215 521 l 1215 347 l 1042 347 l 1042 521 m 0 347 l 174 347 l 174 174 l 0 174 l 0 347 m 174 347 l 347 347 l 347 174 l 174 174 l 174 347 m 868 347 l 1042 347 l 1042 174 l 868 174 l 868 347 m 1042 347 l 1215 347 l 1215 174 l 1042 174 l 1042 347 z "},"X":{"ha":1389,"x_min":-2,"x_max":1391,"o":"m 0 1389 l 174 1389 l 174 1215 l 0 1215 l 0 1389 m 174 1389 l 347 1389 l 347 1215 l 174 1215 l 174 1389 m 1042 1389 l 1215 1389 l 1215 1215 l 1042 1215 l 1042 1389 m 1215 1389 l 1389 1389 l 1389 1215 l 1215 1215 l 1215 1389 m 174 1215 l 347 1215 l 347 1042 l 174 1042 l 174 1215 m 347 1215 l 521 1215 l 521 1042 l 347 1042 l 347 1215 m 868 1215 l 1042 1215 l 1042 1042 l 868 1042 l 868 1215 m 1042 1215 l 1215 1215 l 1215 1042 l 1042 1042 l 1042 1215 m 347 1042 l 521 1042 l 521 868 l 347 868 l 347 1042 m 521 1042 l 694 1042 l 694 868 l 521 868 l 521 1042 m 694 1042 l 868 1042 l 868 868 l 694 868 l 694 1042 m 868 1042 l 1042 1042 l 1042 868 l 868 868 l 868 1042 m 521 868 l 694 868 l 694 694 l 521 694 l 521 868 m 694 868 l 868 868 l 868 694 l 694 694 l 694 868 m 347 694 l 521 694 l 521 521 l 347 521 l 347 694 m 521 694 l 694 694 l 694 521 l 521 521 l 521 694 m 694 694 l 868 694 l 868 521 l 694 521 l 694 694 m 868 694 l 1042 694 l 1042 521 l 868 521 l 868 694 m 174 521 l 347 521 l 347 347 l 174 347 l 174 521 m 347 521 l 521 521 l 521 347 l 347 347 l 347 521 m 868 521 l 1042 521 l 1042 347 l 868 347 l 868 521 m 1042 521 l 1215 521 l 1215 347 l 1042 347 l 1042 521 m 0 347 l 174 347 l 174 174 l 0 174 l 0 347 m 174 347 l 347 347 l 347 174 l 174 174 l 174 347 m 1042 347 l 1215 347 l 1215 174 l 1042 174 l 1042 347 m 1215 347 l 1389 347 l 1389 174 l 1215 174 l 1215 347 z "},"Y":{"ha":1389,"x_min":-2,"x_max":1391,"o":"m 0 1389 l 174 1389 l 174 1215 l 0 1215 l 0 1389 m 174 1389 l 347 1389 l 347 1215 l 174 1215 l 174 1389 m 1042 1389 l 1215 1389 l 1215 1215 l 1042 1215 l 1042 1389 m 1215 1389 l 1389 1389 l 1389 1215 l 1215 1215 l 1215 1389 m 0 1215 l 174 1215 l 174 1042 l 0 1042 l 0 1215 m 174 1215 l 347 1215 l 347 1042 l 174 1042 l 174 1215 m 1042 1215 l 1215 1215 l 1215 1042 l 1042 1042 l 1042 1215 m 1215 1215 l 1389 1215 l 1389 1042 l 1215 1042 l 1215 1215 m 174 1042 l 347 1042 l 347 868 l 174 868 l 174 1042 m 347 1042 l 521 1042 l 521 868 l 347 868 l 347 1042 m 868 1042 l 1042 1042 l 1042 868 l 868 868 l 868 1042 m 1042 1042 l 1215 1042 l 1215 868 l 1042 868 l 1042 1042 m 347 868 l 521 868 l 521 694 l 347 694 l 347 868 m 521 868 l 694 868 l 694 694 l 521 694 l 521 868 m 694 868 l 868 868 l 868 694 l 694 694 l 694 868 m 868 868 l 1042 868 l 1042 694 l 868 694 l 868 868 m 521 694 l 694 694 l 694 521 l 521 521 l 521 694 m 694 694 l 868 694 l 868 521 l 694 521 l 694 694 m 521 521 l 694 521 l 694 347 l 521 347 l 521 521 m 694 521 l 868 521 l 868 347 l 694 347 l 694 521 m 347 347 l 521 347 l 521 174 l 347 174 l 347 347 m 521 347 l 694 347 l 694 174 l 521 174 l 521 347 m 694 347 l 868 347 l 868 174 l 694 174 l 694 347 m 868 347 l 1042 347 l 1042 174 l 868 174 l 868 347 z "},"Z":{"ha":1389,"x_min":-2,"x_max":1217,"o":"m 0 1389 l 174 1389 l 174 1215 l 0 1215 l 0 1389 m 174 1389 l 347 1389 l 347 1215 l 174 1215 l 174 1389 m 347 1389 l 521 1389 l 521 1215 l 347 1215 l 347 1389 m 521 1389 l 694 1389 l 694 1215 l 521 1215 l 521 1389 m 694 1389 l 868 1389 l 868 1215 l 694 1215 l 694 1389 m 868 1389 l 1042 1389 l 1042 1215 l 868 1215 l 868 1389 m 1042 1389 l 1215 1389 l 1215 1215 l 1042 1215 l 1042 1389 m 0 1215 l 174 1215 l 174 1042 l 0 1042 l 0 1215 m 174 1215 l 347 1215 l 347 1042 l 174 1042 l 174 1215 m 868 1215 l 1042 1215 l 1042 1042 l 868 1042 l 868 1215 m 1042 1215 l 1215 1215 l 1215 1042 l 1042 1042 l 1042 1215 m 0 1042 l 174 1042 l 174 868 l 0 868 l 0 1042 m 694 1042 l 868 1042 l 868 868 l 694 868 l 694 1042 m 868 1042 l 1042 1042 l 1042 868 l 868 868 l 868 1042 m 521 868 l 694 868 l 694 694 l 521 694 l 521 868 m 694 868 l 868 868 l 868 694 l 694 694 l 694 868 m 347 694 l 521 694 l 521 521 l 347 521 l 347 694 m 521 694 l 694 694 l 694 521 l 521 521 l 521 694 m 1042 694 l 1215 694 l 1215 521 l 1042 521 l 1042 694 m 174 521 l 347 521 l 347 347 l 174 347 l 174 521 m 347 521 l 521 521 l 521 347 l 347 347 l 347 521 m 868 521 l 1042 521 l 1042 347 l 868 347 l 868 521 m 1042 521 l 1215 521 l 1215 347 l 1042 347 l 1042 521 m 0 347 l 174 347 l 174 174 l 0 174 l 0 347 m 174 347 l 347 347 l 347 174 l 174 174 l 174 347 m 347 347 l 521 347 l 521 174 l 347 174 l 347 347 m 521 347 l 694 347 l 694 174 l 521 174 l 521 347 m 694 347 l 868 347 l 868 174 l 694 174 l 694 347 m 868 347 l 1042 347 l 1042 174 l 868 174 l 868 347 m 1042 347 l 1215 347 l 1215 174 l 1042 174 l 1042 347 z "},"[":{"ha":1389,"x_min":345,"x_max":1043,"o":"m 347 1389 l 521 1389 l 521 1215 l 347 1215 l 347 1389 m 521 1389 l 694 1389 l 694 1215 l 521 1215 l 521 1389 m 694 1389 l 868 1389 l 868 1215 l 694 1215 l 694 1389 m 868 1389 l 1042 1389 l 1042 1215 l 868 1215 l 868 1389 m 347 1215 l 521 1215 l 521 1042 l 347 1042 l 347 1215 m 521 1215 l 694 1215 l 694 1042 l 521 1042 l 521 1215 m 347 1042 l 521 1042 l 521 868 l 347 868 l 347 1042 m 521 1042 l 694 1042 l 694 868 l 521 868 l 521 1042 m 347 868 l 521 868 l 521 694 l 347 694 l 347 868 m 521 868 l 694 868 l 694 694 l 521 694 l 521 868 m 347 694 l 521 694 l 521 521 l 347 521 l 347 694 m 521 694 l 694 694 l 694 521 l 521 521 l 521 694 m 347 521 l 521 521 l 521 347 l 347 347 l 347 521 m 521 521 l 694 521 l 694 347 l 521 347 l 521 521 m 347 347 l 521 347 l 521 174 l 347 174 l 347 347 m 521 347 l 694 347 l 694 174 l 521 174 l 521 347 m 694 347 l 868 347 l 868 174 l 694 174 l 694 347 m 868 347 l 1042 347 l 1042 174 l 868 174 l 868 347 z "},"\\":{"ha":1389,"x_min":-2,"x_max":1391,"o":"m 0 1389 l 174 1389 l 174 1215 l 0 1215 l 0 1389 m 174 1389 l 347 1389 l 347 1215 l 174 1215 l 174 1389 m 174 1215 l 347 1215 l 347 1042 l 174 1042 l 174 1215 m 347 1215 l 521 1215 l 521 1042 l 347 1042 l 347 1215 m 347 1042 l 521 1042 l 521 868 l 347 868 l 347 1042 m 521 1042 l 694 1042 l 694 868 l 521 868 l 521 1042 m 521 868 l 694 868 l 694 694 l 521 694 l 521 868 m 694 868 l 868 868 l 868 694 l 694 694 l 694 868 m 694 694 l 868 694 l 868 521 l 694 521 l 694 694 m 868 694 l 1042 694 l 1042 521 l 868 521 l 868 694 m 868 521 l 1042 521 l 1042 347 l 868 347 l 868 521 m 1042 521 l 1215 521 l 1215 347 l 1042 347 l 1042 521 m 1042 347 l 1215 347 l 1215 174 l 1042 174 l 1042 347 m 1215 347 l 1389 347 l 1389 174 l 1215 174 l 1215 347 z "},"]":{"ha":1389,"x_min":345,"x_max":1043,"o":"m 347 1389 l 521 1389 l 521 1215 l 347 1215 l 347 1389 m 521 1389 l 694 1389 l 694 1215 l 521 1215 l 521 1389 m 694 1389 l 868 1389 l 868 1215 l 694 1215 l 694 1389 m 868 1389 l 1042 1389 l 1042 1215 l 868 1215 l 868 1389 m 694 1215 l 868 1215 l 868 1042 l 694 1042 l 694 1215 m 868 1215 l 1042 1215 l 1042 1042 l 868 1042 l 868 1215 m 694 1042 l 868 1042 l 868 868 l 694 868 l 694 1042 m 868 1042 l 1042 1042 l 1042 868 l 868 868 l 868 1042 m 694 868 l 868 868 l 868 694 l 694 694 l 694 868 m 868 868 l 1042 868 l 1042 694 l 868 694 l 868 868 m 694 694 l 868 694 l 868 521 l 694 521 l 694 694 m 868 694 l 1042 694 l 1042 521 l 868 521 l 868 694 m 694 521 l 868 521 l 868 347 l 694 347 l 694 521 m 868 521 l 1042 521 l 1042 347 l 868 347 l 868 521 m 347 347 l 521 347 l 521 174 l 347 174 l 347 347 m 521 347 l 694 347 l 694 174 l 521 174 l 521 347 m 694 347 l 868 347 l 868 174 l 694 174 l 694 347 m 868 347 l 1042 347 l 1042 174 l 868 174 l 868 347 z "},"^":{"ha":1389,"x_min":-2,"x_max":1217,"o":"m 521 1389 l 694 1389 l 694 1215 l 521 1215 l 521 1389 m 347 1215 l 521 1215 l 521 1042 l 347 1042 l 347 1215 m 521 1215 l 694 1215 l 694 1042 l 521 1042 l 521 1215 m 694 1215 l 868 1215 l 868 1042 l 694 1042 l 694 1215 m 174 1042 l 347 1042 l 347 868 l 174 868 l 174 1042 m 347 1042 l 521 1042 l 521 868 l 347 868 l 347 1042 m 694 1042 l 868 1042 l 868 868 l 694 868 l 694 1042 m 868 1042 l 1042 1042 l 1042 868 l 868 868 l 868 1042 m 0 868 l 174 868 l 174 694 l 0 694 l 0 868 m 174 868 l 347 868 l 347 694 l 174 694 l 174 868 m 868 868 l 1042 868 l 1042 694 l 868 694 l 868 868 m 1042 868 l 1215 868 l 1215 694 l 1042 694 l 1042 868 z "},"_":{"ha":1389,"x_min":-2,"x_max":1217,"o":"m 0 174 l 174 174 l 174 0 l 0 0 l 0 174 m 174 174 l 347 174 l 347 0 l 174 0 l 174 174 m 347 174 l 521 174 l 521 0 l 347 0 l 347 174 m 521 174 l 694 174 l 694 0 l 521 0 l 521 174 m 694 174 l 868 174 l 868 0 l 694 0 l 694 174 m 868 174 l 1042 174 l 1042 0 l 868 0 l 868 174 m 1042 174 l 1215 174 l 1215 0 l 1042 0 l 1042 174 z "},"`":{"ha":1389,"x_min":519,"x_max":1043,"o":"m 521 1389 l 694 1389 l 694 1215 l 521 1215 l 521 1389 m 694 1389 l 868 1389 l 868 1215 l 694 1215 l 694 1389 m 521 1215 l 694 1215 l 694 1042 l 521 1042 l 521 1215 m 694 1215 l 868 1215 l 868 1042 l 694 1042 l 694 1215 m 694 1042 l 868 1042 l 868 868 l 694 868 l 694 1042 m 868 1042 l 1042 1042 l 1042 868 l 868 868 l 868 1042 z "},"a":{"ha":1389,"x_min":172,"x_max":1391,"o":"m 347 1042 l 521 1042 l 521 868 l 347 868 l 347 1042 m 521 1042 l 694 1042 l 694 868 l 521 868 l 521 1042 m 694 1042 l 868 1042 l 868 868 l 694 868 l 694 1042 m 868 1042 l 1042 1042 l 1042 868 l 868 868 l 868 1042 m 868 868 l 1042 868 l 1042 694 l 868 694 l 868 868 m 1042 868 l 1215 868 l 1215 694 l 1042 694 l 1042 868 m 521 694 l 694 694 l 694 521 l 521 521 l 521 694 m 694 694 l 868 694 l 868 521 l 694 521 l 694 694 m 868 694 l 1042 694 l 1042 521 l 868 521 l 868 694 m 1042 694 l 1215 694 l 1215 521 l 1042 521 l 1042 694 m 174 521 l 347 521 l 347 347 l 174 347 l 174 521 m 347 521 l 521 521 l 521 347 l 347 347 l 347 521 m 868 521 l 1042 521 l 1042 347 l 868 347 l 868 521 m 1042 521 l 1215 521 l 1215 347 l 1042 347 l 1042 521 m 347 347 l 521 347 l 521 174 l 347 174 l 347 347 m 521 347 l 694 347 l 694 174 l 521 174 l 521 347 m 694 347 l 868 347 l 868 174 l 694 174 l 694 347 m 1042 347 l 1215 347 l 1215 174 l 1042 174 l 1042 347 m 1215 347 l 1389 347 l 1389 174 l 1215 174 l 1215 347 z "},"b":{"ha":1389,"x_min":-2,"x_max":1217,"o":"m 0 1389 l 174 1389 l 174 1215 l 0 1215 l 0 1389 m 174 1389 l 347 1389 l 347 1215 l 174 1215 l 174 1389 m 347 1389 l 521 1389 l 521 1215 l 347 1215 l 347 1389 m 174 1215 l 347 1215 l 347 1042 l 174 1042 l 174 1215 m 347 1215 l 521 1215 l 521 1042 l 347 1042 l 347 1215 m 174 1042 l 347 1042 l 347 868 l 174 868 l 174 1042 m 347 1042 l 521 1042 l 521 868 l 347 868 l 347 1042 m 694 1042 l 868 1042 l 868 868 l 694 868 l 694 1042 m 868 1042 l 1042 1042 l 1042 868 l 868 868 l 868 1042 m 174 868 l 347 868 l 347 694 l 174 694 l 174 868 m 347 868 l 521 868 l 521 694 l 347 694 l 347 868 m 521 868 l 694 868 l 694 694 l 521 694 l 521 868 m 868 868 l 1042 868 l 1042 694 l 868 694 l 868 868 m 1042 868 l 1215 868 l 1215 694 l 1042 694 l 1042 868 m 174 694 l 347 694 l 347 521 l 174 521 l 174 694 m 347 694 l 521 694 l 521 521 l 347 521 l 347 694 m 868 694 l 1042 694 l 1042 521 l 868 521 l 868 694 m 1042 694 l 1215 694 l 1215 521 l 1042 521 l 1042 694 m 174 521 l 347 521 l 347 347 l 174 347 l 174 521 m 347 521 l 521 521 l 521 347 l 347 347 l 347 521 m 868 521 l 1042 521 l 1042 347 l 868 347 l 868 521 m 1042 521 l 1215 521 l 1215 347 l 1042 347 l 1042 521 m 347 347 l 521 347 l 521 174 l 347 174 l 347 347 m 521 347 l 694 347 l 694 174 l 521 174 l 521 347 m 694 347 l 868 347 l 868 174 l 694 174 l 694 347 m 868 347 l 1042 347 l 1042 174 l 868 174 l 868 347 z "},"c":{"ha":1389,"x_min":172,"x_max":1217,"o":"m 347 1042 l 521 1042 l 521 868 l 347 868 l 347 1042 m 521 1042 l 694 1042 l 694 868 l 521 868 l 521 1042 m 694 1042 l 868 1042 l 868 868 l 694 868 l 694 1042 m 868 1042 l 1042 1042 l 1042 868 l 868 868 l 868 1042 m 174 868 l 347 868 l 347 694 l 174 694 l 174 868 m 347 868 l 521 868 l 521 694 l 347 694 l 347 868 m 868 868 l 1042 868 l 1042 694 l 868 694 l 868 868 m 1042 868 l 1215 868 l 1215 694 l 1042 694 l 1042 868 m 174 694 l 347 694 l 347 521 l 174 521 l 174 694 m 347 694 l 521 694 l 521 521 l 347 521 l 347 694 m 174 521 l 347 521 l 347 347 l 174 347 l 174 521 m 347 521 l 521 521 l 521 347 l 347 347 l 347 521 m 868 521 l 1042 521 l 1042 347 l 868 347 l 868 521 m 1042 521 l 1215 521 l 1215 347 l 1042 347 l 1042 521 m 347 347 l 521 347 l 521 174 l 347 174 l 347 347 m 521 347 l 694 347 l 694 174 l 521 174 l 521 347 m 694 347 l 868 347 l 868 174 l 694 174 l 694 347 m 868 347 l 1042 347 l 1042 174 l 868 174 l 868 347 z "},"d":{"ha":1389,"x_min":172,"x_max":1391,"o":"m 694 1389 l 868 1389 l 868 1215 l 694 1215 l 694 1389 m 868 1389 l 1042 1389 l 1042 1215 l 868 1215 l 868 1389 m 1042 1389 l 1215 1389 l 1215 1215 l 1042 1215 l 1042 1389 m 868 1215 l 1042 1215 l 1042 1042 l 868 1042 l 868 1215 m 1042 1215 l 1215 1215 l 1215 1042 l 1042 1042 l 1042 1215 m 347 1042 l 521 1042 l 521 868 l 347 868 l 347 1042 m 521 1042 l 694 1042 l 694 868 l 521 868 l 521 1042 m 868 1042 l 1042 1042 l 1042 868 l 868 868 l 868 1042 m 1042 1042 l 1215 1042 l 1215 868 l 1042 868 l 1042 1042 m 174 868 l 347 868 l 347 694 l 174 694 l 174 868 m 347 868 l 521 868 l 521 694 l 347 694 l 347 868 m 694 868 l 868 868 l 868 694 l 694 694 l 694 868 m 868 868 l 1042 868 l 1042 694 l 868 694 l 868 868 m 1042 868 l 1215 868 l 1215 694 l 1042 694 l 1042 868 m 174 694 l 347 694 l 347 521 l 174 521 l 174 694 m 347 694 l 521 694 l 521 521 l 347 521 l 347 694 m 868 694 l 1042 694 l 1042 521 l 868 521 l 868 694 m 1042 694 l 1215 694 l 1215 521 l 1042 521 l 1042 694 m 174 521 l 347 521 l 347 347 l 174 347 l 174 521 m 347 521 l 521 521 l 521 347 l 347 347 l 347 521 m 868 521 l 1042 521 l 1042 347 l 868 347 l 868 521 m 1042 521 l 1215 521 l 1215 347 l 1042 347 l 1042 521 m 347 347 l 521 347 l 521 174 l 347 174 l 347 347 m 521 347 l 694 347 l 694 174 l 521 174 l 521 347 m 694 347 l 868 347 l 868 174 l 694 174 l 694 347 m 1042 347 l 1215 347 l 1215 174 l 1042 174 l 1042 347 m 1215 347 l 1389 347 l 1389 174 l 1215 174 l 1215 347 z "},"e":{"ha":1389,"x_min":172,"x_max":1217,"o":"m 347 1042 l 521 1042 l 521 868 l 347 868 l 347 1042 m 521 1042 l 694 1042 l 694 868 l 521 868 l 521 1042 m 694 1042 l 868 1042 l 868 868 l 694 868 l 694 1042 m 868 1042 l 1042 1042 l 1042 868 l 868 868 l 868 1042 m 174 868 l 347 868 l 347 694 l 174 694 l 174 868 m 347 868 l 521 868 l 521 694 l 347 694 l 347 868 m 868 868 l 1042 868 l 1042 694 l 868 694 l 868 868 m 1042 868 l 1215 868 l 1215 694 l 1042 694 l 1042 868 m 174 694 l 347 694 l 347 521 l 174 521 l 174 694 m 347 694 l 521 694 l 521 521 l 347 521 l 347 694 m 521 694 l 694 694 l 694 521 l 521 521 l 521 694 m 694 694 l 868 694 l 868 521 l 694 521 l 694 694 m 868 694 l 1042 694 l 1042 521 l 868 521 l 868 694 m 1042 694 l 1215 694 l 1215 521 l 1042 521 l 1042 694 m 174 521 l 347 521 l 347 347 l 174 347 l 174 521 m 347 521 l 521 521 l 521 347 l 347 347 l 347 521 m 347 347 l 521 347 l 521 174 l 347 174 l 347 347 m 521 347 l 694 347 l 694 174 l 521 174 l 521 347 m 694 347 l 868 347 l 868 174 l 694 174 l 694 347 m 868 347 l 1042 347 l 1042 174 l 868 174 l 868 347 z "},"f":{"ha":1389,"x_min":172,"x_max":1217,"o":"m 521 1389 l 694 1389 l 694 1215 l 521 1215 l 521 1389 m 694 1389 l 868 1389 l 868 1215 l 694 1215 l 694 1389 m 868 1389 l 1042 1389 l 1042 1215 l 868 1215 l 868 1389 m 347 1215 l 521 1215 l 521 1042 l 347 1042 l 347 1215 m 521 1215 l 694 1215 l 694 1042 l 521 1042 l 521 1215 m 868 1215 l 1042 1215 l 1042 1042 l 868 1042 l 868 1215 m 1042 1215 l 1215 1215 l 1215 1042 l 1042 1042 l 1042 1215 m 347 1042 l 521 1042 l 521 868 l 347 868 l 347 1042 m 521 1042 l 694 1042 l 694 868 l 521 868 l 521 1042 m 174 868 l 347 868 l 347 694 l 174 694 l 174 868 m 347 868 l 521 868 l 521 694 l 347 694 l 347 868 m 521 868 l 694 868 l 694 694 l 521 694 l 521 868 m 694 868 l 868 868 l 868 694 l 694 694 l 694 868 m 347 694 l 521 694 l 521 521 l 347 521 l 347 694 m 521 694 l 694 694 l 694 521 l 521 521 l 521 694 m 347 521 l 521 521 l 521 347 l 347 347 l 347 521 m 521 521 l 694 521 l 694 347 l 521 347 l 521 521 m 174 347 l 347 347 l 347 174 l 174 174 l 174 347 m 347 347 l 521 347 l 521 174 l 347 174 l 347 347 m 521 347 l 694 347 l 694 174 l 521 174 l 521 347 m 694 347 l 868 347 l 868 174 l 694 174 l 694 347 z "},"g":{"ha":1389,"x_min":-2,"x_max":1391,"o":"m 347 1042 l 521 1042 l 521 868 l 347 868 l 347 1042 m 521 1042 l 694 1042 l 694 868 l 521 868 l 521 1042 m 694 1042 l 868 1042 l 868 868 l 694 868 l 694 1042 m 1042 1042 l 1215 1042 l 1215 868 l 1042 868 l 1042 1042 m 1215 1042 l 1389 1042 l 1389 868 l 1215 868 l 1215 1042 m 174 868 l 347 868 l 347 694 l 174 694 l 174 868 m 347 868 l 521 868 l 521 694 l 347 694 l 347 868 m 868 868 l 1042 868 l 1042 694 l 868 694 l 868 868 m 1042 868 l 1215 868 l 1215 694 l 1042 694 l 1042 868 m 174 694 l 347 694 l 347 521 l 174 521 l 174 694 m 347 694 l 521 694 l 521 521 l 347 521 l 347 694 m 868 694 l 1042 694 l 1042 521 l 868 521 l 868 694 m 1042 694 l 1215 694 l 1215 521 l 1042 521 l 1042 694 m 347 521 l 521 521 l 521 347 l 347 347 l 347 521 m 521 521 l 694 521 l 694 347 l 521 347 l 521 521 m 694 521 l 868 521 l 868 347 l 694 347 l 694 521 m 868 521 l 1042 521 l 1042 347 l 868 347 l 868 521 m 0 347 l 174 347 l 174 174 l 0 174 l 0 347 m 174 347 l 347 347 l 347 174 l 174 174 l 174 347 m 868 347 l 1042 347 l 1042 174 l 868 174 l 868 347 m 1042 347 l 1215 347 l 1215 174 l 1042 174 l 1042 347 m 174 174 l 347 174 l 347 0 l 174 0 l 174 174 m 347 174 l 521 174 l 521 0 l 347 0 l 347 174 m 521 174 l 694 174 l 694 0 l 521 0 l 521 174 m 694 174 l 868 174 l 868 0 l 694 0 l 694 174 m 868 174 l 1042 174 l 1042 0 l 868 0 l 868 174 z "},"h":{"ha":1389,"x_min":-2,"x_max":1217,"o":"m 0 1389 l 174 1389 l 174 1215 l 0 1215 l 0 1389 m 174 1389 l 347 1389 l 347 1215 l 174 1215 l 174 1389 m 347 1389 l 521 1389 l 521 1215 l 347 1215 l 347 1389 m 174 1215 l 347 1215 l 347 1042 l 174 1042 l 174 1215 m 347 1215 l 521 1215 l 521 1042 l 347 1042 l 347 1215 m 174 1042 l 347 1042 l 347 868 l 174 868 l 174 1042 m 347 1042 l 521 1042 l 521 868 l 347 868 l 347 1042 m 694 1042 l 868 1042 l 868 868 l 694 868 l 694 1042 m 868 1042 l 1042 1042 l 1042 868 l 868 868 l 868 1042 m 174 868 l 347 868 l 347 694 l 174 694 l 174 868 m 347 868 l 521 868 l 521 694 l 347 694 l 347 868 m 521 868 l 694 868 l 694 694 l 521 694 l 521 868 m 868 868 l 1042 868 l 1042 694 l 868 694 l 868 868 m 1042 868 l 1215 868 l 1215 694 l 1042 694 l 1042 868 m 174 694 l 347 694 l 347 521 l 174 521 l 174 694 m 347 694 l 521 694 l 521 521 l 347 521 l 347 694 m 868 694 l 1042 694 l 1042 521 l 868 521 l 868 694 m 1042 694 l 1215 694 l 1215 521 l 1042 521 l 1042 694 m 174 521 l 347 521 l 347 347 l 174 347 l 174 521 m 347 521 l 521 521 l 521 347 l 347 347 l 347 521 m 868 521 l 1042 521 l 1042 347 l 868 347 l 868 521 m 1042 521 l 1215 521 l 1215 347 l 1042 347 l 1042 521 m 0 347 l 174 347 l 174 174 l 0 174 l 0 347 m 174 347 l 347 347 l 347 174 l 174 174 l 174 347 m 347 347 l 521 347 l 521 174 l 347 174 l 347 347 m 868 347 l 1042 347 l 1042 174 l 868 174 l 868 347 m 1042 347 l 1215 347 l 1215 174 l 1042 174 l 1042 347 z "},"i":{"ha":1389,"x_min":345,"x_max":1043,"o":"m 521 1389 l 694 1389 l 694 1215 l 521 1215 l 521 1389 m 694 1389 l 868 1389 l 868 1215 l 694 1215 l 694 1389 m 347 1042 l 521 1042 l 521 868 l 347 868 l 347 1042 m 521 1042 l 694 1042 l 694 868 l 521 868 l 521 1042 m 694 1042 l 868 1042 l 868 868 l 694 868 l 694 1042 m 521 868 l 694 868 l 694 694 l 521 694 l 521 868 m 694 868 l 868 868 l 868 694 l 694 694 l 694 868 m 521 694 l 694 694 l 694 521 l 521 521 l 521 694 m 694 694 l 868 694 l 868 521 l 694 521 l 694 694 m 521 521 l 694 521 l 694 347 l 521 347 l 521 521 m 694 521 l 868 521 l 868 347 l 694 347 l 694 521 m 347 347 l 521 347 l 521 174 l 347 174 l 347 347 m 521 347 l 694 347 l 694 174 l 521 174 l 521 347 m 694 347 l 868 347 l 868 174 l 694 174 l 694 347 m 868 347 l 1042 347 l 1042 174 l 868 174 l 868 347 z "},"j":{"ha":1389,"x_min":172,"x_max":1217,"o":"m 868 1389 l 1042 1389 l 1042 1215 l 868 1215 l 868 1389 m 1042 1389 l 1215 1389 l 1215 1215 l 1042 1215 l 1042 1389 m 868 1042 l 1042 1042 l 1042 868 l 868 868 l 868 1042 m 1042 1042 l 1215 1042 l 1215 868 l 1042 868 l 1042 1042 m 868 868 l 1042 868 l 1042 694 l 868 694 l 868 868 m 1042 868 l 1215 868 l 1215 694 l 1042 694 l 1042 868 m 868 694 l 1042 694 l 1042 521 l 868 521 l 868 694 m 1042 694 l 1215 694 l 1215 521 l 1042 521 l 1042 694 m 868 521 l 1042 521 l 1042 347 l 868 347 l 868 521 m 1042 521 l 1215 521 l 1215 347 l 1042 347 l 1042 521 m 174 347 l 347 347 l 347 174 l 174 174 l 174 347 m 347 347 l 521 347 l 521 174 l 347 174 l 347 347 m 868 347 l 1042 347 l 1042 174 l 868 174 l 868 347 m 1042 347 l 1215 347 l 1215 174 l 1042 174 l 1042 347 m 347 174 l 521 174 l 521 0 l 347 0 l 347 174 m 521 174 l 694 174 l 694 0 l 521 0 l 521 174 m 694 174 l 868 174 l 868 0 l 694 0 l 694 174 m 868 174 l 1042 174 l 1042 0 l 868 0 l 868 174 z "},"k":{"ha":1389,"x_min":-2,"x_max":1217,"o":"m 0 1389 l 174 1389 l 174 1215 l 0 1215 l 0 1389 m 174 1389 l 347 1389 l 347 1215 l 174 1215 l 174 1389 m 347 1389 l 521 1389 l 521 1215 l 347 1215 l 347 1389 m 174 1215 l 347 1215 l 347 1042 l 174 1042 l 174 1215 m 347 1215 l 521 1215 l 521 1042 l 347 1042 l 347 1215 m 174 1042 l 347 1042 l 347 868 l 174 868 l 174 1042 m 347 1042 l 521 1042 l 521 868 l 347 868 l 347 1042 m 868 1042 l 1042 1042 l 1042 868 l 868 868 l 868 1042 m 1042 1042 l 1215 1042 l 1215 868 l 1042 868 l 1042 1042 m 174 868 l 347 868 l 347 694 l 174 694 l 174 868 m 347 868 l 521 868 l 521 694 l 347 694 l 347 868 m 694 868 l 868 868 l 868 694 l 694 694 l 694 868 m 868 868 l 1042 868 l 1042 694 l 868 694 l 868 868 m 174 694 l 347 694 l 347 521 l 174 521 l 174 694 m 347 694 l 521 694 l 521 521 l 347 521 l 347 694 m 521 694 l 694 694 l 694 521 l 521 521 l 521 694 m 694 694 l 868 694 l 868 521 l 694 521 l 694 694 m 174 521 l 347 521 l 347 347 l 174 347 l 174 521 m 347 521 l 521 521 l 521 347 l 347 347 l 347 521 m 694 521 l 868 521 l 868 347 l 694 347 l 694 521 m 868 521 l 1042 521 l 1042 347 l 868 347 l 868 521 m 0 347 l 174 347 l 174 174 l 0 174 l 0 347 m 174 347 l 347 347 l 347 174 l 174 174 l 174 347 m 347 347 l 521 347 l 521 174 l 347 174 l 347 347 m 868 347 l 1042 347 l 1042 174 l 868 174 l 868 347 m 1042 347 l 1215 347 l 1215 174 l 1042 174 l 1042 347 z "},"l":{"ha":1389,"x_min":345,"x_max":1043,"o":"m 347 1389 l 521 1389 l 521 1215 l 347 1215 l 347 1389 m 521 1389 l 694 1389 l 694 1215 l 521 1215 l 521 1389 m 694 1389 l 868 1389 l 868 1215 l 694 1215 l 694 1389 m 521 1215 l 694 1215 l 694 1042 l 521 1042 l 521 1215 m 694 1215 l 868 1215 l 868 1042 l 694 1042 l 694 1215 m 521 1042 l 694 1042 l 694 868 l 521 868 l 521 1042 m 694 1042 l 868 1042 l 868 868 l 694 868 l 694 1042 m 521 868 l 694 868 l 694 694 l 521 694 l 521 868 m 694 868 l 868 868 l 868 694 l 694 694 l 694 868 m 521 694 l 694 694 l 694 521 l 521 521 l 521 694 m 694 694 l 868 694 l 868 521 l 694 521 l 694 694 m 521 521 l 694 521 l 694 347 l 521 347 l 521 521 m 694 521 l 868 521 l 868 347 l 694 347 l 694 521 m 347 347 l 521 347 l 521 174 l 347 174 l 347 347 m 521 347 l 694 347 l 694 174 l 521 174 l 521 347 m 694 347 l 868 347 l 868 174 l 694 174 l 694 347 m 868 347 l 1042 347 l 1042 174 l 868 174 l 868 347 z "},"m":{"ha":1389,"x_min":172,"x_max":1391,"o":"m 174 1042 l 347 1042 l 347 868 l 174 868 l 174 1042 m 347 1042 l 521 1042 l 521 868 l 347 868 l 347 1042 m 868 1042 l 1042 1042 l 1042 868 l 868 868 l 868 1042 m 1042 1042 l 1215 1042 l 1215 868 l 1042 868 l 1042 1042 m 174 868 l 347 868 l 347 694 l 174 694 l 174 868 m 347 868 l 521 868 l 521 694 l 347 694 l 347 868 m 521 868 l 694 868 l 694 694 l 521 694 l 521 868 m 868 868 l 1042 868 l 1042 694 l 868 694 l 868 868 m 1042 868 l 1215 868 l 1215 694 l 1042 694 l 1042 868 m 1215 868 l 1389 868 l 1389 694 l 1215 694 l 1215 868 m 174 694 l 347 694 l 347 521 l 174 521 l 174 694 m 347 694 l 521 694 l 521 521 l 347 521 l 347 694 m 694 694 l 868 694 l 868 521 l 694 521 l 694 694 m 1042 694 l 1215 694 l 1215 521 l 1042 521 l 1042 694 m 1215 694 l 1389 694 l 1389 521 l 1215 521 l 1215 694 m 174 521 l 347 521 l 347 347 l 174 347 l 174 521 m 347 521 l 521 521 l 521 347 l 347 347 l 347 521 m 1042 521 l 1215 521 l 1215 347 l 1042 347 l 1042 521 m 1215 521 l 1389 521 l 1389 347 l 1215 347 l 1215 521 m 174 347 l 347 347 l 347 174 l 174 174 l 174 347 m 347 347 l 521 347 l 521 174 l 347 174 l 347 347 m 1042 347 l 1215 347 l 1215 174 l 1042 174 l 1042 347 m 1215 347 l 1389 347 l 1389 174 l 1215 174 l 1215 347 z "},"n":{"ha":1389,"x_min":172,"x_max":1217,"o":"m 174 1042 l 347 1042 l 347 868 l 174 868 l 174 1042 m 347 1042 l 521 1042 l 521 868 l 347 868 l 347 1042 m 521 1042 l 694 1042 l 694 868 l 521 868 l 521 1042 m 694 1042 l 868 1042 l 868 868 l 694 868 l 694 1042 m 868 1042 l 1042 1042 l 1042 868 l 868 868 l 868 1042 m 174 868 l 347 868 l 347 694 l 174 694 l 174 868 m 347 868 l 521 868 l 521 694 l 347 694 l 347 868 m 868 868 l 1042 868 l 1042 694 l 868 694 l 868 868 m 1042 868 l 1215 868 l 1215 694 l 1042 694 l 1042 868 m 174 694 l 347 694 l 347 521 l 174 521 l 174 694 m 347 694 l 521 694 l 521 521 l 347 521 l 347 694 m 868 694 l 1042 694 l 1042 521 l 868 521 l 868 694 m 1042 694 l 1215 694 l 1215 521 l 1042 521 l 1042 694 m 174 521 l 347 521 l 347 347 l 174 347 l 174 521 m 347 521 l 521 521 l 521 347 l 347 347 l 347 521 m 868 521 l 1042 521 l 1042 347 l 868 347 l 868 521 m 1042 521 l 1215 521 l 1215 347 l 1042 347 l 1042 521 m 174 347 l 347 347 l 347 174 l 174 174 l 174 347 m 347 347 l 521 347 l 521 174 l 347 174 l 347 347 m 868 347 l 1042 347 l 1042 174 l 868 174 l 868 347 m 1042 347 l 1215 347 l 1215 174 l 1042 174 l 1042 347 z "},"o":{"ha":1389,"x_min":172,"x_max":1217,"o":"m 347 1042 l 521 1042 l 521 868 l 347 868 l 347 1042 m 521 1042 l 694 1042 l 694 868 l 521 868 l 521 1042 m 694 1042 l 868 1042 l 868 868 l 694 868 l 694 1042 m 868 1042 l 1042 1042 l 1042 868 l 868 868 l 868 1042 m 174 868 l 347 868 l 347 694 l 174 694 l 174 868 m 347 868 l 521 868 l 521 694 l 347 694 l 347 868 m 868 868 l 1042 868 l 1042 694 l 868 694 l 868 868 m 1042 868 l 1215 868 l 1215 694 l 1042 694 l 1042 868 m 174 694 l 347 694 l 347 521 l 174 521 l 174 694 m 347 694 l 521 694 l 521 521 l 347 521 l 347 694 m 868 694 l 1042 694 l 1042 521 l 868 521 l 868 694 m 1042 694 l 1215 694 l 1215 521 l 1042 521 l 1042 694 m 174 521 l 347 521 l 347 347 l 174 347 l 174 521 m 347 521 l 521 521 l 521 347 l 347 347 l 347 521 m 868 521 l 1042 521 l 1042 347 l 868 347 l 868 521 m 1042 521 l 1215 521 l 1215 347 l 1042 347 l 1042 521 m 347 347 l 521 347 l 521 174 l 347 174 l 347 347 m 521 347 l 694 347 l 694 174 l 521 174 l 521 347 m 694 347 l 868 347 l 868 174 l 694 174 l 694 347 m 868 347 l 1042 347 l 1042 174 l 868 174 l 868 347 z "},"p":{"ha":1389,"x_min":-2,"x_max":1217,"o":"m 0 1042 l 174 1042 l 174 868 l 0 868 l 0 1042 m 174 1042 l 347 1042 l 347 868 l 174 868 l 174 1042 m 521 1042 l 694 1042 l 694 868 l 521 868 l 521 1042 m 694 1042 l 868 1042 l 868 868 l 694 868 l 694 1042 m 868 1042 l 1042 1042 l 1042 868 l 868 868 l 868 1042 m 174 868 l 347 868 l 347 694 l 174 694 l 174 868 m 347 868 l 521 868 l 521 694 l 347 694 l 347 868 m 868 868 l 1042 868 l 1042 694 l 868 694 l 868 868 m 1042 868 l 1215 868 l 1215 694 l 1042 694 l 1042 868 m 174 694 l 347 694 l 347 521 l 174 521 l 174 694 m 347 694 l 521 694 l 521 521 l 347 521 l 347 694 m 868 694 l 1042 694 l 1042 521 l 868 521 l 868 694 m 1042 694 l 1215 694 l 1215 521 l 1042 521 l 1042 694 m 174 521 l 347 521 l 347 347 l 174 347 l 174 521 m 347 521 l 521 521 l 521 347 l 347 347 l 347 521 m 521 521 l 694 521 l 694 347 l 521 347 l 521 521 m 694 521 l 868 521 l 868 347 l 694 347 l 694 521 m 868 521 l 1042 521 l 1042 347 l 868 347 l 868 521 m 174 347 l 347 347 l 347 174 l 174 174 l 174 347 m 347 347 l 521 347 l 521 174 l 347 174 l 347 347 m 0 174 l 174 174 l 174 0 l 0 0 l 0 174 m 174 174 l 347 174 l 347 0 l 174 0 l 174 174 m 347 174 l 521 174 l 521 0 l 347 0 l 347 174 m 521 174 l 694 174 l 694 0 l 521 0 l 521 174 z "},"q":{"ha":1389,"x_min":172,"x_max":1391,"o":"m 347 1042 l 521 1042 l 521 868 l 347 868 l 347 1042 m 521 1042 l 694 1042 l 694 868 l 521 868 l 521 1042 m 694 1042 l 868 1042 l 868 868 l 694 868 l 694 1042 m 868 1042 l 1042 1042 l 1042 868 l 868 868 l 868 1042 m 1215 1042 l 1389 1042 l 1389 868 l 1215 868 l 1215 1042 m 174 868 l 347 868 l 347 694 l 174 694 l 174 868 m 347 868 l 521 868 l 521 694 l 347 694 l 347 868 m 868 868 l 1042 868 l 1042 694 l 868 694 l 868 868 m 1042 868 l 1215 868 l 1215 694 l 1042 694 l 1042 868 m 174 694 l 347 694 l 347 521 l 174 521 l 174 694 m 347 694 l 521 694 l 521 521 l 347 521 l 347 694 m 868 694 l 1042 694 l 1042 521 l 868 521 l 868 694 m 1042 694 l 1215 694 l 1215 521 l 1042 521 l 1042 694 m 347 521 l 521 521 l 521 347 l 347 347 l 347 521 m 521 521 l 694 521 l 694 347 l 521 347 l 521 521 m 694 521 l 868 521 l 868 347 l 694 347 l 694 521 m 868 521 l 1042 521 l 1042 347 l 868 347 l 868 521 m 1042 521 l 1215 521 l 1215 347 l 1042 347 l 1042 521 m 868 347 l 1042 347 l 1042 174 l 868 174 l 868 347 m 1042 347 l 1215 347 l 1215 174 l 1042 174 l 1042 347 m 868 174 l 1042 174 l 1042 0 l 868 0 l 868 174 m 1042 174 l 1215 174 l 1215 0 l 1042 0 l 1042 174 m 1215 174 l 1389 174 l 1389 0 l 1215 0 l 1215 174 z "},"r":{"ha":1389,"x_min":-2,"x_max":1217,"o":"m 0 1042 l 174 1042 l 174 868 l 0 868 l 0 1042 m 174 1042 l 347 1042 l 347 868 l 174 868 l 174 1042 m 347 1042 l 521 1042 l 521 868 l 347 868 l 347 1042 m 694 1042 l 868 1042 l 868 868 l 694 868 l 694 1042 m 868 1042 l 1042 1042 l 1042 868 l 868 868 l 868 1042 m 174 868 l 347 868 l 347 694 l 174 694 l 174 868 m 347 868 l 521 868 l 521 694 l 347 694 l 347 868 m 521 868 l 694 868 l 694 694 l 521 694 l 521 868 m 868 868 l 1042 868 l 1042 694 l 868 694 l 868 868 m 1042 868 l 1215 868 l 1215 694 l 1042 694 l 1042 868 m 174 694 l 347 694 l 347 521 l 174 521 l 174 694 m 347 694 l 521 694 l 521 521 l 347 521 l 347 694 m 868 694 l 1042 694 l 1042 521 l 868 521 l 868 694 m 1042 694 l 1215 694 l 1215 521 l 1042 521 l 1042 694 m 174 521 l 347 521 l 347 347 l 174 347 l 174 521 m 347 521 l 521 521 l 521 347 l 347 347 l 347 521 m 0 347 l 174 347 l 174 174 l 0 174 l 0 347 m 174 347 l 347 347 l 347 174 l 174 174 l 174 347 m 347 347 l 521 347 l 521 174 l 347 174 l 347 347 m 521 347 l 694 347 l 694 174 l 521 174 l 521 347 z "},"s":{"ha":1389,"x_min":172,"x_max":1217,"o":"m 347 1042 l 521 1042 l 521 868 l 347 868 l 347 1042 m 521 1042 l 694 1042 l 694 868 l 521 868 l 521 1042 m 694 1042 l 868 1042 l 868 868 l 694 868 l 694 1042 m 868 1042 l 1042 1042 l 1042 868 l 868 868 l 868 1042 m 1042 1042 l 1215 1042 l 1215 868 l 1042 868 l 1042 1042 m 174 868 l 347 868 l 347 694 l 174 694 l 174 868 m 347 868 l 521 868 l 521 694 l 347 694 l 347 868 m 347 694 l 521 694 l 521 521 l 347 521 l 347 694 m 521 694 l 694 694 l 694 521 l 521 521 l 521 694 m 694 694 l 868 694 l 868 521 l 694 521 l 694 694 m 868 694 l 1042 694 l 1042 521 l 868 521 l 868 694 m 868 521 l 1042 521 l 1042 347 l 868 347 l 868 521 m 1042 521 l 1215 521 l 1215 347 l 1042 347 l 1042 521 m 174 347 l 347 347 l 347 174 l 174 174 l 174 347 m 347 347 l 521 347 l 521 174 l 347 174 l 347 347 m 521 347 l 694 347 l 694 174 l 521 174 l 521 347 m 694 347 l 868 347 l 868 174 l 694 174 l 694 347 m 868 347 l 1042 347 l 1042 174 l 868 174 l 868 347 z "},"t":{"ha":1389,"x_min":345,"x_max":1217,"o":"m 694 1389 l 868 1389 l 868 1215 l 694 1215 l 694 1389 m 521 1215 l 694 1215 l 694 1042 l 521 1042 l 521 1215 m 694 1215 l 868 1215 l 868 1042 l 694 1042 l 694 1215 m 347 1042 l 521 1042 l 521 868 l 347 868 l 347 1042 m 521 1042 l 694 1042 l 694 868 l 521 868 l 521 1042 m 694 1042 l 868 1042 l 868 868 l 694 868 l 694 1042 m 868 1042 l 1042 1042 l 1042 868 l 868 868 l 868 1042 m 1042 1042 l 1215 1042 l 1215 868 l 1042 868 l 1042 1042 m 521 868 l 694 868 l 694 694 l 521 694 l 521 868 m 694 868 l 868 868 l 868 694 l 694 694 l 694 868 m 521 694 l 694 694 l 694 521 l 521 521 l 521 694 m 694 694 l 868 694 l 868 521 l 694 521 l 694 694 m 521 521 l 694 521 l 694 347 l 521 347 l 521 521 m 694 521 l 868 521 l 868 347 l 694 347 l 694 521 m 1042 521 l 1215 521 l 1215 347 l 1042 347 l 1042 521 m 694 347 l 868 347 l 868 174 l 694 174 l 694 347 m 868 347 l 1042 347 l 1042 174 l 868 174 l 868 347 z "},"u":{"ha":1389,"x_min":172,"x_max":1391,"o":"m 174 1042 l 347 1042 l 347 868 l 174 868 l 174 1042 m 347 1042 l 521 1042 l 521 868 l 347 868 l 347 1042 m 868 1042 l 1042 1042 l 1042 868 l 868 868 l 868 1042 m 1042 1042 l 1215 1042 l 1215 868 l 1042 868 l 1042 1042 m 174 868 l 347 868 l 347 694 l 174 694 l 174 868 m 347 868 l 521 868 l 521 694 l 347 694 l 347 868 m 868 868 l 1042 868 l 1042 694 l 868 694 l 868 868 m 1042 868 l 1215 868 l 1215 694 l 1042 694 l 1042 868 m 174 694 l 347 694 l 347 521 l 174 521 l 174 694 m 347 694 l 521 694 l 521 521 l 347 521 l 347 694 m 868 694 l 1042 694 l 1042 521 l 868 521 l 868 694 m 1042 694 l 1215 694 l 1215 521 l 1042 521 l 1042 694 m 174 521 l 347 521 l 347 347 l 174 347 l 174 521 m 347 521 l 521 521 l 521 347 l 347 347 l 347 521 m 868 521 l 1042 521 l 1042 347 l 868 347 l 868 521 m 1042 521 l 1215 521 l 1215 347 l 1042 347 l 1042 521 m 347 347 l 521 347 l 521 174 l 347 174 l 347 347 m 521 347 l 694 347 l 694 174 l 521 174 l 521 347 m 694 347 l 868 347 l 868 174 l 694 174 l 694 347 m 1042 347 l 1215 347 l 1215 174 l 1042 174 l 1042 347 m 1215 347 l 1389 347 l 1389 174 l 1215 174 l 1215 347 z "},"v":{"ha":1389,"x_min":172,"x_max":1217,"o":"m 174 1042 l 347 1042 l 347 868 l 174 868 l 174 1042 m 347 1042 l 521 1042 l 521 868 l 347 868 l 347 1042 m 868 1042 l 1042 1042 l 1042 868 l 868 868 l 868 1042 m 1042 1042 l 1215 1042 l 1215 868 l 1042 868 l 1042 1042 m 174 868 l 347 868 l 347 694 l 174 694 l 174 868 m 347 868 l 521 868 l 521 694 l 347 694 l 347 868 m 868 868 l 1042 868 l 1042 694 l 868 694 l 868 868 m 1042 868 l 1215 868 l 1215 694 l 1042 694 l 1042 868 m 174 694 l 347 694 l 347 521 l 174 521 l 174 694 m 347 694 l 521 694 l 521 521 l 347 521 l 347 694 m 868 694 l 1042 694 l 1042 521 l 868 521 l 868 694 m 1042 694 l 1215 694 l 1215 521 l 1042 521 l 1042 694 m 347 521 l 521 521 l 521 347 l 347 347 l 347 521 m 521 521 l 694 521 l 694 347 l 521 347 l 521 521 m 694 521 l 868 521 l 868 347 l 694 347 l 694 521 m 868 521 l 1042 521 l 1042 347 l 868 347 l 868 521 m 521 347 l 694 347 l 694 174 l 521 174 l 521 347 m 694 347 l 868 347 l 868 174 l 694 174 l 694 347 z "},"w":{"ha":1389,"x_min":172,"x_max":1391,"o":"m 174 1042 l 347 1042 l 347 868 l 174 868 l 174 1042 m 347 1042 l 521 1042 l 521 868 l 347 868 l 347 1042 m 1042 1042 l 1215 1042 l 1215 868 l 1042 868 l 1042 1042 m 1215 1042 l 1389 1042 l 1389 868 l 1215 868 l 1215 1042 m 174 868 l 347 868 l 347 694 l 174 694 l 174 868 m 347 868 l 521 868 l 521 694 l 347 694 l 347 868 m 694 868 l 868 868 l 868 694 l 694 694 l 694 868 m 1042 868 l 1215 868 l 1215 694 l 1042 694 l 1042 868 m 1215 868 l 1389 868 l 1389 694 l 1215 694 l 1215 868 m 174 694 l 347 694 l 347 521 l 174 521 l 174 694 m 347 694 l 521 694 l 521 521 l 347 521 l 347 694 m 694 694 l 868 694 l 868 521 l 694 521 l 694 694 m 1042 694 l 1215 694 l 1215 521 l 1042 521 l 1042 694 m 1215 694 l 1389 694 l 1389 521 l 1215 521 l 1215 694 m 347 521 l 521 521 l 521 347 l 347 347 l 347 521 m 521 521 l 694 521 l 694 347 l 521 347 l 521 521 m 868 521 l 1042 521 l 1042 347 l 868 347 l 868 521 m 1042 521 l 1215 521 l 1215 347 l 1042 347 l 1042 521 m 347 347 l 521 347 l 521 174 l 347 174 l 347 347 m 521 347 l 694 347 l 694 174 l 521 174 l 521 347 m 868 347 l 1042 347 l 1042 174 l 868 174 l 868 347 m 1042 347 l 1215 347 l 1215 174 l 1042 174 l 1042 347 z "},"x":{"ha":1389,"x_min":172,"x_max":1391,"o":"m 174 1042 l 347 1042 l 347 868 l 174 868 l 174 1042 m 347 1042 l 521 1042 l 521 868 l 347 868 l 347 1042 m 1042 1042 l 1215 1042 l 1215 868 l 1042 868 l 1042 1042 m 1215 1042 l 1389 1042 l 1389 868 l 1215 868 l 1215 1042 m 347 868 l 521 868 l 521 694 l 347 694 l 347 868 m 521 868 l 694 868 l 694 694 l 521 694 l 521 868 m 868 868 l 1042 868 l 1042 694 l 868 694 l 868 868 m 1042 868 l 1215 868 l 1215 694 l 1042 694 l 1042 868 m 521 694 l 694 694 l 694 521 l 521 521 l 521 694 m 694 694 l 868 694 l 868 521 l 694 521 l 694 694 m 868 694 l 1042 694 l 1042 521 l 868 521 l 868 694 m 347 521 l 521 521 l 521 347 l 347 347 l 347 521 m 521 521 l 694 521 l 694 347 l 521 347 l 521 521 m 868 521 l 1042 521 l 1042 347 l 868 347 l 868 521 m 1042 521 l 1215 521 l 1215 347 l 1042 347 l 1042 521 m 174 347 l 347 347 l 347 174 l 174 174 l 174 347 m 347 347 l 521 347 l 521 174 l 347 174 l 347 347 m 1042 347 l 1215 347 l 1215 174 l 1042 174 l 1042 347 m 1215 347 l 1389 347 l 1389 174 l 1215 174 l 1215 347 z "},"y":{"ha":1389,"x_min":172,"x_max":1217,"o":"m 174 1042 l 347 1042 l 347 868 l 174 868 l 174 1042 m 347 1042 l 521 1042 l 521 868 l 347 868 l 347 1042 m 868 1042 l 1042 1042 l 1042 868 l 868 868 l 868 1042 m 1042 1042 l 1215 1042 l 1215 868 l 1042 868 l 1042 1042 m 174 868 l 347 868 l 347 694 l 174 694 l 174 868 m 347 868 l 521 868 l 521 694 l 347 694 l 347 868 m 868 868 l 1042 868 l 1042 694 l 868 694 l 868 868 m 1042 868 l 1215 868 l 1215 694 l 1042 694 l 1042 868 m 174 694 l 347 694 l 347 521 l 174 521 l 174 694 m 347 694 l 521 694 l 521 521 l 347 521 l 347 694 m 868 694 l 1042 694 l 1042 521 l 868 521 l 868 694 m 1042 694 l 1215 694 l 1215 521 l 1042 521 l 1042 694 m 347 521 l 521 521 l 521 347 l 347 347 l 347 521 m 521 521 l 694 521 l 694 347 l 521 347 l 521 521 m 694 521 l 868 521 l 868 347 l 694 347 l 694 521 m 868 521 l 1042 521 l 1042 347 l 868 347 l 868 521 m 521 347 l 694 347 l 694 174 l 521 174 l 521 347 m 694 347 l 868 347 l 868 174 l 694 174 l 694 347 m 174 174 l 347 174 l 347 0 l 174 0 l 174 174 m 347 174 l 521 174 l 521 0 l 347 0 l 347 174 m 521 174 l 694 174 l 694 0 l 521 0 l 521 174 z "},"z":{"ha":1389,"x_min":172,"x_max":1217,"o":"m 174 1042 l 347 1042 l 347 868 l 174 868 l 174 1042 m 347 1042 l 521 1042 l 521 868 l 347 868 l 347 1042 m 521 1042 l 694 1042 l 694 868 l 521 868 l 521 1042 m 694 1042 l 868 1042 l 868 868 l 694 868 l 694 1042 m 868 1042 l 1042 1042 l 1042 868 l 868 868 l 868 1042 m 1042 1042 l 1215 1042 l 1215 868 l 1042 868 l 1042 1042 m 174 868 l 347 868 l 347 694 l 174 694 l 174 868 m 694 868 l 868 868 l 868 694 l 694 694 l 694 868 m 868 868 l 1042 868 l 1042 694 l 868 694 l 868 868 m 521 694 l 694 694 l 694 521 l 521 521 l 521 694 m 694 694 l 868 694 l 868 521 l 694 521 l 694 694 m 347 521 l 521 521 l 521 347 l 347 347 l 347 521 m 521 521 l 694 521 l 694 347 l 521 347 l 521 521 m 1042 521 l 1215 521 l 1215 347 l 1042 347 l 1042 521 m 174 347 l 347 347 l 347 174 l 174 174 l 174 347 m 347 347 l 521 347 l 521 174 l 347 174 l 347 347 m 521 347 l 694 347 l 694 174 l 521 174 l 521 347 m 694 347 l 868 347 l 868 174 l 694 174 l 694 347 m 868 347 l 1042 347 l 1042 174 l 868 174 l 868 347 m 1042 347 l 1215 347 l 1215 174 l 1042 174 l 1042 347 z "},"{":{"ha":1389,"x_min":172,"x_max":1217,"o":"m 694 1389 l 868 1389 l 868 1215 l 694 1215 l 694 1389 m 868 1389 l 1042 1389 l 1042 1215 l 868 1215 l 868 1389 m 1042 1389 l 1215 1389 l 1215 1215 l 1042 1215 l 1042 1389 m 521 1215 l 694 1215 l 694 1042 l 521 1042 l 521 1215 m 694 1215 l 868 1215 l 868 1042 l 694 1042 l 694 1215 m 521 1042 l 694 1042 l 694 868 l 521 868 l 521 1042 m 694 1042 l 868 1042 l 868 868 l 694 868 l 694 1042 m 174 868 l 347 868 l 347 694 l 174 694 l 174 868 m 347 868 l 521 868 l 521 694 l 347 694 l 347 868 m 521 868 l 694 868 l 694 694 l 521 694 l 521 868 m 521 694 l 694 694 l 694 521 l 521 521 l 521 694 m 694 694 l 868 694 l 868 521 l 694 521 l 694 694 m 521 521 l 694 521 l 694 347 l 521 347 l 521 521 m 694 521 l 868 521 l 868 347 l 694 347 l 694 521 m 694 347 l 868 347 l 868 174 l 694 174 l 694 347 m 868 347 l 1042 347 l 1042 174 l 868 174 l 868 347 m 1042 347 l 1215 347 l 1215 174 l 1042 174 l 1042 347 z "},"|":{"ha":1389,"x_min":519,"x_max":870,"o":"m 521 1389 l 694 1389 l 694 1215 l 521 1215 l 521 1389 m 694 1389 l 868 1389 l 868 1215 l 694 1215 l 694 1389 m 521 1215 l 694 1215 l 694 1042 l 521 1042 l 521 1215 m 694 1215 l 868 1215 l 868 1042 l 694 1042 l 694 1215 m 521 1042 l 694 1042 l 694 868 l 521 868 l 521 1042 m 694 1042 l 868 1042 l 868 868 l 694 868 l 694 1042 m 521 868 l 694 868 l 694 694 l 521 694 l 521 868 m 694 868 l 868 868 l 868 694 l 694 694 l 694 868 m 521 694 l 694 694 l 694 521 l 521 521 l 521 694 m 694 694 l 868 694 l 868 521 l 694 521 l 694 694 m 521 521 l 694 521 l 694 347 l 521 347 l 521 521 m 694 521 l 868 521 l 868 347 l 694 347 l 694 521 m 521 347 l 694 347 l 694 174 l 521 174 l 521 347 m 694 347 l 868 347 l 868 174 l 694 174 l 694 347 z "},"}":{"ha":1389,"x_min":172,"x_max":1217,"o":"m 174 1389 l 347 1389 l 347 1215 l 174 1215 l 174 1389 m 347 1389 l 521 1389 l 521 1215 l 347 1215 l 347 1389 m 521 1389 l 694 1389 l 694 1215 l 521 1215 l 521 1389 m 521 1215 l 694 1215 l 694 1042 l 521 1042 l 521 1215 m 694 1215 l 868 1215 l 868 1042 l 694 1042 l 694 1215 m 521 1042 l 694 1042 l 694 868 l 521 868 l 521 1042 m 694 1042 l 868 1042 l 868 868 l 694 868 l 694 1042 m 694 868 l 868 868 l 868 694 l 694 694 l 694 868 m 868 868 l 1042 868 l 1042 694 l 868 694 l 868 868 m 1042 868 l 1215 868 l 1215 694 l 1042 694 l 1042 868 m 521 694 l 694 694 l 694 521 l 521 521 l 521 694 m 694 694 l 868 694 l 868 521 l 694 521 l 694 694 m 521 521 l 694 521 l 694 347 l 521 347 l 521 521 m 694 521 l 868 521 l 868 347 l 694 347 l 694 521 m 174 347 l 347 347 l 347 174 l 174 174 l 174 347 m 347 347 l 521 347 l 521 174 l 347 174 l 347 347 m 521 347 l 694 347 l 694 174 l 521 174 l 521 347 z "},"~":{"ha":1389,"x_min":-2,"x_max":1217,"o":"m 174 1389 l 347 1389 l 347 1215 l 174 1215 l 174 1389 m 347 1389 l 521 1389 l 521 1215 l 347 1215 l 347 1389 m 521 1389 l 694 1389 l 694 1215 l 521 1215 l 521 1389 m 1042 1389 l 1215 1389 l 1215 1215 l 1042 1215 l 1042 1389 m 0 1215 l 174 1215 l 174 1042 l 0 1042 l 0 1215 m 521 1215 l 694 1215 l 694 1042 l 521 1042 l 521 1215 m 694 1215 l 868 1215 l 868 1042 l 694 1042 l 694 1215 m 868 1215 l 1042 1215 l 1042 1042 l 868 1042 l 868 1215 z "},"":{"ha":1389,"x_min":-2,"x_max":1391,"o":"m 0 1389 l 174 1389 l 174 1215 l 0 1215 l 0 1389 m 174 1389 l 347 1389 l 347 1215 l 174 1215 l 174 1389 m 694 1389 l 868 1389 l 868 1215 l 694 1215 l 694 1389 m 868 1389 l 1042 1389 l 1042 1215 l 868 1215 l 868 1389 m 347 1215 l 521 1215 l 521 1042 l 347 1042 l 347 1215 m 521 1215 l 694 1215 l 694 1042 l 521 1042 l 521 1215 m 1042 1215 l 1215 1215 l 1215 1042 l 1042 1042 l 1042 1215 m 1215 1215 l 1389 1215 l 1389 1042 l 1215 1042 l 1215 1215 m 0 1042 l 174 1042 l 174 868 l 0 868 l 0 1042 m 174 1042 l 347 1042 l 347 868 l 174 868 l 174 1042 m 694 1042 l 868 1042 l 868 868 l 694 868 l 694 1042 m 868 1042 l 1042 1042 l 1042 868 l 868 868 l 868 1042 m 347 868 l 521 868 l 521 694 l 347 694 l 347 868 m 521 868 l 694 868 l 694 694 l 521 694 l 521 868 m 1042 868 l 1215 868 l 1215 694 l 1042 694 l 1042 868 m 1215 868 l 1389 868 l 1389 694 l 1215 694 l 1215 868 m 0 694 l 174 694 l 174 521 l 0 521 l 0 694 m 174 694 l 347 694 l 347 521 l 174 521 l 174 694 m 694 694 l 868 694 l 868 521 l 694 521 l 694 694 m 868 694 l 1042 694 l 1042 521 l 868 521 l 868 694 m 347 521 l 521 521 l 521 347 l 347 347 l 347 521 m 521 521 l 694 521 l 694 347 l 521 347 l 521 521 m 1042 521 l 1215 521 l 1215 347 l 1042 347 l 1042 521 m 1215 521 l 1389 521 l 1389 347 l 1215 347 l 1215 521 m 0 347 l 174 347 l 174 174 l 0 174 l 0 347 m 174 347 l 347 347 l 347 174 l 174 174 l 174 347 m 694 347 l 868 347 l 868 174 l 694 174 l 694 347 m 868 347 l 1042 347 l 1042 174 l 868 174 l 868 347 m 347 174 l 521 174 l 521 0 l 347 0 l 347 174 m 521 174 l 694 174 l 694 0 l 521 0 l 521 174 m 1042 174 l 1215 174 l 1215 0 l 1042 0 l 1042 174 m 1215 174 l 1389 174 l 1389 0 l 1215 0 l 1215 174 z "},"":{"ha":1389,"x_min":-2,"x_max":1391,"o":"m 0 1389 l 174 1389 l 174 1215 l 0 1215 l 0 1389 m 174 1389 l 347 1389 l 347 1215 l 174 1215 l 174 1389 m 347 1389 l 521 1389 l 521 1215 l 347 1215 l 347 1389 m 521 1389 l 694 1389 l 694 1215 l 521 1215 l 521 1389 m 694 1389 l 868 1389 l 868 1215 l 694 1215 l 694 1389 m 868 1389 l 1042 1389 l 1042 1215 l 868 1215 l 868 1389 m 1042 1389 l 1215 1389 l 1215 1215 l 1042 1215 l 1042 1389 m 1215 1389 l 1389 1389 l 1389 1215 l 1215 1215 l 1215 1389 m 0 1215 l 174 1215 l 174 1042 l 0 1042 l 0 1215 m 174 1215 l 347 1215 l 347 1042 l 174 1042 l 174 1215 m 0 1042 l 174 1042 l 174 868 l 0 868 l 0 1042 m 174 1042 l 347 1042 l 347 868 l 174 868 l 174 1042 m 0 868 l 174 868 l 174 694 l 0 694 l 0 868 m 174 868 l 347 868 l 347 694 l 174 694 l 174 868 m 0 694 l 174 694 l 174 521 l 0 521 l 0 694 m 174 694 l 347 694 l 347 521 l 174 521 l 174 694 m 0 521 l 174 521 l 174 347 l 0 347 l 0 521 m 174 521 l 347 521 l 347 347 l 174 347 l 174 521 m 0 347 l 174 347 l 174 174 l 0 174 l 0 347 m 174 347 l 347 347 l 347 174 l 174 174 l 174 347 m 0 174 l 174 174 l 174 0 l 0 0 l 0 174 m 174 174 l 347 174 l 347 0 l 174 0 l 174 174 z "},"":{"ha":1389,"x_min":-2,"x_max":1391,"o":"m 0 1389 l 174 1389 l 174 1215 l 0 1215 l 0 1389 m 174 1389 l 347 1389 l 347 1215 l 174 1215 l 174 1389 m 347 1389 l 521 1389 l 521 1215 l 347 1215 l 347 1389 m 521 1389 l 694 1389 l 694 1215 l 521 1215 l 521 1389 m 694 1389 l 868 1389 l 868 1215 l 694 1215 l 694 1389 m 868 1389 l 1042 1389 l 1042 1215 l 868 1215 l 868 1389 m 1042 1389 l 1215 1389 l 1215 1215 l 1042 1215 l 1042 1389 m 1215 1389 l 1389 1389 l 1389 1215 l 1215 1215 l 1215 1389 z "},"":{"ha":1389,"x_min":-2,"x_max":1391,"o":"m 0 1389 l 174 1389 l 174 1215 l 0 1215 l 0 1389 m 174 1389 l 347 1389 l 347 1215 l 174 1215 l 174 1389 m 347 1389 l 521 1389 l 521 1215 l 347 1215 l 347 1389 m 521 1389 l 694 1389 l 694 1215 l 521 1215 l 521 1389 m 694 1389 l 868 1389 l 868 1215 l 694 1215 l 694 1389 m 868 1389 l 1042 1389 l 1042 1215 l 868 1215 l 868 1389 m 1042 1389 l 1215 1389 l 1215 1215 l 1042 1215 l 1042 1389 m 1215 1389 l 1389 1389 l 1389 1215 l 1215 1215 l 1215 1389 m 1042 1215 l 1215 1215 l 1215 1042 l 1042 1042 l 1042 1215 m 1215 1215 l 1389 1215 l 1389 1042 l 1215 1042 l 1215 1215 m 1042 1042 l 1215 1042 l 1215 868 l 1042 868 l 1042 1042 m 1215 1042 l 1389 1042 l 1389 868 l 1215 868 l 1215 1042 m 1042 868 l 1215 868 l 1215 694 l 1042 694 l 1042 868 m 1215 868 l 1389 868 l 1389 694 l 1215 694 l 1215 868 m 1042 694 l 1215 694 l 1215 521 l 1042 521 l 1042 694 m 1215 694 l 1389 694 l 1389 521 l 1215 521 l 1215 694 m 1042 521 l 1215 521 l 1215 347 l 1042 347 l 1042 521 m 1215 521 l 1389 521 l 1389 347 l 1215 347 l 1215 521 m 1042 347 l 1215 347 l 1215 174 l 1042 174 l 1042 347 m 1215 347 l 1389 347 l 1389 174 l 1215 174 l 1215 347 m 1042 174 l 1215 174 l 1215 0 l 1042 0 l 1042 174 m 1215 174 l 1389 174 l 1389 0 l 1215 0 l 1215 174 z "},"":{"ha":1389,"x_min":-2,"x_max":349,"o":"m 0 1389 l 174 1389 l 174 1215 l 0 1215 l 0 1389 m 174 1389 l 347 1389 l 347 1215 l 174 1215 l 174 1389 m 0 1215 l 174 1215 l 174 1042 l 0 1042 l 0 1215 m 174 1215 l 347 1215 l 347 1042 l 174 1042 l 174 1215 m 0 1042 l 174 1042 l 174 868 l 0 868 l 0 1042 m 174 1042 l 347 1042 l 347 868 l 174 868 l 174 1042 m 0 868 l 174 868 l 174 694 l 0 694 l 0 868 m 174 868 l 347 868 l 347 694 l 174 694 l 174 868 m 0 694 l 174 694 l 174 521 l 0 521 l 0 694 m 174 694 l 347 694 l 347 521 l 174 521 l 174 694 m 0 521 l 174 521 l 174 347 l 0 347 l 0 521 m 174 521 l 347 521 l 347 347 l 174 347 l 174 521 m 0 347 l 174 347 l 174 174 l 0 174 l 0 347 m 174 347 l 347 347 l 347 174 l 174 174 l 174 347 m 0 174 l 174 174 l 174 0 l 0 0 l 0 174 m 174 174 l 347 174 l 347 0 l 174 0 l 174 174 z "},"":{"ha":1389,"x_min":1040,"x_max":1391,"o":"m 1042 1389 l 1215 1389 l 1215 1215 l 1042 1215 l 1042 1389 m 1215 1389 l 1389 1389 l 1389 1215 l 1215 1215 l 1215 1389 m 1042 1215 l 1215 1215 l 1215 1042 l 1042 1042 l 1042 1215 m 1215 1215 l 1389 1215 l 1389 1042 l 1215 1042 l 1215 1215 m 1042 1042 l 1215 1042 l 1215 868 l 1042 868 l 1042 1042 m 1215 1042 l 1389 1042 l 1389 868 l 1215 868 l 1215 1042 m 1042 868 l 1215 868 l 1215 694 l 1042 694 l 1042 868 m 1215 868 l 1389 868 l 1389 694 l 1215 694 l 1215 868 m 1042 694 l 1215 694 l 1215 521 l 1042 521 l 1042 694 m 1215 694 l 1389 694 l 1389 521 l 1215 521 l 1215 694 m 1042 521 l 1215 521 l 1215 347 l 1042 347 l 1042 521 m 1215 521 l 1389 521 l 1389 347 l 1215 347 l 1215 521 m 1042 347 l 1215 347 l 1215 174 l 1042 174 l 1042 347 m 1215 347 l 1389 347 l 1389 174 l 1215 174 l 1215 347 m 1042 174 l 1215 174 l 1215 0 l 1042 0 l 1042 174 m 1215 174 l 1389 174 l 1389 0 l 1215 0 l 1215 174 z "},"":{"ha":1389,"x_min":-2,"x_max":1391,"o":"m 0 1389 l 174 1389 l 174 1215 l 0 1215 l 0 1389 m 174 1389 l 347 1389 l 347 1215 l 174 1215 l 174 1389 m 0 1215 l 174 1215 l 174 1042 l 0 1042 l 0 1215 m 174 1215 l 347 1215 l 347 1042 l 174 1042 l 174 1215 m 0 1042 l 174 1042 l 174 868 l 0 868 l 0 1042 m 174 1042 l 347 1042 l 347 868 l 174 868 l 174 1042 m 0 868 l 174 868 l 174 694 l 0 694 l 0 868 m 174 868 l 347 868 l 347 694 l 174 694 l 174 868 m 0 694 l 174 694 l 174 521 l 0 521 l 0 694 m 174 694 l 347 694 l 347 521 l 174 521 l 174 694 m 0 521 l 174 521 l 174 347 l 0 347 l 0 521 m 174 521 l 347 521 l 347 347 l 174 347 l 174 521 m 0 347 l 174 347 l 174 174 l 0 174 l 0 347 m 174 347 l 347 347 l 347 174 l 174 174 l 174 347 m 0 174 l 174 174 l 174 0 l 0 0 l 0 174 m 174 174 l 347 174 l 347 0 l 174 0 l 174 174 m 347 174 l 521 174 l 521 0 l 347 0 l 347 174 m 521 174 l 694 174 l 694 0 l 521 0 l 521 174 m 694 174 l 868 174 l 868 0 l 694 0 l 694 174 m 868 174 l 1042 174 l 1042 0 l 868 0 l 868 174 m 1042 174 l 1215 174 l 1215 0 l 1042 0 l 1042 174 m 1215 174 l 1389 174 l 1389 0 l 1215 0 l 1215 174 z "},"":{"ha":1389,"x_min":-2,"x_max":1391,"o":"m 0 174 l 174 174 l 174 0 l 0 0 l 0 174 m 174 174 l 347 174 l 347 0 l 174 0 l 174 174 m 347 174 l 521 174 l 521 0 l 347 0 l 347 174 m 521 174 l 694 174 l 694 0 l 521 0 l 521 174 m 694 174 l 868 174 l 868 0 l 694 0 l 694 174 m 868 174 l 1042 174 l 1042 0 l 868 0 l 868 174 m 1042 174 l 1215 174 l 1215 0 l 1042 0 l 1042 174 m 1215 174 l 1389 174 l 1389 0 l 1215 0 l 1215 174 z "},"":{"ha":1389,"x_min":-2,"x_max":1391,"o":"m 1042 1389 l 1215 1389 l 1215 1215 l 1042 1215 l 1042 1389 m 1215 1389 l 1389 1389 l 1389 1215 l 1215 1215 l 1215 1389 m 1042 1215 l 1215 1215 l 1215 1042 l 1042 1042 l 1042 1215 m 1215 1215 l 1389 1215 l 1389 1042 l 1215 1042 l 1215 1215 m 1042 1042 l 1215 1042 l 1215 868 l 1042 868 l 1042 1042 m 1215 1042 l 1389 1042 l 1389 868 l 1215 868 l 1215 1042 m 1042 868 l 1215 868 l 1215 694 l 1042 694 l 1042 868 m 1215 868 l 1389 868 l 1389 694 l 1215 694 l 1215 868 m 1042 694 l 1215 694 l 1215 521 l 1042 521 l 1042 694 m 1215 694 l 1389 694 l 1389 521 l 1215 521 l 1215 694 m 1042 521 l 1215 521 l 1215 347 l 1042 347 l 1042 521 m 1215 521 l 1389 521 l 1389 347 l 1215 347 l 1215 521 m 1042 347 l 1215 347 l 1215 174 l 1042 174 l 1042 347 m 1215 347 l 1389 347 l 1389 174 l 1215 174 l 1215 347 m 0 174 l 174 174 l 174 0 l 0 0 l 0 174 m 174 174 l 347 174 l 347 0 l 174 0 l 174 174 m 347 174 l 521 174 l 521 0 l 347 0 l 347 174 m 521 174 l 694 174 l 694 0 l 521 0 l 521 174 m 694 174 l 868 174 l 868 0 l 694 0 l 694 174 m 868 174 l 1042 174 l 1042 0 l 868 0 l 868 174 m 1042 174 l 1215 174 l 1215 0 l 1042 0 l 1042 174 m 1215 174 l 1389 174 l 1389 0 l 1215 0 l 1215 174 z "},"":{"ha":1389,"x_min":519,"x_max":1391,"o":"m 694 868 l 868 868 l 868 694 l 694 694 l 694 868 m 868 868 l 1042 868 l 1042 694 l 868 694 l 868 868 m 1042 868 l 1215 868 l 1215 694 l 1042 694 l 1042 868 m 1215 868 l 1389 868 l 1389 694 l 1215 694 l 1215 868 m 521 694 l 694 694 l 694 521 l 521 521 l 521 694 m 694 694 l 868 694 l 868 521 l 694 521 l 694 694 m 521 521 l 694 521 l 694 347 l 521 347 l 521 521 m 694 521 l 868 521 l 868 347 l 694 347 l 694 521 m 521 347 l 694 347 l 694 174 l 521 174 l 521 347 m 694 347 l 868 347 l 868 174 l 694 174 l 694 347 m 521 174 l 694 174 l 694 0 l 521 0 l 521 174 m 694 174 l 868 174 l 868 0 l 694 0 l 694 174 z "},"":{"ha":1389,"x_min":-2,"x_max":1391,"o":"m 0 868 l 174 868 l 174 694 l 0 694 l 0 868 m 174 868 l 347 868 l 347 694 l 174 694 l 174 868 m 347 868 l 521 868 l 521 694 l 347 694 l 347 868 m 521 868 l 694 868 l 694 694 l 521 694 l 521 868 m 694 868 l 868 868 l 868 694 l 694 694 l 694 868 m 868 868 l 1042 868 l 1042 694 l 868 694 l 868 868 m 1042 868 l 1215 868 l 1215 694 l 1042 694 l 1042 868 m 1215 868 l 1389 868 l 1389 694 l 1215 694 l 1215 868 z "},"":{"ha":1389,"x_min":-2,"x_max":870,"o":"m 0 868 l 174 868 l 174 694 l 0 694 l 0 868 m 174 868 l 347 868 l 347 694 l 174 694 l 174 868 m 347 868 l 521 868 l 521 694 l 347 694 l 347 868 m 521 868 l 694 868 l 694 694 l 521 694 l 521 868 m 521 694 l 694 694 l 694 521 l 521 521 l 521 694 m 694 694 l 868 694 l 868 521 l 694 521 l 694 694 m 521 521 l 694 521 l 694 347 l 521 347 l 521 521 m 694 521 l 868 521 l 868 347 l 694 347 l 694 521 m 521 347 l 694 347 l 694 174 l 521 174 l 521 347 m 694 347 l 868 347 l 868 174 l 694 174 l 694 347 m 521 174 l 694 174 l 694 0 l 521 0 l 521 174 m 694 174 l 868 174 l 868 0 l 694 0 l 694 174 z "},"":{"ha":1389,"x_min":519,"x_max":870,"o":"m 521 1389 l 694 1389 l 694 1215 l 521 1215 l 521 1389 m 694 1389 l 868 1389 l 868 1215 l 694 1215 l 694 1389 m 521 1215 l 694 1215 l 694 1042 l 521 1042 l 521 1215 m 694 1215 l 868 1215 l 868 1042 l 694 1042 l 694 1215 m 521 1042 l 694 1042 l 694 868 l 521 868 l 521 1042 m 694 1042 l 868 1042 l 868 868 l 694 868 l 694 1042 m 521 868 l 694 868 l 694 694 l 521 694 l 521 868 m 694 868 l 868 868 l 868 694 l 694 694 l 694 868 m 521 694 l 694 694 l 694 521 l 521 521 l 521 694 m 694 694 l 868 694 l 868 521 l 694 521 l 694 694 m 521 521 l 694 521 l 694 347 l 521 347 l 521 521 m 694 521 l 868 521 l 868 347 l 694 347 l 694 521 m 521 347 l 694 347 l 694 174 l 521 174 l 521 347 m 694 347 l 868 347 l 868 174 l 694 174 l 694 347 m 521 174 l 694 174 l 694 0 l 521 0 l 521 174 m 694 174 l 868 174 l 868 0 l 694 0 l 694 174 z "},"":{"ha":1389,"x_min":519,"x_max":1391,"o":"m 521 1389 l 694 1389 l 694 1215 l 521 1215 l 521 1389 m 694 1389 l 868 1389 l 868 1215 l 694 1215 l 694 1389 m 521 1215 l 694 1215 l 694 1042 l 521 1042 l 521 1215 m 694 1215 l 868 1215 l 868 1042 l 694 1042 l 694 1215 m 521 1042 l 694 1042 l 694 868 l 521 868 l 521 1042 m 694 1042 l 868 1042 l 868 868 l 694 868 l 694 1042 m 694 868 l 868 868 l 868 694 l 694 694 l 694 868 m 868 868 l 1042 868 l 1042 694 l 868 694 l 868 868 m 1042 868 l 1215 868 l 1215 694 l 1042 694 l 1042 868 m 1215 868 l 1389 868 l 1389 694 l 1215 694 l 1215 868 z "},"":{"ha":1389,"x_min":-2,"x_max":870,"o":"m 521 1389 l 694 1389 l 694 1215 l 521 1215 l 521 1389 m 694 1389 l 868 1389 l 868 1215 l 694 1215 l 694 1389 m 521 1215 l 694 1215 l 694 1042 l 521 1042 l 521 1215 m 694 1215 l 868 1215 l 868 1042 l 694 1042 l 694 1215 m 521 1042 l 694 1042 l 694 868 l 521 868 l 521 1042 m 694 1042 l 868 1042 l 868 868 l 694 868 l 694 1042 m 0 868 l 174 868 l 174 694 l 0 694 l 0 868 m 174 868 l 347 868 l 347 694 l 174 694 l 174 868 m 347 868 l 521 868 l 521 694 l 347 694 l 347 868 m 521 868 l 694 868 l 694 694 l 521 694 l 521 868 z "},"":{"ha":1389,"x_min":-2,"x_max":1391,"o":"m 0 868 l 174 868 l 174 694 l 0 694 l 0 868 m 174 868 l 347 868 l 347 694 l 174 694 l 174 868 m 347 868 l 521 868 l 521 694 l 347 694 l 347 868 m 521 868 l 694 868 l 694 694 l 521 694 l 521 868 m 694 868 l 868 868 l 868 694 l 694 694 l 694 868 m 868 868 l 1042 868 l 1042 694 l 868 694 l 868 868 m 1042 868 l 1215 868 l 1215 694 l 1042 694 l 1042 868 m 1215 868 l 1389 868 l 1389 694 l 1215 694 l 1215 868 m 521 694 l 694 694 l 694 521 l 521 521 l 521 694 m 694 694 l 868 694 l 868 521 l 694 521 l 694 694 m 521 521 l 694 521 l 694 347 l 521 347 l 521 521 m 694 521 l 868 521 l 868 347 l 694 347 l 694 521 m 521 347 l 694 347 l 694 174 l 521 174 l 521 347 m 694 347 l 868 347 l 868 174 l 694 174 l 694 347 m 521 174 l 694 174 l 694 0 l 521 0 l 521 174 m 694 174 l 868 174 l 868 0 l 694 0 l 694 174 z "},"":{"ha":1389,"x_min":-2,"x_max":1391,"o":"m 521 1389 l 694 1389 l 694 1215 l 521 1215 l 521 1389 m 694 1389 l 868 1389 l 868 1215 l 694 1215 l 694 1389 m 521 1215 l 694 1215 l 694 1042 l 521 1042 l 521 1215 m 694 1215 l 868 1215 l 868 1042 l 694 1042 l 694 1215 m 521 1042 l 694 1042 l 694 868 l 521 868 l 521 1042 m 694 1042 l 868 1042 l 868 868 l 694 868 l 694 1042 m 0 868 l 174 868 l 174 694 l 0 694 l 0 868 m 174 868 l 347 868 l 347 694 l 174 694 l 174 868 m 347 868 l 521 868 l 521 694 l 347 694 l 347 868 m 521 868 l 694 868 l 694 694 l 521 694 l 521 868 m 694 868 l 868 868 l 868 694 l 694 694 l 694 868 m 868 868 l 1042 868 l 1042 694 l 868 694 l 868 868 m 1042 868 l 1215 868 l 1215 694 l 1042 694 l 1042 868 m 1215 868 l 1389 868 l 1389 694 l 1215 694 l 1215 868 z "},"":{"ha":1389,"x_min":519,"x_max":1391,"o":"m 521 1389 l 694 1389 l 694 1215 l 521 1215 l 521 1389 m 694 1389 l 868 1389 l 868 1215 l 694 1215 l 694 1389 m 521 1215 l 694 1215 l 694 1042 l 521 1042 l 521 1215 m 694 1215 l 868 1215 l 868 1042 l 694 1042 l 694 1215 m 521 1042 l 694 1042 l 694 868 l 521 868 l 521 1042 m 694 1042 l 868 1042 l 868 868 l 694 868 l 694 1042 m 521 868 l 694 868 l 694 694 l 521 694 l 521 868 m 694 868 l 868 868 l 868 694 l 694 694 l 694 868 m 868 868 l 1042 868 l 1042 694 l 868 694 l 868 868 m 1042 868 l 1215 868 l 1215 694 l 1042 694 l 1042 868 m 1215 868 l 1389 868 l 1389 694 l 1215 694 l 1215 868 m 521 694 l 694 694 l 694 521 l 521 521 l 521 694 m 694 694 l 868 694 l 868 521 l 694 521 l 694 694 m 521 521 l 694 521 l 694 347 l 521 347 l 521 521 m 694 521 l 868 521 l 868 347 l 694 347 l 694 521 m 521 347 l 694 347 l 694 174 l 521 174 l 521 347 m 694 347 l 868 347 l 868 174 l 694 174 l 694 347 m 521 174 l 694 174 l 694 0 l 521 0 l 521 174 m 694 174 l 868 174 l 868 0 l 694 0 l 694 174 z "},"":{"ha":1389,"x_min":-2,"x_max":870,"o":"m 521 1389 l 694 1389 l 694 1215 l 521 1215 l 521 1389 m 694 1389 l 868 1389 l 868 1215 l 694 1215 l 694 1389 m 521 1215 l 694 1215 l 694 1042 l 521 1042 l 521 1215 m 694 1215 l 868 1215 l 868 1042 l 694 1042 l 694 1215 m 521 1042 l 694 1042 l 694 868 l 521 868 l 521 1042 m 694 1042 l 868 1042 l 868 868 l 694 868 l 694 1042 m 0 868 l 174 868 l 174 694 l 0 694 l 0 868 m 174 868 l 347 868 l 347 694 l 174 694 l 174 868 m 347 868 l 521 868 l 521 694 l 347 694 l 347 868 m 521 868 l 694 868 l 694 694 l 521 694 l 521 868 m 694 868 l 868 868 l 868 694 l 694 694 l 694 868 m 521 694 l 694 694 l 694 521 l 521 521 l 521 694 m 694 694 l 868 694 l 868 521 l 694 521 l 694 694 m 521 521 l 694 521 l 694 347 l 521 347 l 521 521 m 694 521 l 868 521 l 868 347 l 694 347 l 694 521 m 521 347 l 694 347 l 694 174 l 521 174 l 521 347 m 694 347 l 868 347 l 868 174 l 694 174 l 694 347 m 521 174 l 694 174 l 694 0 l 521 0 l 521 174 m 694 174 l 868 174 l 868 0 l 694 0 l 694 174 z "},"":{"ha":1389,"x_min":-2,"x_max":1391,"o":"m 521 1389 l 694 1389 l 694 1215 l 521 1215 l 521 1389 m 694 1389 l 868 1389 l 868 1215 l 694 1215 l 694 1389 m 521 1215 l 694 1215 l 694 1042 l 521 1042 l 521 1215 m 694 1215 l 868 1215 l 868 1042 l 694 1042 l 694 1215 m 521 1042 l 694 1042 l 694 868 l 521 868 l 521 1042 m 694 1042 l 868 1042 l 868 868 l 694 868 l 694 1042 m 0 868 l 174 868 l 174 694 l 0 694 l 0 868 m 174 868 l 347 868 l 347 694 l 174 694 l 174 868 m 347 868 l 521 868 l 521 694 l 347 694 l 347 868 m 521 868 l 694 868 l 694 694 l 521 694 l 521 868 m 694 868 l 868 868 l 868 694 l 694 694 l 694 868 m 868 868 l 1042 868 l 1042 694 l 868 694 l 868 868 m 1042 868 l 1215 868 l 1215 694 l 1042 694 l 1042 868 m 1215 868 l 1389 868 l 1389 694 l 1215 694 l 1215 868 m 521 694 l 694 694 l 694 521 l 521 521 l 521 694 m 694 694 l 868 694 l 868 521 l 694 521 l 694 694 m 521 521 l 694 521 l 694 347 l 521 347 l 521 521 m 694 521 l 868 521 l 868 347 l 694 347 l 694 521 m 521 347 l 694 347 l 694 174 l 521 174 l 521 347 m 694 347 l 868 347 l 868 174 l 694 174 l 694 347 m 521 174 l 694 174 l 694 0 l 521 0 l 521 174 m 694 174 l 868 174 l 868 0 l 694 0 l 694 174 z "},"":{"ha":1389,"x_min":-2,"x_max":1391,"o":"m 0 1389 l 174 1389 l 174 1215 l 0 1215 l 0 1389 m 174 1389 l 347 1389 l 347 1215 l 174 1215 l 174 1389 m 347 1389 l 521 1389 l 521 1215 l 347 1215 l 347 1389 m 521 1389 l 694 1389 l 694 1215 l 521 1215 l 521 1389 m 694 1389 l 868 1389 l 868 1215 l 694 1215 l 694 1389 m 868 1389 l 1042 1389 l 1042 1215 l 868 1215 l 868 1389 m 1042 1389 l 1215 1389 l 1215 1215 l 1042 1215 l 1042 1389 m 1215 1389 l 1389 1389 l 1389 1215 l 1215 1215 l 1215 1389 m 0 1215 l 174 1215 l 174 1042 l 0 1042 l 0 1215 m 174 1215 l 347 1215 l 347 1042 l 174 1042 l 174 1215 m 1215 1215 l 1389 1215 l 1389 1042 l 1215 1042 l 1215 1215 m 0 1042 l 174 1042 l 174 868 l 0 868 l 0 1042 m 174 1042 l 347 1042 l 347 868 l 174 868 l 174 1042 m 1042 1042 l 1215 1042 l 1215 868 l 1042 868 l 1042 1042 m 1215 1042 l 1389 1042 l 1389 868 l 1215 868 l 1215 1042 m 0 868 l 174 868 l 174 694 l 0 694 l 0 868 m 174 868 l 347 868 l 347 694 l 174 694 l 174 868 m 868 868 l 1042 868 l 1042 694 l 868 694 l 868 868 m 1042 868 l 1215 868 l 1215 694 l 1042 694 l 1042 868 m 1215 868 l 1389 868 l 1389 694 l 1215 694 l 1215 868 m 0 694 l 174 694 l 174 521 l 0 521 l 0 694 m 174 694 l 347 694 l 347 521 l 174 521 l 174 694 m 1215 694 l 1389 694 l 1389 521 l 1215 521 l 1215 694 m 0 521 l 174 521 l 174 347 l 0 347 l 0 521 m 174 521 l 347 521 l 347 347 l 174 347 l 174 521 m 1215 521 l 1389 521 l 1389 347 l 1215 347 l 1215 521 m 0 347 l 174 347 l 174 174 l 0 174 l 0 347 m 174 347 l 347 347 l 347 174 l 174 174 l 174 347 m 0 174 l 174 174 l 174 0 l 0 0 l 0 174 m 174 174 l 347 174 l 347 0 l 174 0 l 174 174 m 347 174 l 521 174 l 521 0 l 347 0 l 347 174 m 521 174 l 694 174 l 694 0 l 521 0 l 521 174 m 694 174 l 868 174 l 868 0 l 694 0 l 694 174 m 868 174 l 1042 174 l 1042 0 l 868 0 l 868 174 m 1042 174 l 1215 174 l 1215 0 l 1042 0 l 1042 174 m 1215 174 l 1389 174 l 1389 0 l 1215 0 l 1215 174 z "},"":{"ha":1389,"x_min":-2,"x_max":1391,"o":"m 0 1389 l 174 1389 l 174 1215 l 0 1215 l 0 1389 m 174 1389 l 347 1389 l 347 1215 l 174 1215 l 174 1389 m 347 1389 l 521 1389 l 521 1215 l 347 1215 l 347 1389 m 521 1389 l 694 1389 l 694 1215 l 521 1215 l 521 1389 m 694 1389 l 868 1389 l 868 1215 l 694 1215 l 694 1389 m 868 1389 l 1042 1389 l 1042 1215 l 868 1215 l 868 1389 m 1042 1389 l 1215 1389 l 1215 1215 l 1042 1215 l 1042 1389 m 1215 1389 l 1389 1389 l 1389 1215 l 1215 1215 l 1215 1389 m 0 1215 l 174 1215 l 174 1042 l 0 1042 l 0 1215 m 1042 1215 l 1215 1215 l 1215 1042 l 1042 1042 l 1042 1215 m 1215 1215 l 1389 1215 l 1389 1042 l 1215 1042 l 1215 1215 m 0 1042 l 174 1042 l 174 868 l 0 868 l 0 1042 m 174 1042 l 347 1042 l 347 868 l 174 868 l 174 1042 m 1042 1042 l 1215 1042 l 1215 868 l 1042 868 l 1042 1042 m 1215 1042 l 1389 1042 l 1389 868 l 1215 868 l 1215 1042 m 0 868 l 174 868 l 174 694 l 0 694 l 0 868 m 174 868 l 347 868 l 347 694 l 174 694 l 174 868 m 347 868 l 521 868 l 521 694 l 347 694 l 347 868 m 1042 868 l 1215 868 l 1215 694 l 1042 694 l 1042 868 m 1215 868 l 1389 868 l 1389 694 l 1215 694 l 1215 868 m 0 694 l 174 694 l 174 521 l 0 521 l 0 694 m 1042 694 l 1215 694 l 1215 521 l 1042 521 l 1042 694 m 1215 694 l 1389 694 l 1389 521 l 1215 521 l 1215 694 m 0 521 l 174 521 l 174 347 l 0 347 l 0 521 m 1042 521 l 1215 521 l 1215 347 l 1042 347 l 1042 521 m 1215 521 l 1389 521 l 1389 347 l 1215 347 l 1215 521 m 1042 347 l 1215 347 l 1215 174 l 1042 174 l 1042 347 m 1215 347 l 1389 347 l 1389 174 l 1215 174 l 1215 347 m 0 174 l 174 174 l 174 0 l 0 0 l 0 174 m 174 174 l 347 174 l 347 0 l 174 0 l 174 174 m 347 174 l 521 174 l 521 0 l 347 0 l 347 174 m 521 174 l 694 174 l 694 0 l 521 0 l 521 174 m 694 174 l 868 174 l 868 0 l 694 0 l 694 174 m 868 174 l 1042 174 l 1042 0 l 868 0 l 868 174 m 1042 174 l 1215 174 l 1215 0 l 1042 0 l 1042 174 m 1215 174 l 1389 174 l 1389 0 l 1215 0 l 1215 174 z "},"":{"ha":1389,"x_min":-2,"x_max":1391,"o":"m 0 1389 l 174 1389 l 174 1215 l 0 1215 l 0 1389 m 174 1389 l 347 1389 l 347 1215 l 174 1215 l 174 1389 m 347 1389 l 521 1389 l 521 1215 l 347 1215 l 347 1389 m 521 1389 l 694 1389 l 694 1215 l 521 1215 l 521 1389 m 694 1389 l 868 1389 l 868 1215 l 694 1215 l 694 1389 m 868 1389 l 1042 1389 l 1042 1215 l 868 1215 l 868 1389 m 1042 1389 l 1215 1389 l 1215 1215 l 1042 1215 l 1042 1389 m 1215 1389 l 1389 1389 l 1389 1215 l 1215 1215 l 1215 1389 m 0 1215 l 174 1215 l 174 1042 l 0 1042 l 0 1215 m 174 1215 l 347 1215 l 347 1042 l 174 1042 l 174 1215 m 0 1042 l 174 1042 l 174 868 l 0 868 l 0 1042 m 174 1042 l 347 1042 l 347 868 l 174 868 l 174 1042 m 1215 1042 l 1389 1042 l 1389 868 l 1215 868 l 1215 1042 m 0 868 l 174 868 l 174 694 l 0 694 l 0 868 m 174 868 l 347 868 l 347 694 l 174 694 l 174 868 m 1215 868 l 1389 868 l 1389 694 l 1215 694 l 1215 868 m 0 694 l 174 694 l 174 521 l 0 521 l 0 694 m 174 694 l 347 694 l 347 521 l 174 521 l 174 694 m 868 694 l 1042 694 l 1042 521 l 868 521 l 868 694 m 1042 694 l 1215 694 l 1215 521 l 1042 521 l 1042 694 m 1215 694 l 1389 694 l 1389 521 l 1215 521 l 1215 694 m 0 521 l 174 521 l 174 347 l 0 347 l 0 521 m 174 521 l 347 521 l 347 347 l 174 347 l 174 521 m 1042 521 l 1215 521 l 1215 347 l 1042 347 l 1042 521 m 1215 521 l 1389 521 l 1389 347 l 1215 347 l 1215 521 m 0 347 l 174 347 l 174 174 l 0 174 l 0 347 m 174 347 l 347 347 l 347 174 l 174 174 l 174 347 m 1215 347 l 1389 347 l 1389 174 l 1215 174 l 1215 347 m 0 174 l 174 174 l 174 0 l 0 0 l 0 174 m 174 174 l 347 174 l 347 0 l 174 0 l 174 174 m 347 174 l 521 174 l 521 0 l 347 0 l 347 174 m 521 174 l 694 174 l 694 0 l 521 0 l 521 174 m 694 174 l 868 174 l 868 0 l 694 0 l 694 174 m 868 174 l 1042 174 l 1042 0 l 868 0 l 868 174 m 1042 174 l 1215 174 l 1215 0 l 1042 0 l 1042 174 m 1215 174 l 1389 174 l 1389 0 l 1215 0 l 1215 174 z "},"":{"ha":1389,"x_min":-2,"x_max":1391,"o":"m 0 1389 l 174 1389 l 174 1215 l 0 1215 l 0 1389 m 174 1389 l 347 1389 l 347 1215 l 174 1215 l 174 1389 m 347 1389 l 521 1389 l 521 1215 l 347 1215 l 347 1389 m 521 1389 l 694 1389 l 694 1215 l 521 1215 l 521 1389 m 694 1389 l 868 1389 l 868 1215 l 694 1215 l 694 1389 m 868 1389 l 1042 1389 l 1042 1215 l 868 1215 l 868 1389 m 1042 1389 l 1215 1389 l 1215 1215 l 1042 1215 l 1042 1389 m 1215 1389 l 1389 1389 l 1389 1215 l 1215 1215 l 1215 1389 m 1042 1215 l 1215 1215 l 1215 1042 l 1042 1042 l 1042 1215 m 1215 1215 l 1389 1215 l 1389 1042 l 1215 1042 l 1215 1215 m 0 1042 l 174 1042 l 174 868 l 0 868 l 0 1042 m 1042 1042 l 1215 1042 l 1215 868 l 1042 868 l 1042 1042 m 1215 1042 l 1389 1042 l 1389 868 l 1215 868 l 1215 1042 m 0 868 l 174 868 l 174 694 l 0 694 l 0 868 m 1042 868 l 1215 868 l 1215 694 l 1042 694 l 1042 868 m 1215 868 l 1389 868 l 1389 694 l 1215 694 l 1215 868 m 0 694 l 174 694 l 174 521 l 0 521 l 0 694 m 174 694 l 347 694 l 347 521 l 174 521 l 174 694 m 347 694 l 521 694 l 521 521 l 347 521 l 347 694 m 1042 694 l 1215 694 l 1215 521 l 1042 521 l 1042 694 m 1215 694 l 1389 694 l 1389 521 l 1215 521 l 1215 694 m 0 521 l 174 521 l 174 347 l 0 347 l 0 521 m 174 521 l 347 521 l 347 347 l 174 347 l 174 521 m 1042 521 l 1215 521 l 1215 347 l 1042 347 l 1042 521 m 1215 521 l 1389 521 l 1389 347 l 1215 347 l 1215 521 m 0 347 l 174 347 l 174 174 l 0 174 l 0 347 m 1042 347 l 1215 347 l 1215 174 l 1042 174 l 1042 347 m 1215 347 l 1389 347 l 1389 174 l 1215 174 l 1215 347 m 0 174 l 174 174 l 174 0 l 0 0 l 0 174 m 174 174 l 347 174 l 347 0 l 174 0 l 174 174 m 347 174 l 521 174 l 521 0 l 347 0 l 347 174 m 521 174 l 694 174 l 694 0 l 521 0 l 521 174 m 694 174 l 868 174 l 868 0 l 694 0 l 694 174 m 868 174 l 1042 174 l 1042 0 l 868 0 l 868 174 m 1042 174 l 1215 174 l 1215 0 l 1042 0 l 1042 174 m 1215 174 l 1389 174 l 1389 0 l 1215 0 l 1215 174 z "},"":{"ha":1389,"x_min":-2,"x_max":1391,"o":"m 0 1389 l 174 1389 l 174 1215 l 0 1215 l 0 1389 m 174 1389 l 347 1389 l 347 1215 l 174 1215 l 174 1389 m 347 1389 l 521 1389 l 521 1215 l 347 1215 l 347 1389 m 521 1389 l 694 1389 l 694 1215 l 521 1215 l 521 1389 m 694 1389 l 868 1389 l 868 1215 l 694 1215 l 694 1389 m 868 1389 l 1042 1389 l 1042 1215 l 868 1215 l 868 1389 m 1042 1389 l 1215 1389 l 1215 1215 l 1042 1215 l 1042 1389 m 1215 1389 l 1389 1389 l 1389 1215 l 1215 1215 l 1215 1389 m 0 1215 l 174 1215 l 174 1042 l 0 1042 l 0 1215 m 174 1215 l 347 1215 l 347 1042 l 174 1042 l 174 1215 m 0 1042 l 174 1042 l 174 868 l 0 868 l 0 1042 m 174 1042 l 347 1042 l 347 868 l 174 868 l 174 1042 m 694 1042 l 868 1042 l 868 868 l 694 868 l 694 1042 m 868 1042 l 1042 1042 l 1042 868 l 868 868 l 868 1042 m 0 868 l 174 868 l 174 694 l 0 694 l 0 868 m 174 868 l 347 868 l 347 694 l 174 694 l 174 868 m 521 868 l 694 868 l 694 694 l 521 694 l 521 868 m 694 868 l 868 868 l 868 694 l 694 694 l 694 868 m 868 868 l 1042 868 l 1042 694 l 868 694 l 868 868 m 1042 868 l 1215 868 l 1215 694 l 1042 694 l 1042 868 m 1215 868 l 1389 868 l 1389 694 l 1215 694 l 1215 868 m 0 694 l 174 694 l 174 521 l 0 521 l 0 694 m 174 694 l 347 694 l 347 521 l 174 521 l 174 694 m 521 694 l 694 694 l 694 521 l 521 521 l 521 694 m 694 694 l 868 694 l 868 521 l 694 521 l 694 694 m 868 694 l 1042 694 l 1042 521 l 868 521 l 868 694 m 1042 694 l 1215 694 l 1215 521 l 1042 521 l 1042 694 m 1215 694 l 1389 694 l 1389 521 l 1215 521 l 1215 694 m 0 521 l 174 521 l 174 347 l 0 347 l 0 521 m 174 521 l 347 521 l 347 347 l 174 347 l 174 521 m 694 521 l 868 521 l 868 347 l 694 347 l 694 521 m 868 521 l 1042 521 l 1042 347 l 868 347 l 868 521 m 0 347 l 174 347 l 174 174 l 0 174 l 0 347 m 174 347 l 347 347 l 347 174 l 174 174 l 174 347 m 0 174 l 174 174 l 174 0 l 0 0 l 0 174 m 174 174 l 347 174 l 347 0 l 174 0 l 174 174 m 347 174 l 521 174 l 521 0 l 347 0 l 347 174 m 521 174 l 694 174 l 694 0 l 521 0 l 521 174 m 694 174 l 868 174 l 868 0 l 694 0 l 694 174 m 868 174 l 1042 174 l 1042 0 l 868 0 l 868 174 m 1042 174 l 1215 174 l 1215 0 l 1042 0 l 1042 174 m 1215 174 l 1389 174 l 1389 0 l 1215 0 l 1215 174 z "},"":{"ha":1389,"x_min":-2,"x_max":1391,"o":"m 0 1389 l 174 1389 l 174 1215 l 0 1215 l 0 1389 m 174 1389 l 347 1389 l 347 1215 l 174 1215 l 174 1389 m 347 1389 l 521 1389 l 521 1215 l 347 1215 l 347 1389 m 521 1389 l 694 1389 l 694 1215 l 521 1215 l 521 1389 m 694 1389 l 868 1389 l 868 1215 l 694 1215 l 694 1389 m 868 1389 l 1042 1389 l 1042 1215 l 868 1215 l 868 1389 m 1042 1389 l 1215 1389 l 1215 1215 l 1042 1215 l 1042 1389 m 1215 1389 l 1389 1389 l 1389 1215 l 1215 1215 l 1215 1389 m 1042 1215 l 1215 1215 l 1215 1042 l 1042 1042 l 1042 1215 m 1215 1215 l 1389 1215 l 1389 1042 l 1215 1042 l 1215 1215 m 1042 1042 l 1215 1042 l 1215 868 l 1042 868 l 1042 1042 m 1215 1042 l 1389 1042 l 1389 868 l 1215 868 l 1215 1042 m 0 868 l 174 868 l 174 694 l 0 694 l 0 868 m 174 868 l 347 868 l 347 694 l 174 694 l 174 868 m 347 868 l 521 868 l 521 694 l 347 694 l 347 868 m 521 868 l 694 868 l 694 694 l 521 694 l 521 868 m 1042 868 l 1215 868 l 1215 694 l 1042 694 l 1042 868 m 1215 868 l 1389 868 l 1389 694 l 1215 694 l 1215 868 m 0 694 l 174 694 l 174 521 l 0 521 l 0 694 m 174 694 l 347 694 l 347 521 l 174 521 l 174 694 m 347 694 l 521 694 l 521 521 l 347 521 l 347 694 m 521 694 l 694 694 l 694 521 l 521 521 l 521 694 m 1042 694 l 1215 694 l 1215 521 l 1042 521 l 1042 694 m 1215 694 l 1389 694 l 1389 521 l 1215 521 l 1215 694 m 1042 521 l 1215 521 l 1215 347 l 1042 347 l 1042 521 m 1215 521 l 1389 521 l 1389 347 l 1215 347 l 1215 521 m 1042 347 l 1215 347 l 1215 174 l 1042 174 l 1042 347 m 1215 347 l 1389 347 l 1389 174 l 1215 174 l 1215 347 m 0 174 l 174 174 l 174 0 l 0 0 l 0 174 m 174 174 l 347 174 l 347 0 l 174 0 l 174 174 m 347 174 l 521 174 l 521 0 l 347 0 l 347 174 m 521 174 l 694 174 l 694 0 l 521 0 l 521 174 m 694 174 l 868 174 l 868 0 l 694 0 l 694 174 m 868 174 l 1042 174 l 1042 0 l 868 0 l 868 174 m 1042 174 l 1215 174 l 1215 0 l 1042 0 l 1042 174 m 1215 174 l 1389 174 l 1389 0 l 1215 0 l 1215 174 z "},"":{"ha":1389,"x_min":-2,"x_max":1391,"o":"m 0 1389 l 174 1389 l 174 1215 l 0 1215 l 0 1389 m 174 1389 l 347 1389 l 347 1215 l 174 1215 l 174 1389 m 347 1389 l 521 1389 l 521 1215 l 347 1215 l 347 1389 m 521 1389 l 694 1389 l 694 1215 l 521 1215 l 521 1389 m 694 1389 l 868 1389 l 868 1215 l 694 1215 l 694 1389 m 868 1389 l 1042 1389 l 1042 1215 l 868 1215 l 868 1389 m 1042 1389 l 1215 1389 l 1215 1215 l 1042 1215 l 1042 1389 m 1215 1389 l 1389 1389 l 1389 1215 l 1215 1215 l 1215 1389 m 0 1215 l 174 1215 l 174 1042 l 0 1042 l 0 1215 m 174 1215 l 347 1215 l 347 1042 l 174 1042 l 174 1215 m 0 1042 l 174 1042 l 174 868 l 0 868 l 0 1042 m 174 1042 l 347 1042 l 347 868 l 174 868 l 174 1042 m 0 868 l 174 868 l 174 694 l 0 694 l 0 868 m 174 868 l 347 868 l 347 694 l 174 694 l 174 868 m 694 868 l 868 868 l 868 694 l 694 694 l 694 868 m 868 868 l 1042 868 l 1042 694 l 868 694 l 868 868 m 1042 868 l 1215 868 l 1215 694 l 1042 694 l 1042 868 m 1215 868 l 1389 868 l 1389 694 l 1215 694 l 1215 868 m 0 694 l 174 694 l 174 521 l 0 521 l 0 694 m 174 694 l 347 694 l 347 521 l 174 521 l 174 694 m 694 694 l 868 694 l 868 521 l 694 521 l 694 694 m 868 694 l 1042 694 l 1042 521 l 868 521 l 868 694 m 1042 694 l 1215 694 l 1215 521 l 1042 521 l 1042 694 m 1215 694 l 1389 694 l 1389 521 l 1215 521 l 1215 694 m 0 521 l 174 521 l 174 347 l 0 347 l 0 521 m 174 521 l 347 521 l 347 347 l 174 347 l 174 521 m 0 347 l 174 347 l 174 174 l 0 174 l 0 347 m 174 347 l 347 347 l 347 174 l 174 174 l 174 347 m 0 174 l 174 174 l 174 0 l 0 0 l 0 174 m 174 174 l 347 174 l 347 0 l 174 0 l 174 174 m 347 174 l 521 174 l 521 0 l 347 0 l 347 174 m 521 174 l 694 174 l 694 0 l 521 0 l 521 174 m 694 174 l 868 174 l 868 0 l 694 0 l 694 174 m 868 174 l 1042 174 l 1042 0 l 868 0 l 868 174 m 1042 174 l 1215 174 l 1215 0 l 1042 0 l 1042 174 m 1215 174 l 1389 174 l 1389 0 l 1215 0 l 1215 174 z "},"":{"ha":1389,"x_min":-2,"x_max":1391,"o":"m 0 1389 l 174 1389 l 174 1215 l 0 1215 l 0 1389 m 174 1389 l 347 1389 l 347 1215 l 174 1215 l 174 1389 m 347 1389 l 521 1389 l 521 1215 l 347 1215 l 347 1389 m 521 1389 l 694 1389 l 694 1215 l 521 1215 l 521 1389 m 694 1389 l 868 1389 l 868 1215 l 694 1215 l 694 1389 m 868 1389 l 1042 1389 l 1042 1215 l 868 1215 l 868 1389 m 1042 1389 l 1215 1389 l 1215 1215 l 1042 1215 l 1042 1389 m 1215 1389 l 1389 1389 l 1389 1215 l 1215 1215 l 1215 1389 m 1042 1215 l 1215 1215 l 1215 1042 l 1042 1042 l 1042 1215 m 1215 1215 l 1389 1215 l 1389 1042 l 1215 1042 l 1215 1215 m 174 1042 l 347 1042 l 347 868 l 174 868 l 174 1042 m 347 1042 l 521 1042 l 521 868 l 347 868 l 347 1042 m 1042 1042 l 1215 1042 l 1215 868 l 1042 868 l 1042 1042 m 1215 1042 l 1389 1042 l 1389 868 l 1215 868 l 1215 1042 m 0 868 l 174 868 l 174 694 l 0 694 l 0 868 m 174 868 l 347 868 l 347 694 l 174 694 l 174 868 m 347 868 l 521 868 l 521 694 l 347 694 l 347 868 m 521 868 l 694 868 l 694 694 l 521 694 l 521 868 m 1042 868 l 1215 868 l 1215 694 l 1042 694 l 1042 868 m 1215 868 l 1389 868 l 1389 694 l 1215 694 l 1215 868 m 0 694 l 174 694 l 174 521 l 0 521 l 0 694 m 174 694 l 347 694 l 347 521 l 174 521 l 174 694 m 347 694 l 521 694 l 521 521 l 347 521 l 347 694 m 521 694 l 694 694 l 694 521 l 521 521 l 521 694 m 1042 694 l 1215 694 l 1215 521 l 1042 521 l 1042 694 m 1215 694 l 1389 694 l 1389 521 l 1215 521 l 1215 694 m 174 521 l 347 521 l 347 347 l 174 347 l 174 521 m 347 521 l 521 521 l 521 347 l 347 347 l 347 521 m 1042 521 l 1215 521 l 1215 347 l 1042 347 l 1042 521 m 1215 521 l 1389 521 l 1389 347 l 1215 347 l 1215 521 m 1042 347 l 1215 347 l 1215 174 l 1042 174 l 1042 347 m 1215 347 l 1389 347 l 1389 174 l 1215 174 l 1215 347 m 0 174 l 174 174 l 174 0 l 0 0 l 0 174 m 174 174 l 347 174 l 347 0 l 174 0 l 174 174 m 347 174 l 521 174 l 521 0 l 347 0 l 347 174 m 521 174 l 694 174 l 694 0 l 521 0 l 521 174 m 694 174 l 868 174 l 868 0 l 694 0 l 694 174 m 868 174 l 1042 174 l 1042 0 l 868 0 l 868 174 m 1042 174 l 1215 174 l 1215 0 l 1042 0 l 1042 174 m 1215 174 l 1389 174 l 1389 0 l 1215 0 l 1215 174 z "},"":{"ha":1389,"x_min":-2,"x_max":1391,"o":"m 0 1389 l 174 1389 l 174 1215 l 0 1215 l 0 1389 m 174 1389 l 347 1389 l 347 1215 l 174 1215 l 174 1389 m 347 1389 l 521 1389 l 521 1215 l 347 1215 l 347 1389 m 521 1389 l 694 1389 l 694 1215 l 521 1215 l 521 1389 m 694 1389 l 868 1389 l 868 1215 l 694 1215 l 694 1389 m 868 1389 l 1042 1389 l 1042 1215 l 868 1215 l 868 1389 m 1042 1389 l 1215 1389 l 1215 1215 l 1042 1215 l 1042 1389 m 1215 1389 l 1389 1389 l 1389 1215 l 1215 1215 l 1215 1389 m 0 1215 l 174 1215 l 174 1042 l 0 1042 l 0 1215 m 174 1215 l 347 1215 l 347 1042 l 174 1042 l 174 1215 m 0 1042 l 174 1042 l 174 868 l 0 868 l 0 1042 m 174 1042 l 347 1042 l 347 868 l 174 868 l 174 1042 m 1042 1042 l 1215 1042 l 1215 868 l 1042 868 l 1042 1042 m 1215 1042 l 1389 1042 l 1389 868 l 1215 868 l 1215 1042 m 0 868 l 174 868 l 174 694 l 0 694 l 0 868 m 174 868 l 347 868 l 347 694 l 174 694 l 174 868 m 694 868 l 868 868 l 868 694 l 694 694 l 694 868 m 868 868 l 1042 868 l 1042 694 l 868 694 l 868 868 m 0 694 l 174 694 l 174 521 l 0 521 l 0 694 m 174 694 l 347 694 l 347 521 l 174 521 l 174 694 m 694 694 l 868 694 l 868 521 l 694 521 l 694 694 m 868 694 l 1042 694 l 1042 521 l 868 521 l 868 694 m 0 521 l 174 521 l 174 347 l 0 347 l 0 521 m 174 521 l 347 521 l 347 347 l 174 347 l 174 521 m 1042 521 l 1215 521 l 1215 347 l 1042 347 l 1042 521 m 1215 521 l 1389 521 l 1389 347 l 1215 347 l 1215 521 m 0 347 l 174 347 l 174 174 l 0 174 l 0 347 m 174 347 l 347 347 l 347 174 l 174 174 l 174 347 m 0 174 l 174 174 l 174 0 l 0 0 l 0 174 m 174 174 l 347 174 l 347 0 l 174 0 l 174 174 m 347 174 l 521 174 l 521 0 l 347 0 l 347 174 m 521 174 l 694 174 l 694 0 l 521 0 l 521 174 m 694 174 l 868 174 l 868 0 l 694 0 l 694 174 m 868 174 l 1042 174 l 1042 0 l 868 0 l 868 174 m 1042 174 l 1215 174 l 1215 0 l 1042 0 l 1042 174 m 1215 174 l 1389 174 l 1389 0 l 1215 0 l 1215 174 z "},"":{"ha":1389,"x_min":-2,"x_max":1391,"o":"m 0 1389 l 174 1389 l 174 1215 l 0 1215 l 0 1389 m 174 1389 l 347 1389 l 347 1215 l 174 1215 l 174 1389 m 347 1389 l 521 1389 l 521 1215 l 347 1215 l 347 1389 m 521 1389 l 694 1389 l 694 1215 l 521 1215 l 521 1389 m 694 1389 l 868 1389 l 868 1215 l 694 1215 l 694 1389 m 868 1389 l 1042 1389 l 1042 1215 l 868 1215 l 868 1389 m 1042 1389 l 1215 1389 l 1215 1215 l 1042 1215 l 1042 1389 m 1215 1389 l 1389 1389 l 1389 1215 l 1215 1215 l 1215 1389 m 1042 1215 l 1215 1215 l 1215 1042 l 1042 1042 l 1042 1215 m 1215 1215 l 1389 1215 l 1389 1042 l 1215 1042 l 1215 1215 m 0 1042 l 174 1042 l 174 868 l 0 868 l 0 1042 m 174 1042 l 347 1042 l 347 868 l 174 868 l 174 1042 m 1042 1042 l 1215 1042 l 1215 868 l 1042 868 l 1042 1042 m 1215 1042 l 1389 1042 l 1389 868 l 1215 868 l 1215 1042 m 347 868 l 521 868 l 521 694 l 347 694 l 347 868 m 521 868 l 694 868 l 694 694 l 521 694 l 521 868 m 1042 868 l 1215 868 l 1215 694 l 1042 694 l 1042 868 m 1215 868 l 1389 868 l 1389 694 l 1215 694 l 1215 868 m 347 694 l 521 694 l 521 521 l 347 521 l 347 694 m 521 694 l 694 694 l 694 521 l 521 521 l 521 694 m 1042 694 l 1215 694 l 1215 521 l 1042 521 l 1042 694 m 1215 694 l 1389 694 l 1389 521 l 1215 521 l 1215 694 m 0 521 l 174 521 l 174 347 l 0 347 l 0 521 m 174 521 l 347 521 l 347 347 l 174 347 l 174 521 m 1042 521 l 1215 521 l 1215 347 l 1042 347 l 1042 521 m 1215 521 l 1389 521 l 1389 347 l 1215 347 l 1215 521 m 1042 347 l 1215 347 l 1215 174 l 1042 174 l 1042 347 m 1215 347 l 1389 347 l 1389 174 l 1215 174 l 1215 347 m 0 174 l 174 174 l 174 0 l 0 0 l 0 174 m 174 174 l 347 174 l 347 0 l 174 0 l 174 174 m 347 174 l 521 174 l 521 0 l 347 0 l 347 174 m 521 174 l 694 174 l 694 0 l 521 0 l 521 174 m 694 174 l 868 174 l 868 0 l 694 0 l 694 174 m 868 174 l 1042 174 l 1042 0 l 868 0 l 868 174 m 1042 174 l 1215 174 l 1215 0 l 1042 0 l 1042 174 m 1215 174 l 1389 174 l 1389 0 l 1215 0 l 1215 174 z "},"":{"ha":1389,"x_min":0,"x_max":0,"o":"m 0 0 z "},"":{"ha":1389,"x_min":0,"x_max":0,"o":"m 0 0 z "},"":{"ha":1389,"x_min":0,"x_max":0,"o":"m 0 0 z "},"":{"ha":1389,"x_min":0,"x_max":0,"o":"m 0 0 z "},"":{"ha":1389,"x_min":345,"x_max":1043,"o":"m 521 1389 l 694 1389 l 694 1215 l 521 1215 l 521 1389 m 694 1389 l 868 1389 l 868 1215 l 694 1215 l 694 1389 m 521 1042 l 694 1042 l 694 868 l 521 868 l 521 1042 m 694 1042 l 868 1042 l 868 868 l 694 868 l 694 1042 m 521 868 l 694 868 l 694 694 l 521 694 l 521 868 m 694 868 l 868 868 l 868 694 l 694 694 l 694 868 m 347 694 l 521 694 l 521 521 l 347 521 l 347 694 m 521 694 l 694 694 l 694 521 l 521 521 l 521 694 m 694 694 l 868 694 l 868 521 l 694 521 l 694 694 m 868 694 l 1042 694 l 1042 521 l 868 521 l 868 694 m 347 521 l 521 521 l 521 347 l 347 347 l 347 521 m 521 521 l 694 521 l 694 347 l 521 347 l 521 521 m 694 521 l 868 521 l 868 347 l 694 347 l 694 521 m 868 521 l 1042 521 l 1042 347 l 868 347 l 868 521 m 521 347 l 694 347 l 694 174 l 521 174 l 521 347 m 694 347 l 868 347 l 868 174 l 694 174 l 694 347 z "},"":{"ha":1389,"x_min":172,"x_max":1217,"o":"m 694 1389 l 868 1389 l 868 1215 l 694 1215 l 694 1389 m 868 1389 l 1042 1389 l 1042 1215 l 868 1215 l 868 1389 m 347 1215 l 521 1215 l 521 1042 l 347 1042 l 347 1215 m 521 1215 l 694 1215 l 694 1042 l 521 1042 l 521 1215 m 694 1215 l 868 1215 l 868 1042 l 694 1042 l 694 1215 m 868 1215 l 1042 1215 l 1042 1042 l 868 1042 l 868 1215 m 1042 1215 l 1215 1215 l 1215 1042 l 1042 1042 l 1042 1215 m 174 1042 l 347 1042 l 347 868 l 174 868 l 174 1042 m 347 1042 l 521 1042 l 521 868 l 347 868 l 347 1042 m 694 1042 l 868 1042 l 868 868 l 694 868 l 694 1042 m 868 1042 l 1042 1042 l 1042 868 l 868 868 l 868 1042 m 174 868 l 347 868 l 347 694 l 174 694 l 174 868 m 347 868 l 521 868 l 521 694 l 347 694 l 347 868 m 694 868 l 868 868 l 868 694 l 694 694 l 694 868 m 868 868 l 1042 868 l 1042 694 l 868 694 l 868 868 m 347 694 l 521 694 l 521 521 l 347 521 l 347 694 m 521 694 l 694 694 l 694 521 l 521 521 l 521 694 m 694 694 l 868 694 l 868 521 l 694 521 l 694 694 m 868 694 l 1042 694 l 1042 521 l 868 521 l 868 694 m 1042 694 l 1215 694 l 1215 521 l 1042 521 l 1042 694 m 694 521 l 868 521 l 868 347 l 694 347 l 694 521 m 868 521 l 1042 521 l 1042 347 l 868 347 l 868 521 z "},"":{"ha":1389,"x_min":172,"x_max":1217,"o":"m 521 1389 l 694 1389 l 694 1215 l 521 1215 l 521 1389 m 694 1389 l 868 1389 l 868 1215 l 694 1215 l 694 1389 m 868 1389 l 1042 1389 l 1042 1215 l 868 1215 l 868 1389 m 347 1215 l 521 1215 l 521 1042 l 347 1042 l 347 1215 m 521 1215 l 694 1215 l 694 1042 l 521 1042 l 521 1215 m 868 1215 l 1042 1215 l 1042 1042 l 868 1042 l 868 1215 m 1042 1215 l 1215 1215 l 1215 1042 l 1042 1042 l 1042 1215 m 347 1042 l 521 1042 l 521 868 l 347 868 l 347 1042 m 521 1042 l 694 1042 l 694 868 l 521 868 l 521 1042 m 174 868 l 347 868 l 347 694 l 174 694 l 174 868 m 347 868 l 521 868 l 521 694 l 347 694 l 347 868 m 521 868 l 694 868 l 694 694 l 521 694 l 521 868 m 694 868 l 868 868 l 868 694 l 694 694 l 694 868 m 347 694 l 521 694 l 521 521 l 347 521 l 347 694 m 521 694 l 694 694 l 694 521 l 521 521 l 521 694 m 347 521 l 521 521 l 521 347 l 347 347 l 347 521 m 521 521 l 694 521 l 694 347 l 521 347 l 521 521 m 174 347 l 347 347 l 347 174 l 174 174 l 174 347 m 347 347 l 521 347 l 521 174 l 347 174 l 347 347 m 521 347 l 694 347 l 694 174 l 521 174 l 521 347 m 694 347 l 868 347 l 868 174 l 694 174 l 694 347 m 868 347 l 1042 347 l 1042 174 l 868 174 l 868 347 m 1042 347 l 1215 347 l 1215 174 l 1042 174 l 1042 347 z "},"":{"ha":1389,"x_min":172,"x_max":1217,"o":"m 174 1389 l 347 1389 l 347 1215 l 174 1215 l 174 1389 m 1042 1389 l 1215 1389 l 1215 1215 l 1042 1215 l 1042 1389 m 347 1215 l 521 1215 l 521 1042 l 347 1042 l 347 1215 m 521 1215 l 694 1215 l 694 1042 l 521 1042 l 521 1215 m 694 1215 l 868 1215 l 868 1042 l 694 1042 l 694 1215 m 868 1215 l 1042 1215 l 1042 1042 l 868 1042 l 868 1215 m 174 1042 l 347 1042 l 347 868 l 174 868 l 174 1042 m 347 1042 l 521 1042 l 521 868 l 347 868 l 347 1042 m 868 1042 l 1042 1042 l 1042 868 l 868 868 l 868 1042 m 1042 1042 l 1215 1042 l 1215 868 l 1042 868 l 1042 1042 m 347 868 l 521 868 l 521 694 l 347 694 l 347 868 m 521 868 l 694 868 l 694 694 l 521 694 l 521 868 m 694 868 l 868 868 l 868 694 l 694 694 l 694 868 m 868 868 l 1042 868 l 1042 694 l 868 694 l 868 868 m 174 694 l 347 694 l 347 521 l 174 521 l 174 694 m 1042 694 l 1215 694 l 1215 521 l 1042 521 l 1042 694 z "},"":{"ha":1389,"x_min":-2,"x_max":1391,"o":"m 0 1389 l 174 1389 l 174 1215 l 0 1215 l 0 1389 m 174 1389 l 347 1389 l 347 1215 l 174 1215 l 174 1389 m 1042 1389 l 1215 1389 l 1215 1215 l 1042 1215 l 1042 1389 m 1215 1389 l 1389 1389 l 1389 1215 l 1215 1215 l 1215 1389 m 174 1215 l 347 1215 l 347 1042 l 174 1042 l 174 1215 m 347 1215 l 521 1215 l 521 1042 l 347 1042 l 347 1215 m 868 1215 l 1042 1215 l 1042 1042 l 868 1042 l 868 1215 m 1042 1215 l 1215 1215 l 1215 1042 l 1042 1042 l 1042 1215 m 347 1042 l 521 1042 l 521 868 l 347 868 l 347 1042 m 521 1042 l 694 1042 l 694 868 l 521 868 l 521 1042 m 694 1042 l 868 1042 l 868 868 l 694 868 l 694 1042 m 868 1042 l 1042 1042 l 1042 868 l 868 868 l 868 1042 m 521 868 l 694 868 l 694 694 l 521 694 l 521 868 m 694 868 l 868 868 l 868 694 l 694 694 l 694 868 m 347 694 l 521 694 l 521 521 l 347 521 l 347 694 m 521 694 l 694 694 l 694 521 l 521 521 l 521 694 m 694 694 l 868 694 l 868 521 l 694 521 l 694 694 m 868 694 l 1042 694 l 1042 521 l 868 521 l 868 694 m 521 521 l 694 521 l 694 347 l 521 347 l 521 521 m 694 521 l 868 521 l 868 347 l 694 347 l 694 521 m 347 347 l 521 347 l 521 174 l 347 174 l 347 347 m 521 347 l 694 347 l 694 174 l 521 174 l 521 347 m 694 347 l 868 347 l 868 174 l 694 174 l 694 347 m 868 347 l 1042 347 l 1042 174 l 868 174 l 868 347 z "},"":{"ha":1389,"x_min":519,"x_max":870,"o":"m 521 1389 l 694 1389 l 694 1215 l 521 1215 l 521 1389 m 694 1389 l 868 1389 l 868 1215 l 694 1215 l 694 1389 m 521 1215 l 694 1215 l 694 1042 l 521 1042 l 521 1215 m 694 1215 l 868 1215 l 868 1042 l 694 1042 l 694 1215 m 521 1042 l 694 1042 l 694 868 l 521 868 l 521 1042 m 694 1042 l 868 1042 l 868 868 l 694 868 l 694 1042 m 521 694 l 694 694 l 694 521 l 521 521 l 521 694 m 694 694 l 868 694 l 868 521 l 694 521 l 694 694 m 521 521 l 694 521 l 694 347 l 521 347 l 521 521 m 694 521 l 868 521 l 868 347 l 694 347 l 694 521 m 521 347 l 694 347 l 694 174 l 521 174 l 521 347 m 694 347 l 868 347 l 868 174 l 694 174 l 694 347 z "},"":{"ha":1389,"x_min":172,"x_max":1217,"o":"m 347 1389 l 521 1389 l 521 1215 l 347 1215 l 347 1389 m 521 1389 l 694 1389 l 694 1215 l 521 1215 l 521 1389 m 694 1389 l 868 1389 l 868 1215 l 694 1215 l 694 1389 m 868 1389 l 1042 1389 l 1042 1215 l 868 1215 l 868 1389 m 174 1215 l 347 1215 l 347 1042 l 174 1042 l 174 1215 m 347 1042 l 521 1042 l 521 868 l 347 868 l 347 1042 m 521 1042 l 694 1042 l 694 868 l 521 868 l 521 1042 m 694 1042 l 868 1042 l 868 868 l 694 868 l 694 1042 m 868 1042 l 1042 1042 l 1042 868 l 868 868 l 868 1042 m 174 868 l 347 868 l 347 694 l 174 694 l 174 868 m 347 868 l 521 868 l 521 694 l 347 694 l 347 868 m 868 868 l 1042 868 l 1042 694 l 868 694 l 868 868 m 1042 868 l 1215 868 l 1215 694 l 1042 694 l 1042 868 m 347 694 l 521 694 l 521 521 l 347 521 l 347 694 m 521 694 l 694 694 l 694 521 l 521 521 l 521 694 m 694 694 l 868 694 l 868 521 l 694 521 l 694 694 m 868 694 l 1042 694 l 1042 521 l 868 521 l 868 694 m 1042 521 l 1215 521 l 1215 347 l 1042 347 l 1042 521 m 347 347 l 521 347 l 521 174 l 347 174 l 347 347 m 521 347 l 694 347 l 694 174 l 521 174 l 521 347 m 694 347 l 868 347 l 868 174 l 694 174 l 694 347 m 868 347 l 1042 347 l 1042 174 l 868 174 l 868 347 z "},"":{"ha":1389,"x_min":172,"x_max":1217,"o":"m 174 1389 l 347 1389 l 347 1215 l 174 1215 l 174 1389 m 347 1389 l 521 1389 l 521 1215 l 347 1215 l 347 1389 m 868 1389 l 1042 1389 l 1042 1215 l 868 1215 l 868 1389 m 1042 1389 l 1215 1389 l 1215 1215 l 1042 1215 l 1042 1389 z "},"":{"ha":1389,"x_min":-2,"x_max":1391,"o":"m 174 1389 l 347 1389 l 347 1215 l 174 1215 l 174 1389 m 347 1389 l 521 1389 l 521 1215 l 347 1215 l 347 1389 m 521 1389 l 694 1389 l 694 1215 l 521 1215 l 521 1389 m 694 1389 l 868 1389 l 868 1215 l 694 1215 l 694 1389 m 868 1389 l 1042 1389 l 1042 1215 l 868 1215 l 868 1389 m 1042 1389 l 1215 1389 l 1215 1215 l 1042 1215 l 1042 1389 m 0 1215 l 174 1215 l 174 1042 l 0 1042 l 0 1215 m 1215 1215 l 1389 1215 l 1389 1042 l 1215 1042 l 1215 1215 m 0 1042 l 174 1042 l 174 868 l 0 868 l 0 1042 m 521 1042 l 694 1042 l 694 868 l 521 868 l 521 1042 m 694 1042 l 868 1042 l 868 868 l 694 868 l 694 1042 m 868 1042 l 1042 1042 l 1042 868 l 868 868 l 868 1042 m 1215 1042 l 1389 1042 l 1389 868 l 1215 868 l 1215 1042 m 0 868 l 174 868 l 174 694 l 0 694 l 0 868 m 347 868 l 521 868 l 521 694 l 347 694 l 347 868 m 521 868 l 694 868 l 694 694 l 521 694 l 521 868 m 1215 868 l 1389 868 l 1389 694 l 1215 694 l 1215 868 m 0 694 l 174 694 l 174 521 l 0 521 l 0 694 m 347 694 l 521 694 l 521 521 l 347 521 l 347 694 m 521 694 l 694 694 l 694 521 l 521 521 l 521 694 m 1215 694 l 1389 694 l 1389 521 l 1215 521 l 1215 694 m 0 521 l 174 521 l 174 347 l 0 347 l 0 521 m 521 521 l 694 521 l 694 347 l 521 347 l 521 521 m 694 521 l 868 521 l 868 347 l 694 347 l 694 521 m 868 521 l 1042 521 l 1042 347 l 868 347 l 868 521 m 1215 521 l 1389 521 l 1389 347 l 1215 347 l 1215 521 m 0 347 l 174 347 l 174 174 l 0 174 l 0 347 m 1215 347 l 1389 347 l 1389 174 l 1215 174 l 1215 347 m 174 174 l 347 174 l 347 0 l 174 0 l 174 174 m 347 174 l 521 174 l 521 0 l 347 0 l 347 174 m 521 174 l 694 174 l 694 0 l 521 0 l 521 174 m 694 174 l 868 174 l 868 0 l 694 0 l 694 174 m 868 174 l 1042 174 l 1042 0 l 868 0 l 868 174 m 1042 174 l 1215 174 l 1215 0 l 1042 0 l 1042 174 z "},"":{"ha":1389,"x_min":-2,"x_max":1043,"o":"m 347 1389 l 521 1389 l 521 1215 l 347 1215 l 347 1389 m 521 1389 l 694 1389 l 694 1215 l 521 1215 l 521 1389 m 174 1215 l 347 1215 l 347 1042 l 174 1042 l 174 1215 m 694 1215 l 868 1215 l 868 1042 l 694 1042 l 694 1215 m 0 1042 l 174 1042 l 174 868 l 0 868 l 0 1042 m 694 1042 l 868 1042 l 868 868 l 694 868 l 694 1042 m 0 868 l 174 868 l 174 694 l 0 694 l 0 868 m 174 868 l 347 868 l 347 694 l 174 694 l 174 868 m 347 868 l 521 868 l 521 694 l 347 694 l 347 868 m 521 868 l 694 868 l 694 694 l 521 694 l 521 868 m 694 868 l 868 868 l 868 694 l 694 694 l 694 868 m 0 521 l 174 521 l 174 347 l 0 347 l 0 521 m 174 521 l 347 521 l 347 347 l 174 347 l 174 521 m 347 521 l 521 521 l 521 347 l 347 347 l 347 521 m 521 521 l 694 521 l 694 347 l 521 347 l 521 521 m 694 521 l 868 521 l 868 347 l 694 347 l 694 521 m 868 521 l 1042 521 l 1042 347 l 868 347 l 868 521 z "},"":{"ha":1389,"x_min":-2,"x_max":1391,"o":"m 347 1215 l 521 1215 l 521 1042 l 347 1042 l 347 1215 m 521 1215 l 694 1215 l 694 1042 l 521 1042 l 521 1215 m 1042 1215 l 1215 1215 l 1215 1042 l 1042 1042 l 1042 1215 m 1215 1215 l 1389 1215 l 1389 1042 l 1215 1042 l 1215 1215 m 174 1042 l 347 1042 l 347 868 l 174 868 l 174 1042 m 347 1042 l 521 1042 l 521 868 l 347 868 l 347 1042 m 868 1042 l 1042 1042 l 1042 868 l 868 868 l 868 1042 m 1042 1042 l 1215 1042 l 1215 868 l 1042 868 l 1042 1042 m 0 868 l 174 868 l 174 694 l 0 694 l 0 868 m 174 868 l 347 868 l 347 694 l 174 694 l 174 868 m 694 868 l 868 868 l 868 694 l 694 694 l 694 868 m 868 868 l 1042 868 l 1042 694 l 868 694 l 868 868 m 174 694 l 347 694 l 347 521 l 174 521 l 174 694 m 347 694 l 521 694 l 521 521 l 347 521 l 347 694 m 868 694 l 1042 694 l 1042 521 l 868 521 l 868 694 m 1042 694 l 1215 694 l 1215 521 l 1042 521 l 1042 694 m 347 521 l 521 521 l 521 347 l 347 347 l 347 521 m 521 521 l 694 521 l 694 347 l 521 347 l 521 521 m 1042 521 l 1215 521 l 1215 347 l 1042 347 l 1042 521 m 1215 521 l 1389 521 l 1389 347 l 1215 347 l 1215 521 z "},"":{"ha":1389,"x_min":345,"x_max":1217,"o":"m 347 1389 l 521 1389 l 521 1215 l 347 1215 l 347 1389 m 521 1389 l 694 1389 l 694 1215 l 521 1215 l 521 1389 m 694 1389 l 868 1389 l 868 1215 l 694 1215 l 694 1389 m 868 1389 l 1042 1389 l 1042 1215 l 868 1215 l 868 1389 m 1042 1389 l 1215 1389 l 1215 1215 l 1042 1215 l 1042 1389 m 868 1215 l 1042 1215 l 1042 1042 l 868 1042 l 868 1215 m 1042 1215 l 1215 1215 l 1215 1042 l 1042 1042 l 1042 1215 z "},"":{"ha":1389,"x_min":172,"x_max":1217,"o":"m 174 1042 l 347 1042 l 347 868 l 174 868 l 174 1042 m 347 1042 l 521 1042 l 521 868 l 347 868 l 347 1042 m 521 1042 l 694 1042 l 694 868 l 521 868 l 521 1042 m 694 1042 l 868 1042 l 868 868 l 694 868 l 694 1042 m 868 1042 l 1042 1042 l 1042 868 l 868 868 l 868 1042 m 1042 1042 l 1215 1042 l 1215 868 l 1042 868 l 1042 1042 m 174 868 l 347 868 l 347 694 l 174 694 l 174 868 m 347 868 l 521 868 l 521 694 l 347 694 l 347 868 m 521 868 l 694 868 l 694 694 l 521 694 l 521 868 m 694 868 l 868 868 l 868 694 l 694 694 l 694 868 m 868 868 l 1042 868 l 1042 694 l 868 694 l 868 868 m 1042 868 l 1215 868 l 1215 694 l 1042 694 l 1042 868 z "},"":{"ha":1389,"x_min":-2,"x_max":1391,"o":"m 174 1389 l 347 1389 l 347 1215 l 174 1215 l 174 1389 m 347 1389 l 521 1389 l 521 1215 l 347 1215 l 347 1389 m 521 1389 l 694 1389 l 694 1215 l 521 1215 l 521 1389 m 694 1389 l 868 1389 l 868 1215 l 694 1215 l 694 1389 m 868 1389 l 1042 1389 l 1042 1215 l 868 1215 l 868 1389 m 1042 1389 l 1215 1389 l 1215 1215 l 1042 1215 l 1042 1389 m 0 1215 l 174 1215 l 174 1042 l 0 1042 l 0 1215 m 1215 1215 l 1389 1215 l 1389 1042 l 1215 1042 l 1215 1215 m 0 1042 l 174 1042 l 174 868 l 0 868 l 0 1042 m 347 1042 l 521 1042 l 521 868 l 347 868 l 347 1042 m 521 1042 l 694 1042 l 694 868 l 521 868 l 521 1042 m 694 1042 l 868 1042 l 868 868 l 694 868 l 694 1042 m 1215 1042 l 1389 1042 l 1389 868 l 1215 868 l 1215 1042 m 0 868 l 174 868 l 174 694 l 0 694 l 0 868 m 347 868 l 521 868 l 521 694 l 347 694 l 347 868 m 521 868 l 694 868 l 694 694 l 521 694 l 521 868 m 694 868 l 868 868 l 868 694 l 694 694 l 694 868 m 1215 868 l 1389 868 l 1389 694 l 1215 694 l 1215 868 m 0 694 l 174 694 l 174 521 l 0 521 l 0 694 m 347 694 l 521 694 l 521 521 l 347 521 l 347 694 m 521 694 l 694 694 l 694 521 l 521 521 l 521 694 m 1215 694 l 1389 694 l 1389 521 l 1215 521 l 1215 694 m 0 521 l 174 521 l 174 347 l 0 347 l 0 521 m 347 521 l 521 521 l 521 347 l 347 347 l 347 521 m 694 521 l 868 521 l 868 347 l 694 347 l 694 521 m 1215 521 l 1389 521 l 1389 347 l 1215 347 l 1215 521 m 0 347 l 174 347 l 174 174 l 0 174 l 0 347 m 1215 347 l 1389 347 l 1389 174 l 1215 174 l 1215 347 m 174 174 l 347 174 l 347 0 l 174 0 l 174 174 m 347 174 l 521 174 l 521 0 l 347 0 l 347 174 m 521 174 l 694 174 l 694 0 l 521 0 l 521 174 m 694 174 l 868 174 l 868 0 l 694 0 l 694 174 m 868 174 l 1042 174 l 1042 0 l 868 0 l 868 174 m 1042 174 l 1215 174 l 1215 0 l 1042 0 l 1042 174 z "},"":{"ha":1389,"x_min":172,"x_max":1217,"o":"m 174 1389 l 347 1389 l 347 1215 l 174 1215 l 174 1389 m 347 1389 l 521 1389 l 521 1215 l 347 1215 l 347 1389 m 521 1389 l 694 1389 l 694 1215 l 521 1215 l 521 1389 m 694 1389 l 868 1389 l 868 1215 l 694 1215 l 694 1389 m 868 1389 l 1042 1389 l 1042 1215 l 868 1215 l 868 1389 m 1042 1389 l 1215 1389 l 1215 1215 l 1042 1215 l 1042 1389 z "},"":{"ha":1389,"x_min":172,"x_max":1217,"o":"m 347 1389 l 521 1389 l 521 1215 l 347 1215 l 347 1389 m 521 1389 l 694 1389 l 694 1215 l 521 1215 l 521 1389 m 694 1389 l 868 1389 l 868 1215 l 694 1215 l 694 1389 m 868 1389 l 1042 1389 l 1042 1215 l 868 1215 l 868 1389 m 174 1215 l 347 1215 l 347 1042 l 174 1042 l 174 1215 m 347 1215 l 521 1215 l 521 1042 l 347 1042 l 347 1215 m 868 1215 l 1042 1215 l 1042 1042 l 868 1042 l 868 1215 m 1042 1215 l 1215 1215 l 1215 1042 l 1042 1042 l 1042 1215 m 347 1042 l 521 1042 l 521 868 l 347 868 l 347 1042 m 521 1042 l 694 1042 l 694 868 l 521 868 l 521 1042 m 694 1042 l 868 1042 l 868 868 l 694 868 l 694 1042 m 868 1042 l 1042 1042 l 1042 868 l 868 868 l 868 1042 z "},"":{"ha":1389,"x_min":172,"x_max":1217,"o":"m 521 1389 l 694 1389 l 694 1215 l 521 1215 l 521 1389 m 694 1389 l 868 1389 l 868 1215 l 694 1215 l 694 1389 m 521 1215 l 694 1215 l 694 1042 l 521 1042 l 521 1215 m 694 1215 l 868 1215 l 868 1042 l 694 1042 l 694 1215 m 174 1042 l 347 1042 l 347 868 l 174 868 l 174 1042 m 347 1042 l 521 1042 l 521 868 l 347 868 l 347 1042 m 521 1042 l 694 1042 l 694 868 l 521 868 l 521 1042 m 694 1042 l 868 1042 l 868 868 l 694 868 l 694 1042 m 868 1042 l 1042 1042 l 1042 868 l 868 868 l 868 1042 m 1042 1042 l 1215 1042 l 1215 868 l 1042 868 l 1042 1042 m 521 868 l 694 868 l 694 694 l 521 694 l 521 868 m 694 868 l 868 868 l 868 694 l 694 694 l 694 868 m 521 694 l 694 694 l 694 521 l 521 521 l 521 694 m 694 694 l 868 694 l 868 521 l 694 521 l 694 694 m 174 347 l 347 347 l 347 174 l 174 174 l 174 347 m 347 347 l 521 347 l 521 174 l 347 174 l 347 347 m 521 347 l 694 347 l 694 174 l 521 174 l 521 347 m 694 347 l 868 347 l 868 174 l 694 174 l 694 347 m 868 347 l 1042 347 l 1042 174 l 868 174 l 868 347 m 1042 347 l 1215 347 l 1215 174 l 1042 174 l 1042 347 z "},"":{"ha":1389,"x_min":-2,"x_max":870,"o":"m 0 1389 l 174 1389 l 174 1215 l 0 1215 l 0 1389 m 174 1389 l 347 1389 l 347 1215 l 174 1215 l 174 1389 m 347 1389 l 521 1389 l 521 1215 l 347 1215 l 347 1389 m 521 1389 l 694 1389 l 694 1215 l 521 1215 l 521 1389 m 521 1215 l 694 1215 l 694 1042 l 521 1042 l 521 1215 m 694 1215 l 868 1215 l 868 1042 l 694 1042 l 694 1215 m 347 1042 l 521 1042 l 521 868 l 347 868 l 347 1042 m 521 1042 l 694 1042 l 694 868 l 521 868 l 521 1042 m 174 868 l 347 868 l 347 694 l 174 694 l 174 868 m 347 868 l 521 868 l 521 694 l 347 694 l 347 868 m 0 694 l 174 694 l 174 521 l 0 521 l 0 694 m 174 694 l 347 694 l 347 521 l 174 521 l 174 694 m 347 694 l 521 694 l 521 521 l 347 521 l 347 694 m 521 694 l 694 694 l 694 521 l 521 521 l 521 694 m 694 694 l 868 694 l 868 521 l 694 521 l 694 694 z "},"":{"ha":1389,"x_min":-2,"x_max":870,"o":"m 0 1389 l 174 1389 l 174 1215 l 0 1215 l 0 1389 m 174 1389 l 347 1389 l 347 1215 l 174 1215 l 174 1389 m 347 1389 l 521 1389 l 521 1215 l 347 1215 l 347 1389 m 521 1389 l 694 1389 l 694 1215 l 521 1215 l 521 1389 m 521 1215 l 694 1215 l 694 1042 l 521 1042 l 521 1215 m 694 1215 l 868 1215 l 868 1042 l 694 1042 l 694 1215 m 347 1042 l 521 1042 l 521 868 l 347 868 l 347 1042 m 521 1042 l 694 1042 l 694 868 l 521 868 l 521 1042 m 521 868 l 694 868 l 694 694 l 521 694 l 521 868 m 694 868 l 868 868 l 868 694 l 694 694 l 694 868 m 0 694 l 174 694 l 174 521 l 0 521 l 0 694 m 174 694 l 347 694 l 347 521 l 174 521 l 174 694 m 347 694 l 521 694 l 521 521 l 347 521 l 347 694 m 521 694 l 694 694 l 694 521 l 521 521 l 521 694 z "},"":{"ha":1389,"x_min":345,"x_max":870,"o":"m 521 1389 l 694 1389 l 694 1215 l 521 1215 l 521 1389 m 694 1389 l 868 1389 l 868 1215 l 694 1215 l 694 1389 m 347 1215 l 521 1215 l 521 1042 l 347 1042 l 347 1215 m 521 1215 l 694 1215 l 694 1042 l 521 1042 l 521 1215 z "},"":{"ha":1389,"x_min":-2,"x_max":1217,"o":"m 0 1042 l 174 1042 l 174 868 l 0 868 l 0 1042 m 174 1042 l 347 1042 l 347 868 l 174 868 l 174 1042 m 868 1042 l 1042 1042 l 1042 868 l 868 868 l 868 1042 m 1042 1042 l 1215 1042 l 1215 868 l 1042 868 l 1042 1042 m 0 868 l 174 868 l 174 694 l 0 694 l 0 868 m 174 868 l 347 868 l 347 694 l 174 694 l 174 868 m 868 868 l 1042 868 l 1042 694 l 868 694 l 868 868 m 1042 868 l 1215 868 l 1215 694 l 1042 694 l 1042 868 m 0 694 l 174 694 l 174 521 l 0 521 l 0 694 m 174 694 l 347 694 l 347 521 l 174 521 l 174 694 m 868 694 l 1042 694 l 1042 521 l 868 521 l 868 694 m 1042 694 l 1215 694 l 1215 521 l 1042 521 l 1042 694 m 0 521 l 174 521 l 174 347 l 0 347 l 0 521 m 174 521 l 347 521 l 347 347 l 174 347 l 174 521 m 347 521 l 521 521 l 521 347 l 347 347 l 347 521 m 694 521 l 868 521 l 868 347 l 694 347 l 694 521 m 868 521 l 1042 521 l 1042 347 l 868 347 l 868 521 m 1042 521 l 1215 521 l 1215 347 l 1042 347 l 1042 521 m 0 347 l 174 347 l 174 174 l 0 174 l 0 347 m 174 347 l 347 347 l 347 174 l 174 174 l 174 347 m 347 347 l 521 347 l 521 174 l 347 174 l 347 347 m 521 347 l 694 347 l 694 174 l 521 174 l 521 347 m 694 347 l 868 347 l 868 174 l 694 174 l 694 347 m 1042 347 l 1215 347 l 1215 174 l 1042 174 l 1042 347 m 0 174 l 174 174 l 174 0 l 0 0 l 0 174 m 174 174 l 347 174 l 347 0 l 174 0 l 174 174 z "},"":{"ha":1389,"x_min":-2,"x_max":1217,"o":"m 174 1389 l 347 1389 l 347 1215 l 174 1215 l 174 1389 m 347 1389 l 521 1389 l 521 1215 l 347 1215 l 347 1389 m 521 1389 l 694 1389 l 694 1215 l 521 1215 l 521 1389 m 694 1389 l 868 1389 l 868 1215 l 694 1215 l 694 1389 m 868 1389 l 1042 1389 l 1042 1215 l 868 1215 l 868 1389 m 1042 1389 l 1215 1389 l 1215 1215 l 1042 1215 l 1042 1389 m 0 1215 l 174 1215 l 174 1042 l 0 1042 l 0 1215 m 174 1215 l 347 1215 l 347 1042 l 174 1042 l 174 1215 m 347 1215 l 521 1215 l 521 1042 l 347 1042 l 347 1215 m 521 1215 l 694 1215 l 694 1042 l 521 1042 l 521 1215 m 868 1215 l 1042 1215 l 1042 1042 l 868 1042 l 868 1215 m 0 1042 l 174 1042 l 174 868 l 0 868 l 0 1042 m 174 1042 l 347 1042 l 347 868 l 174 868 l 174 1042 m 347 1042 l 521 1042 l 521 868 l 347 868 l 347 1042 m 521 1042 l 694 1042 l 694 868 l 521 868 l 521 1042 m 868 1042 l 1042 1042 l 1042 868 l 868 868 l 868 1042 m 174 868 l 347 868 l 347 694 l 174 694 l 174 868 m 347 868 l 521 868 l 521 694 l 347 694 l 347 868 m 521 868 l 694 868 l 694 694 l 521 694 l 521 868 m 868 868 l 1042 868 l 1042 694 l 868 694 l 868 868 m 521 694 l 694 694 l 694 521 l 521 521 l 521 694 m 868 694 l 1042 694 l 1042 521 l 868 521 l 868 694 m 521 521 l 694 521 l 694 347 l 521 347 l 521 521 m 868 521 l 1042 521 l 1042 347 l 868 347 l 868 521 m 521 347 l 694 347 l 694 174 l 521 174 l 521 347 m 868 347 l 1042 347 l 1042 174 l 868 174 l 868 347 z "},"":{"ha":1389,"x_min":519,"x_max":870,"o":"m 521 1042 l 694 1042 l 694 868 l 521 868 l 521 1042 m 694 1042 l 868 1042 l 868 868 l 694 868 l 694 1042 m 521 868 l 694 868 l 694 694 l 521 694 l 521 868 m 694 868 l 868 868 l 868 694 l 694 694 l 694 868 z "},"":{"ha":1389,"x_min":345,"x_max":870,"o":"m 521 347 l 694 347 l 694 174 l 521 174 l 521 347 m 694 347 l 868 347 l 868 174 l 694 174 l 694 347 m 347 174 l 521 174 l 521 0 l 347 0 l 347 174 m 521 174 l 694 174 l 694 0 l 521 0 l 521 174 z "},"":{"ha":1389,"x_min":172,"x_max":696,"o":"m 347 1389 l 521 1389 l 521 1215 l 347 1215 l 347 1389 m 521 1389 l 694 1389 l 694 1215 l 521 1215 l 521 1389 m 174 1215 l 347 1215 l 347 1042 l 174 1042 l 174 1215 m 347 1215 l 521 1215 l 521 1042 l 347 1042 l 347 1215 m 521 1215 l 694 1215 l 694 1042 l 521 1042 l 521 1215 m 347 1042 l 521 1042 l 521 868 l 347 868 l 347 1042 m 521 1042 l 694 1042 l 694 868 l 521 868 l 521 1042 m 347 868 l 521 868 l 521 694 l 347 694 l 347 868 m 521 868 l 694 868 l 694 694 l 521 694 l 521 868 m 347 694 l 521 694 l 521 521 l 347 521 l 347 694 m 521 694 l 694 694 l 694 521 l 521 521 l 521 694 z "},"":{"ha":1389,"x_min":-2,"x_max":870,"o":"m 174 1389 l 347 1389 l 347 1215 l 174 1215 l 174 1389 m 347 1389 l 521 1389 l 521 1215 l 347 1215 l 347 1389 m 521 1389 l 694 1389 l 694 1215 l 521 1215 l 521 1389 m 0 1215 l 174 1215 l 174 1042 l 0 1042 l 0 1215 m 694 1215 l 868 1215 l 868 1042 l 694 1042 l 694 1215 m 0 1042 l 174 1042 l 174 868 l 0 868 l 0 1042 m 694 1042 l 868 1042 l 868 868 l 694 868 l 694 1042 m 174 868 l 347 868 l 347 694 l 174 694 l 174 868 m 347 868 l 521 868 l 521 694 l 347 694 l 347 868 m 521 868 l 694 868 l 694 694 l 521 694 l 521 868 m 0 521 l 174 521 l 174 347 l 0 347 l 0 521 m 174 521 l 347 521 l 347 347 l 174 347 l 174 521 m 347 521 l 521 521 l 521 347 l 347 347 l 347 521 m 521 521 l 694 521 l 694 347 l 521 347 l 521 521 m 694 521 l 868 521 l 868 347 l 694 347 l 694 521 z "},"":{"ha":1389,"x_min":-2,"x_max":1391,"o":"m 0 1215 l 174 1215 l 174 1042 l 0 1042 l 0 1215 m 174 1215 l 347 1215 l 347 1042 l 174 1042 l 174 1215 m 694 1215 l 868 1215 l 868 1042 l 694 1042 l 694 1215 m 868 1215 l 1042 1215 l 1042 1042 l 868 1042 l 868 1215 m 174 1042 l 347 1042 l 347 868 l 174 868 l 174 1042 m 347 1042 l 521 1042 l 521 868 l 347 868 l 347 1042 m 868 1042 l 1042 1042 l 1042 868 l 868 868 l 868 1042 m 1042 1042 l 1215 1042 l 1215 868 l 1042 868 l 1042 1042 m 347 868 l 521 868 l 521 694 l 347 694 l 347 868 m 521 868 l 694 868 l 694 694 l 521 694 l 521 868 m 1042 868 l 1215 868 l 1215 694 l 1042 694 l 1042 868 m 1215 868 l 1389 868 l 1389 694 l 1215 694 l 1215 868 m 174 694 l 347 694 l 347 521 l 174 521 l 174 694 m 347 694 l 521 694 l 521 521 l 347 521 l 347 694 m 868 694 l 1042 694 l 1042 521 l 868 521 l 868 694 m 1042 694 l 1215 694 l 1215 521 l 1042 521 l 1042 694 m 0 521 l 174 521 l 174 347 l 0 347 l 0 521 m 174 521 l 347 521 l 347 347 l 174 347 l 174 521 m 694 521 l 868 521 l 868 347 l 694 347 l 694 521 m 868 521 l 1042 521 l 1042 347 l 868 347 l 868 521 z "},"":{"ha":1389,"x_min":172,"x_max":1391,"o":"m 347 1389 l 521 1389 l 521 1215 l 347 1215 l 347 1389 m 174 1215 l 347 1215 l 347 1042 l 174 1042 l 174 1215 m 347 1215 l 521 1215 l 521 1042 l 347 1042 l 347 1215 m 1042 1215 l 1215 1215 l 1215 1042 l 1042 1042 l 1042 1215 m 1215 1215 l 1389 1215 l 1389 1042 l 1215 1042 l 1215 1215 m 347 1042 l 521 1042 l 521 868 l 347 868 l 347 1042 m 868 1042 l 1042 1042 l 1042 868 l 868 868 l 868 1042 m 1042 1042 l 1215 1042 l 1215 868 l 1042 868 l 1042 1042 m 347 868 l 521 868 l 521 694 l 347 694 l 347 868 m 694 868 l 868 868 l 868 694 l 694 694 l 694 868 m 868 868 l 1042 868 l 1042 694 l 868 694 l 868 868 m 521 694 l 694 694 l 694 521 l 521 521 l 521 694 m 694 694 l 868 694 l 868 521 l 694 521 l 694 694 m 1215 694 l 1389 694 l 1389 521 l 1215 521 l 1215 694 m 347 521 l 521 521 l 521 347 l 347 347 l 347 521 m 521 521 l 694 521 l 694 347 l 521 347 l 521 521 m 1042 521 l 1215 521 l 1215 347 l 1042 347 l 1042 521 m 1215 521 l 1389 521 l 1389 347 l 1215 347 l 1215 521 m 174 347 l 347 347 l 347 174 l 174 174 l 174 347 m 347 347 l 521 347 l 521 174 l 347 174 l 347 347 m 868 347 l 1042 347 l 1042 174 l 868 174 l 868 347 m 1042 347 l 1215 347 l 1215 174 l 1042 174 l 1042 347 m 1215 347 l 1389 347 l 1389 174 l 1215 174 l 1215 347 m 1215 174 l 1389 174 l 1389 0 l 1215 0 l 1215 174 z "},"":{"ha":1389,"x_min":172,"x_max":1391,"o":"m 347 1389 l 521 1389 l 521 1215 l 347 1215 l 347 1389 m 174 1215 l 347 1215 l 347 1042 l 174 1042 l 174 1215 m 347 1215 l 521 1215 l 521 1042 l 347 1042 l 347 1215 m 1042 1215 l 1215 1215 l 1215 1042 l 1042 1042 l 1042 1215 m 1215 1215 l 1389 1215 l 1389 1042 l 1215 1042 l 1215 1215 m 347 1042 l 521 1042 l 521 868 l 347 868 l 347 1042 m 868 1042 l 1042 1042 l 1042 868 l 868 868 l 868 1042 m 1042 1042 l 1215 1042 l 1215 868 l 1042 868 l 1042 1042 m 347 868 l 521 868 l 521 694 l 347 694 l 347 868 m 694 868 l 868 868 l 868 694 l 694 694 l 694 868 m 868 868 l 1042 868 l 1042 694 l 868 694 l 868 868 m 521 694 l 694 694 l 694 521 l 521 521 l 521 694 m 694 694 l 868 694 l 868 521 l 694 521 l 694 694 m 1042 694 l 1215 694 l 1215 521 l 1042 521 l 1042 694 m 1215 694 l 1389 694 l 1389 521 l 1215 521 l 1215 694 m 347 521 l 521 521 l 521 347 l 347 347 l 347 521 m 521 521 l 694 521 l 694 347 l 521 347 l 521 521 m 1215 521 l 1389 521 l 1389 347 l 1215 347 l 1215 521 m 174 347 l 347 347 l 347 174 l 174 174 l 174 347 m 347 347 l 521 347 l 521 174 l 347 174 l 347 347 m 1042 347 l 1215 347 l 1215 174 l 1042 174 l 1042 347 m 868 174 l 1042 174 l 1042 0 l 868 0 l 868 174 m 1042 174 l 1215 174 l 1215 0 l 1042 0 l 1042 174 m 1215 174 l 1389 174 l 1389 0 l 1215 0 l 1215 174 z "},"":{"ha":1389,"x_min":-2,"x_max":1391,"o":"m 0 1389 l 174 1389 l 174 1215 l 0 1215 l 0 1389 m 174 1389 l 347 1389 l 347 1215 l 174 1215 l 174 1389 m 347 1215 l 521 1215 l 521 1042 l 347 1042 l 347 1215 m 1042 1215 l 1215 1215 l 1215 1042 l 1042 1042 l 1042 1215 m 1215 1215 l 1389 1215 l 1389 1042 l 1215 1042 l 1215 1215 m 174 1042 l 347 1042 l 347 868 l 174 868 l 174 1042 m 347 1042 l 521 1042 l 521 868 l 347 868 l 347 1042 m 868 1042 l 1042 1042 l 1042 868 l 868 868 l 868 1042 m 1042 1042 l 1215 1042 l 1215 868 l 1042 868 l 1042 1042 m 347 868 l 521 868 l 521 694 l 347 694 l 347 868 m 694 868 l 868 868 l 868 694 l 694 694 l 694 868 m 868 868 l 1042 868 l 1042 694 l 868 694 l 868 868 m 0 694 l 174 694 l 174 521 l 0 521 l 0 694 m 174 694 l 347 694 l 347 521 l 174 521 l 174 694 m 521 694 l 694 694 l 694 521 l 521 521 l 521 694 m 694 694 l 868 694 l 868 521 l 694 521 l 694 694 m 1215 694 l 1389 694 l 1389 521 l 1215 521 l 1215 694 m 347 521 l 521 521 l 521 347 l 347 347 l 347 521 m 521 521 l 694 521 l 694 347 l 521 347 l 521 521 m 1042 521 l 1215 521 l 1215 347 l 1042 347 l 1042 521 m 1215 521 l 1389 521 l 1389 347 l 1215 347 l 1215 521 m 174 347 l 347 347 l 347 174 l 174 174 l 174 347 m 347 347 l 521 347 l 521 174 l 347 174 l 347 347 m 868 347 l 1042 347 l 1042 174 l 868 174 l 868 347 m 1042 347 l 1215 347 l 1215 174 l 1042 174 l 1042 347 m 1215 347 l 1389 347 l 1389 174 l 1215 174 l 1215 347 m 1215 174 l 1389 174 l 1389 0 l 1215 0 l 1215 174 z "},"":{"ha":1389,"x_min":172,"x_max":1217,"o":"m 521 1389 l 694 1389 l 694 1215 l 521 1215 l 521 1389 m 694 1389 l 868 1389 l 868 1215 l 694 1215 l 694 1389 m 521 1042 l 694 1042 l 694 868 l 521 868 l 521 1042 m 694 1042 l 868 1042 l 868 868 l 694 868 l 694 1042 m 347 868 l 521 868 l 521 694 l 347 694 l 347 868 m 521 868 l 694 868 l 694 694 l 521 694 l 521 868 m 174 694 l 347 694 l 347 521 l 174 521 l 174 694 m 347 694 l 521 694 l 521 521 l 347 521 l 347 694 m 174 521 l 347 521 l 347 347 l 174 347 l 174 521 m 347 521 l 521 521 l 521 347 l 347 347 l 347 521 m 868 521 l 1042 521 l 1042 347 l 868 347 l 868 521 m 1042 521 l 1215 521 l 1215 347 l 1042 347 l 1042 521 m 347 347 l 521 347 l 521 174 l 347 174 l 347 347 m 521 347 l 694 347 l 694 174 l 521 174 l 521 347 m 694 347 l 868 347 l 868 174 l 694 174 l 694 347 m 868 347 l 1042 347 l 1042 174 l 868 174 l 868 347 z "},"":{"ha":1389,"x_min":-2,"x_max":1391,"o":"m 347 1389 l 521 1389 l 521 1215 l 347 1215 l 347 1389 m 521 1389 l 694 1389 l 694 1215 l 521 1215 l 521 1389 m 694 1215 l 868 1215 l 868 1042 l 694 1042 l 694 1215 m 347 1042 l 521 1042 l 521 868 l 347 868 l 347 1042 m 521 1042 l 694 1042 l 694 868 l 521 868 l 521 1042 m 694 1042 l 868 1042 l 868 868 l 694 868 l 694 1042 m 868 1042 l 1042 1042 l 1042 868 l 868 868 l 868 1042 m 174 868 l 347 868 l 347 694 l 174 694 l 174 868 m 347 868 l 521 868 l 521 694 l 347 694 l 347 868 m 868 868 l 1042 868 l 1042 694 l 868 694 l 868 868 m 1042 868 l 1215 868 l 1215 694 l 1042 694 l 1042 868 m 174 694 l 347 694 l 347 521 l 174 521 l 174 694 m 347 694 l 521 694 l 521 521 l 347 521 l 347 694 m 521 694 l 694 694 l 694 521 l 521 521 l 521 694 m 694 694 l 868 694 l 868 521 l 694 521 l 694 694 m 868 694 l 1042 694 l 1042 521 l 868 521 l 868 694 m 1042 694 l 1215 694 l 1215 521 l 1042 521 l 1042 694 m 0 521 l 174 521 l 174 347 l 0 347 l 0 521 m 174 521 l 347 521 l 347 347 l 174 347 l 174 521 m 1042 521 l 1215 521 l 1215 347 l 1042 347 l 1042 521 m 1215 521 l 1389 521 l 1389 347 l 1215 347 l 1215 521 m 0 347 l 174 347 l 174 174 l 0 174 l 0 347 m 174 347 l 347 347 l 347 174 l 174 174 l 174 347 m 1042 347 l 1215 347 l 1215 174 l 1042 174 l 1042 347 m 1215 347 l 1389 347 l 1389 174 l 1215 174 l 1215 347 z "},"":{"ha":1389,"x_min":-2,"x_max":1391,"o":"m 694 1389 l 868 1389 l 868 1215 l 694 1215 l 694 1389 m 868 1389 l 1042 1389 l 1042 1215 l 868 1215 l 868 1389 m 521 1215 l 694 1215 l 694 1042 l 521 1042 l 521 1215 m 347 1042 l 521 1042 l 521 868 l 347 868 l 347 1042 m 521 1042 l 694 1042 l 694 868 l 521 868 l 521 1042 m 694 1042 l 868 1042 l 868 868 l 694 868 l 694 1042 m 868 1042 l 1042 1042 l 1042 868 l 868 868 l 868 1042 m 174 868 l 347 868 l 347 694 l 174 694 l 174 868 m 347 868 l 521 868 l 521 694 l 347 694 l 347 868 m 868 868 l 1042 868 l 1042 694 l 868 694 l 868 868 m 1042 868 l 1215 868 l 1215 694 l 1042 694 l 1042 868 m 174 694 l 347 694 l 347 521 l 174 521 l 174 694 m 347 694 l 521 694 l 521 521 l 347 521 l 347 694 m 521 694 l 694 694 l 694 521 l 521 521 l 521 694 m 694 694 l 868 694 l 868 521 l 694 521 l 694 694 m 868 694 l 1042 694 l 1042 521 l 868 521 l 868 694 m 1042 694 l 1215 694 l 1215 521 l 1042 521 l 1042 694 m 0 521 l 174 521 l 174 347 l 0 347 l 0 521 m 174 521 l 347 521 l 347 347 l 174 347 l 174 521 m 1042 521 l 1215 521 l 1215 347 l 1042 347 l 1042 521 m 1215 521 l 1389 521 l 1389 347 l 1215 347 l 1215 521 m 0 347 l 174 347 l 174 174 l 0 174 l 0 347 m 174 347 l 347 347 l 347 174 l 174 174 l 174 347 m 1042 347 l 1215 347 l 1215 174 l 1042 174 l 1042 347 m 1215 347 l 1389 347 l 1389 174 l 1215 174 l 1215 347 z "},"":{"ha":1389,"x_min":-2,"x_max":1391,"o":"m 521 1389 l 694 1389 l 694 1215 l 521 1215 l 521 1389 m 694 1389 l 868 1389 l 868 1215 l 694 1215 l 694 1389 m 347 1215 l 521 1215 l 521 1042 l 347 1042 l 347 1215 m 868 1215 l 1042 1215 l 1042 1042 l 868 1042 l 868 1215 m 347 1042 l 521 1042 l 521 868 l 347 868 l 347 1042 m 521 1042 l 694 1042 l 694 868 l 521 868 l 521 1042 m 694 1042 l 868 1042 l 868 868 l 694 868 l 694 1042 m 868 1042 l 1042 1042 l 1042 868 l 868 868 l 868 1042 m 174 868 l 347 868 l 347 694 l 174 694 l 174 868 m 347 868 l 521 868 l 521 694 l 347 694 l 347 868 m 868 868 l 1042 868 l 1042 694 l 868 694 l 868 868 m 1042 868 l 1215 868 l 1215 694 l 1042 694 l 1042 868 m 174 694 l 347 694 l 347 521 l 174 521 l 174 694 m 347 694 l 521 694 l 521 521 l 347 521 l 347 694 m 521 694 l 694 694 l 694 521 l 521 521 l 521 694 m 694 694 l 868 694 l 868 521 l 694 521 l 694 694 m 868 694 l 1042 694 l 1042 521 l 868 521 l 868 694 m 1042 694 l 1215 694 l 1215 521 l 1042 521 l 1042 694 m 0 521 l 174 521 l 174 347 l 0 347 l 0 521 m 174 521 l 347 521 l 347 347 l 174 347 l 174 521 m 1042 521 l 1215 521 l 1215 347 l 1042 347 l 1042 521 m 1215 521 l 1389 521 l 1389 347 l 1215 347 l 1215 521 m 0 347 l 174 347 l 174 174 l 0 174 l 0 347 m 174 347 l 347 347 l 347 174 l 174 174 l 174 347 m 1042 347 l 1215 347 l 1215 174 l 1042 174 l 1042 347 m 1215 347 l 1389 347 l 1389 174 l 1215 174 l 1215 347 z "},"":{"ha":1389,"x_min":-2,"x_max":1391,"o":"m 174 1389 l 347 1389 l 347 1215 l 174 1215 l 174 1389 m 347 1389 l 521 1389 l 521 1215 l 347 1215 l 347 1389 m 521 1389 l 694 1389 l 694 1215 l 521 1215 l 521 1389 m 1215 1389 l 1389 1389 l 1389 1215 l 1215 1215 l 1215 1389 m 0 1215 l 174 1215 l 174 1042 l 0 1042 l 0 1215 m 694 1215 l 868 1215 l 868 1042 l 694 1042 l 694 1215 m 868 1215 l 1042 1215 l 1042 1042 l 868 1042 l 868 1215 m 1042 1215 l 1215 1215 l 1215 1042 l 1042 1042 l 1042 1215 m 347 1042 l 521 1042 l 521 868 l 347 868 l 347 1042 m 521 1042 l 694 1042 l 694 868 l 521 868 l 521 1042 m 694 1042 l 868 1042 l 868 868 l 694 868 l 694 1042 m 868 1042 l 1042 1042 l 1042 868 l 868 868 l 868 1042 m 174 868 l 347 868 l 347 694 l 174 694 l 174 868 m 347 868 l 521 868 l 521 694 l 347 694 l 347 868 m 868 868 l 1042 868 l 1042 694 l 868 694 l 868 868 m 1042 868 l 1215 868 l 1215 694 l 1042 694 l 1042 868 m 174 694 l 347 694 l 347 521 l 174 521 l 174 694 m 347 694 l 521 694 l 521 521 l 347 521 l 347 694 m 521 694 l 694 694 l 694 521 l 521 521 l 521 694 m 694 694 l 868 694 l 868 521 l 694 521 l 694 694 m 868 694 l 1042 694 l 1042 521 l 868 521 l 868 694 m 1042 694 l 1215 694 l 1215 521 l 1042 521 l 1042 694 m 0 521 l 174 521 l 174 347 l 0 347 l 0 521 m 174 521 l 347 521 l 347 347 l 174 347 l 174 521 m 1042 521 l 1215 521 l 1215 347 l 1042 347 l 1042 521 m 1215 521 l 1389 521 l 1389 347 l 1215 347 l 1215 521 m 0 347 l 174 347 l 174 174 l 0 174 l 0 347 m 174 347 l 347 347 l 347 174 l 174 174 l 174 347 m 1042 347 l 1215 347 l 1215 174 l 1042 174 l 1042 347 m 1215 347 l 1389 347 l 1389 174 l 1215 174 l 1215 347 z "},"":{"ha":1389,"x_min":-2,"x_max":1391,"o":"m 0 1389 l 174 1389 l 174 1215 l 0 1215 l 0 1389 m 174 1389 l 347 1389 l 347 1215 l 174 1215 l 174 1389 m 1042 1389 l 1215 1389 l 1215 1215 l 1042 1215 l 1042 1389 m 1215 1389 l 1389 1389 l 1389 1215 l 1215 1215 l 1215 1389 m 521 1215 l 694 1215 l 694 1042 l 521 1042 l 521 1215 m 694 1215 l 868 1215 l 868 1042 l 694 1042 l 694 1215 m 347 1042 l 521 1042 l 521 868 l 347 868 l 347 1042 m 521 1042 l 694 1042 l 694 868 l 521 868 l 521 1042 m 694 1042 l 868 1042 l 868 868 l 694 868 l 694 1042 m 868 1042 l 1042 1042 l 1042 868 l 868 868 l 868 1042 m 174 868 l 347 868 l 347 694 l 174 694 l 174 868 m 347 868 l 521 868 l 521 694 l 347 694 l 347 868 m 868 868 l 1042 868 l 1042 694 l 868 694 l 868 868 m 1042 868 l 1215 868 l 1215 694 l 1042 694 l 1042 868 m 174 694 l 347 694 l 347 521 l 174 521 l 174 694 m 347 694 l 521 694 l 521 521 l 347 521 l 347 694 m 521 694 l 694 694 l 694 521 l 521 521 l 521 694 m 694 694 l 868 694 l 868 521 l 694 521 l 694 694 m 868 694 l 1042 694 l 1042 521 l 868 521 l 868 694 m 1042 694 l 1215 694 l 1215 521 l 1042 521 l 1042 694 m 0 521 l 174 521 l 174 347 l 0 347 l 0 521 m 174 521 l 347 521 l 347 347 l 174 347 l 174 521 m 1042 521 l 1215 521 l 1215 347 l 1042 347 l 1042 521 m 1215 521 l 1389 521 l 1389 347 l 1215 347 l 1215 521 m 0 347 l 174 347 l 174 174 l 0 174 l 0 347 m 174 347 l 347 347 l 347 174 l 174 174 l 174 347 m 1042 347 l 1215 347 l 1215 174 l 1042 174 l 1042 347 m 1215 347 l 1389 347 l 1389 174 l 1215 174 l 1215 347 z "},"":{"ha":1389,"x_min":-2,"x_max":1391,"o":"m 347 1389 l 521 1389 l 521 1215 l 347 1215 l 347 1389 m 521 1389 l 694 1389 l 694 1215 l 521 1215 l 521 1389 m 694 1389 l 868 1389 l 868 1215 l 694 1215 l 694 1389 m 868 1389 l 1042 1389 l 1042 1215 l 868 1215 l 868 1389 m 174 1215 l 347 1215 l 347 1042 l 174 1042 l 174 1215 m 347 1215 l 521 1215 l 521 1042 l 347 1042 l 347 1215 m 868 1215 l 1042 1215 l 1042 1042 l 868 1042 l 868 1215 m 1042 1215 l 1215 1215 l 1215 1042 l 1042 1042 l 1042 1215 m 347 1042 l 521 1042 l 521 868 l 347 868 l 347 1042 m 521 1042 l 694 1042 l 694 868 l 521 868 l 521 1042 m 694 1042 l 868 1042 l 868 868 l 694 868 l 694 1042 m 868 1042 l 1042 1042 l 1042 868 l 868 868 l 868 1042 m 174 868 l 347 868 l 347 694 l 174 694 l 174 868 m 347 868 l 521 868 l 521 694 l 347 694 l 347 868 m 868 868 l 1042 868 l 1042 694 l 868 694 l 868 868 m 1042 868 l 1215 868 l 1215 694 l 1042 694 l 1042 868 m 174 694 l 347 694 l 347 521 l 174 521 l 174 694 m 347 694 l 521 694 l 521 521 l 347 521 l 347 694 m 521 694 l 694 694 l 694 521 l 521 521 l 521 694 m 694 694 l 868 694 l 868 521 l 694 521 l 694 694 m 868 694 l 1042 694 l 1042 521 l 868 521 l 868 694 m 1042 694 l 1215 694 l 1215 521 l 1042 521 l 1042 694 m 0 521 l 174 521 l 174 347 l 0 347 l 0 521 m 174 521 l 347 521 l 347 347 l 174 347 l 174 521 m 1042 521 l 1215 521 l 1215 347 l 1042 347 l 1042 521 m 1215 521 l 1389 521 l 1389 347 l 1215 347 l 1215 521 m 0 347 l 174 347 l 174 174 l 0 174 l 0 347 m 174 347 l 347 347 l 347 174 l 174 174 l 174 347 m 1042 347 l 1215 347 l 1215 174 l 1042 174 l 1042 347 m 1215 347 l 1389 347 l 1389 174 l 1215 174 l 1215 347 z "},"":{"ha":1389,"x_min":-2,"x_max":1391,"o":"m 521 1389 l 694 1389 l 694 1215 l 521 1215 l 521 1389 m 694 1389 l 868 1389 l 868 1215 l 694 1215 l 694 1389 m 868 1389 l 1042 1389 l 1042 1215 l 868 1215 l 868 1389 m 1042 1389 l 1215 1389 l 1215 1215 l 1042 1215 l 1042 1389 m 1215 1389 l 1389 1389 l 1389 1215 l 1215 1215 l 1215 1389 m 347 1215 l 521 1215 l 521 1042 l 347 1042 l 347 1215 m 521 1215 l 694 1215 l 694 1042 l 521 1042 l 521 1215 m 694 1215 l 868 1215 l 868 1042 l 694 1042 l 694 1215 m 868 1215 l 1042 1215 l 1042 1042 l 868 1042 l 868 1215 m 347 1042 l 521 1042 l 521 868 l 347 868 l 347 1042 m 521 1042 l 694 1042 l 694 868 l 521 868 l 521 1042 m 694 1042 l 868 1042 l 868 868 l 694 868 l 694 1042 m 868 1042 l 1042 1042 l 1042 868 l 868 868 l 868 1042 m 174 868 l 347 868 l 347 694 l 174 694 l 174 868 m 347 868 l 521 868 l 521 694 l 347 694 l 347 868 m 694 868 l 868 868 l 868 694 l 694 694 l 694 868 m 868 868 l 1042 868 l 1042 694 l 868 694 l 868 868 m 1042 868 l 1215 868 l 1215 694 l 1042 694 l 1042 868 m 1215 868 l 1389 868 l 1389 694 l 1215 694 l 1215 868 m 174 694 l 347 694 l 347 521 l 174 521 l 174 694 m 347 694 l 521 694 l 521 521 l 347 521 l 347 694 m 521 694 l 694 694 l 694 521 l 521 521 l 521 694 m 694 694 l 868 694 l 868 521 l 694 521 l 694 694 m 868 694 l 1042 694 l 1042 521 l 868 521 l 868 694 m 0 521 l 174 521 l 174 347 l 0 347 l 0 521 m 174 521 l 347 521 l 347 347 l 174 347 l 174 521 m 694 521 l 868 521 l 868 347 l 694 347 l 694 521 m 868 521 l 1042 521 l 1042 347 l 868 347 l 868 521 m 0 347 l 174 347 l 174 174 l 0 174 l 0 347 m 174 347 l 347 347 l 347 174 l 174 174 l 174 347 m 694 347 l 868 347 l 868 174 l 694 174 l 694 347 m 868 347 l 1042 347 l 1042 174 l 868 174 l 868 347 m 1042 347 l 1215 347 l 1215 174 l 1042 174 l 1042 347 m 1215 347 l 1389 347 l 1389 174 l 1215 174 l 1215 347 z "},"":{"ha":1389,"x_min":-2,"x_max":1217,"o":"m 347 1389 l 521 1389 l 521 1215 l 347 1215 l 347 1389 m 521 1389 l 694 1389 l 694 1215 l 521 1215 l 521 1389 m 694 1389 l 868 1389 l 868 1215 l 694 1215 l 694 1389 m 868 1389 l 1042 1389 l 1042 1215 l 868 1215 l 868 1389 m 174 1215 l 347 1215 l 347 1042 l 174 1042 l 174 1215 m 347 1215 l 521 1215 l 521 1042 l 347 1042 l 347 1215 m 868 1215 l 1042 1215 l 1042 1042 l 868 1042 l 868 1215 m 1042 1215 l 1215 1215 l 1215 1042 l 1042 1042 l 1042 1215 m 0 1042 l 174 1042 l 174 868 l 0 868 l 0 1042 m 174 1042 l 347 1042 l 347 868 l 174 868 l 174 1042 m 0 868 l 174 868 l 174 694 l 0 694 l 0 868 m 174 868 l 347 868 l 347 694 l 174 694 l 174 868 m 174 694 l 347 694 l 347 521 l 174 521 l 174 694 m 347 694 l 521 694 l 521 521 l 347 521 l 347 694 m 868 694 l 1042 694 l 1042 521 l 868 521 l 868 694 m 1042 694 l 1215 694 l 1215 521 l 1042 521 l 1042 694 m 347 521 l 521 521 l 521 347 l 347 347 l 347 521 m 521 521 l 694 521 l 694 347 l 521 347 l 521 521 m 694 521 l 868 521 l 868 347 l 694 347 l 694 521 m 868 521 l 1042 521 l 1042 347 l 868 347 l 868 521 m 694 347 l 868 347 l 868 174 l 694 174 l 694 347 m 347 174 l 521 174 l 521 0 l 347 0 l 347 174 m 521 174 l 694 174 l 694 0 l 521 0 l 521 174 z "},"":{"ha":1389,"x_min":-2,"x_max":1217,"o":"m 174 1389 l 347 1389 l 347 1215 l 174 1215 l 174 1389 m 347 1389 l 521 1389 l 521 1215 l 347 1215 l 347 1389 m 521 1215 l 694 1215 l 694 1042 l 521 1042 l 521 1215 m 0 1042 l 174 1042 l 174 868 l 0 868 l 0 1042 m 174 1042 l 347 1042 l 347 868 l 174 868 l 174 1042 m 347 1042 l 521 1042 l 521 868 l 347 868 l 347 1042 m 521 1042 l 694 1042 l 694 868 l 521 868 l 521 1042 m 694 1042 l 868 1042 l 868 868 l 694 868 l 694 1042 m 868 1042 l 1042 1042 l 1042 868 l 868 868 l 868 1042 m 1042 1042 l 1215 1042 l 1215 868 l 1042 868 l 1042 1042 m 174 868 l 347 868 l 347 694 l 174 694 l 174 868 m 347 868 l 521 868 l 521 694 l 347 694 l 347 868 m 174 694 l 347 694 l 347 521 l 174 521 l 174 694 m 347 694 l 521 694 l 521 521 l 347 521 l 347 694 m 521 694 l 694 694 l 694 521 l 521 521 l 521 694 m 694 694 l 868 694 l 868 521 l 694 521 l 694 694 m 174 521 l 347 521 l 347 347 l 174 347 l 174 521 m 347 521 l 521 521 l 521 347 l 347 347 l 347 521 m 0 347 l 174 347 l 174 174 l 0 174 l 0 347 m 174 347 l 347 347 l 347 174 l 174 174 l 174 347 m 347 347 l 521 347 l 521 174 l 347 174 l 347 347 m 521 347 l 694 347 l 694 174 l 521 174 l 521 347 m 694 347 l 868 347 l 868 174 l 694 174 l 694 347 m 868 347 l 1042 347 l 1042 174 l 868 174 l 868 347 m 1042 347 l 1215 347 l 1215 174 l 1042 174 l 1042 347 z "},"":{"ha":1389,"x_min":-2,"x_max":1217,"o":"m 521 1389 l 694 1389 l 694 1215 l 521 1215 l 521 1389 m 694 1389 l 868 1389 l 868 1215 l 694 1215 l 694 1389 m 347 1215 l 521 1215 l 521 1042 l 347 1042 l 347 1215 m 0 1042 l 174 1042 l 174 868 l 0 868 l 0 1042 m 174 1042 l 347 1042 l 347 868 l 174 868 l 174 1042 m 347 1042 l 521 1042 l 521 868 l 347 868 l 347 1042 m 521 1042 l 694 1042 l 694 868 l 521 868 l 521 1042 m 694 1042 l 868 1042 l 868 868 l 694 868 l 694 1042 m 868 1042 l 1042 1042 l 1042 868 l 868 868 l 868 1042 m 1042 1042 l 1215 1042 l 1215 868 l 1042 868 l 1042 1042 m 174 868 l 347 868 l 347 694 l 174 694 l 174 868 m 347 868 l 521 868 l 521 694 l 347 694 l 347 868 m 174 694 l 347 694 l 347 521 l 174 521 l 174 694 m 347 694 l 521 694 l 521 521 l 347 521 l 347 694 m 521 694 l 694 694 l 694 521 l 521 521 l 521 694 m 694 694 l 868 694 l 868 521 l 694 521 l 694 694 m 174 521 l 347 521 l 347 347 l 174 347 l 174 521 m 347 521 l 521 521 l 521 347 l 347 347 l 347 521 m 0 347 l 174 347 l 174 174 l 0 174 l 0 347 m 174 347 l 347 347 l 347 174 l 174 174 l 174 347 m 347 347 l 521 347 l 521 174 l 347 174 l 347 347 m 521 347 l 694 347 l 694 174 l 521 174 l 521 347 m 694 347 l 868 347 l 868 174 l 694 174 l 694 347 m 868 347 l 1042 347 l 1042 174 l 868 174 l 868 347 m 1042 347 l 1215 347 l 1215 174 l 1042 174 l 1042 347 z "},"":{"ha":1389,"x_min":-2,"x_max":1217,"o":"m 347 1389 l 521 1389 l 521 1215 l 347 1215 l 347 1389 m 521 1389 l 694 1389 l 694 1215 l 521 1215 l 521 1389 m 174 1215 l 347 1215 l 347 1042 l 174 1042 l 174 1215 m 694 1215 l 868 1215 l 868 1042 l 694 1042 l 694 1215 m 0 1042 l 174 1042 l 174 868 l 0 868 l 0 1042 m 174 1042 l 347 1042 l 347 868 l 174 868 l 174 1042 m 347 1042 l 521 1042 l 521 868 l 347 868 l 347 1042 m 521 1042 l 694 1042 l 694 868 l 521 868 l 521 1042 m 694 1042 l 868 1042 l 868 868 l 694 868 l 694 1042 m 868 1042 l 1042 1042 l 1042 868 l 868 868 l 868 1042 m 1042 1042 l 1215 1042 l 1215 868 l 1042 868 l 1042 1042 m 174 868 l 347 868 l 347 694 l 174 694 l 174 868 m 347 868 l 521 868 l 521 694 l 347 694 l 347 868 m 174 694 l 347 694 l 347 521 l 174 521 l 174 694 m 347 694 l 521 694 l 521 521 l 347 521 l 347 694 m 521 694 l 694 694 l 694 521 l 521 521 l 521 694 m 694 694 l 868 694 l 868 521 l 694 521 l 694 694 m 174 521 l 347 521 l 347 347 l 174 347 l 174 521 m 347 521 l 521 521 l 521 347 l 347 347 l 347 521 m 0 347 l 174 347 l 174 174 l 0 174 l 0 347 m 174 347 l 347 347 l 347 174 l 174 174 l 174 347 m 347 347 l 521 347 l 521 174 l 347 174 l 347 347 m 521 347 l 694 347 l 694 174 l 521 174 l 521 347 m 694 347 l 868 347 l 868 174 l 694 174 l 694 347 m 868 347 l 1042 347 l 1042 174 l 868 174 l 868 347 m 1042 347 l 1215 347 l 1215 174 l 1042 174 l 1042 347 z "},"":{"ha":1389,"x_min":-2,"x_max":1217,"o":"m 174 1389 l 347 1389 l 347 1215 l 174 1215 l 174 1389 m 347 1389 l 521 1389 l 521 1215 l 347 1215 l 347 1389 m 868 1389 l 1042 1389 l 1042 1215 l 868 1215 l 868 1389 m 1042 1389 l 1215 1389 l 1215 1215 l 1042 1215 l 1042 1389 m 0 1042 l 174 1042 l 174 868 l 0 868 l 0 1042 m 174 1042 l 347 1042 l 347 868 l 174 868 l 174 1042 m 347 1042 l 521 1042 l 521 868 l 347 868 l 347 1042 m 521 1042 l 694 1042 l 694 868 l 521 868 l 521 1042 m 694 1042 l 868 1042 l 868 868 l 694 868 l 694 1042 m 868 1042 l 1042 1042 l 1042 868 l 868 868 l 868 1042 m 1042 1042 l 1215 1042 l 1215 868 l 1042 868 l 1042 1042 m 174 868 l 347 868 l 347 694 l 174 694 l 174 868 m 347 868 l 521 868 l 521 694 l 347 694 l 347 868 m 174 694 l 347 694 l 347 521 l 174 521 l 174 694 m 347 694 l 521 694 l 521 521 l 347 521 l 347 694 m 521 694 l 694 694 l 694 521 l 521 521 l 521 694 m 694 694 l 868 694 l 868 521 l 694 521 l 694 694 m 174 521 l 347 521 l 347 347 l 174 347 l 174 521 m 347 521 l 521 521 l 521 347 l 347 347 l 347 521 m 0 347 l 174 347 l 174 174 l 0 174 l 0 347 m 174 347 l 347 347 l 347 174 l 174 174 l 174 347 m 347 347 l 521 347 l 521 174 l 347 174 l 347 347 m 521 347 l 694 347 l 694 174 l 521 174 l 521 347 m 694 347 l 868 347 l 868 174 l 694 174 l 694 347 m 868 347 l 1042 347 l 1042 174 l 868 174 l 868 347 m 1042 347 l 1215 347 l 1215 174 l 1042 174 l 1042 347 z "},"":{"ha":1389,"x_min":172,"x_max":1217,"o":"m 347 1389 l 521 1389 l 521 1215 l 347 1215 l 347 1389 m 521 1389 l 694 1389 l 694 1215 l 521 1215 l 521 1389 m 694 1215 l 868 1215 l 868 1042 l 694 1042 l 694 1215 m 174 1042 l 347 1042 l 347 868 l 174 868 l 174 1042 m 347 1042 l 521 1042 l 521 868 l 347 868 l 347 1042 m 521 1042 l 694 1042 l 694 868 l 521 868 l 521 1042 m 694 1042 l 868 1042 l 868 868 l 694 868 l 694 1042 m 868 1042 l 1042 1042 l 1042 868 l 868 868 l 868 1042 m 1042 1042 l 1215 1042 l 1215 868 l 1042 868 l 1042 1042 m 521 868 l 694 868 l 694 694 l 521 694 l 521 868 m 694 868 l 868 868 l 868 694 l 694 694 l 694 868 m 521 694 l 694 694 l 694 521 l 521 521 l 521 694 m 694 694 l 868 694 l 868 521 l 694 521 l 694 694 m 521 521 l 694 521 l 694 347 l 521 347 l 521 521 m 694 521 l 868 521 l 868 347 l 694 347 l 694 521 m 174 347 l 347 347 l 347 174 l 174 174 l 174 347 m 347 347 l 521 347 l 521 174 l 347 174 l 347 347 m 521 347 l 694 347 l 694 174 l 521 174 l 521 347 m 694 347 l 868 347 l 868 174 l 694 174 l 694 347 m 868 347 l 1042 347 l 1042 174 l 868 174 l 868 347 m 1042 347 l 1215 347 l 1215 174 l 1042 174 l 1042 347 z "},"":{"ha":1389,"x_min":172,"x_max":1217,"o":"m 694 1389 l 868 1389 l 868 1215 l 694 1215 l 694 1389 m 868 1389 l 1042 1389 l 1042 1215 l 868 1215 l 868 1389 m 521 1215 l 694 1215 l 694 1042 l 521 1042 l 521 1215 m 174 1042 l 347 1042 l 347 868 l 174 868 l 174 1042 m 347 1042 l 521 1042 l 521 868 l 347 868 l 347 1042 m 521 1042 l 694 1042 l 694 868 l 521 868 l 521 1042 m 694 1042 l 868 1042 l 868 868 l 694 868 l 694 1042 m 868 1042 l 1042 1042 l 1042 868 l 868 868 l 868 1042 m 1042 1042 l 1215 1042 l 1215 868 l 1042 868 l 1042 1042 m 521 868 l 694 868 l 694 694 l 521 694 l 521 868 m 694 868 l 868 868 l 868 694 l 694 694 l 694 868 m 521 694 l 694 694 l 694 521 l 521 521 l 521 694 m 694 694 l 868 694 l 868 521 l 694 521 l 694 694 m 521 521 l 694 521 l 694 347 l 521 347 l 521 521 m 694 521 l 868 521 l 868 347 l 694 347 l 694 521 m 174 347 l 347 347 l 347 174 l 174 174 l 174 347 m 347 347 l 521 347 l 521 174 l 347 174 l 347 347 m 521 347 l 694 347 l 694 174 l 521 174 l 521 347 m 694 347 l 868 347 l 868 174 l 694 174 l 694 347 m 868 347 l 1042 347 l 1042 174 l 868 174 l 868 347 m 1042 347 l 1215 347 l 1215 174 l 1042 174 l 1042 347 z "},"":{"ha":1389,"x_min":172,"x_max":1217,"o":"m 521 1389 l 694 1389 l 694 1215 l 521 1215 l 521 1389 m 694 1389 l 868 1389 l 868 1215 l 694 1215 l 694 1389 m 347 1215 l 521 1215 l 521 1042 l 347 1042 l 347 1215 m 868 1215 l 1042 1215 l 1042 1042 l 868 1042 l 868 1215 m 174 1042 l 347 1042 l 347 868 l 174 868 l 174 1042 m 347 1042 l 521 1042 l 521 868 l 347 868 l 347 1042 m 521 1042 l 694 1042 l 694 868 l 521 868 l 521 1042 m 694 1042 l 868 1042 l 868 868 l 694 868 l 694 1042 m 868 1042 l 1042 1042 l 1042 868 l 868 868 l 868 1042 m 1042 1042 l 1215 1042 l 1215 868 l 1042 868 l 1042 1042 m 521 868 l 694 868 l 694 694 l 521 694 l 521 868 m 694 868 l 868 868 l 868 694 l 694 694 l 694 868 m 521 694 l 694 694 l 694 521 l 521 521 l 521 694 m 694 694 l 868 694 l 868 521 l 694 521 l 694 694 m 521 521 l 694 521 l 694 347 l 521 347 l 521 521 m 694 521 l 868 521 l 868 347 l 694 347 l 694 521 m 174 347 l 347 347 l 347 174 l 174 174 l 174 347 m 347 347 l 521 347 l 521 174 l 347 174 l 347 347 m 521 347 l 694 347 l 694 174 l 521 174 l 521 347 m 694 347 l 868 347 l 868 174 l 694 174 l 694 347 m 868 347 l 1042 347 l 1042 174 l 868 174 l 868 347 m 1042 347 l 1215 347 l 1215 174 l 1042 174 l 1042 347 z "},"":{"ha":1389,"x_min":172,"x_max":1217,"o":"m 174 1389 l 347 1389 l 347 1215 l 174 1215 l 174 1389 m 347 1389 l 521 1389 l 521 1215 l 347 1215 l 347 1389 m 868 1389 l 1042 1389 l 1042 1215 l 868 1215 l 868 1389 m 1042 1389 l 1215 1389 l 1215 1215 l 1042 1215 l 1042 1389 m 174 1042 l 347 1042 l 347 868 l 174 868 l 174 1042 m 347 1042 l 521 1042 l 521 868 l 347 868 l 347 1042 m 521 1042 l 694 1042 l 694 868 l 521 868 l 521 1042 m 694 1042 l 868 1042 l 868 868 l 694 868 l 694 1042 m 868 1042 l 1042 1042 l 1042 868 l 868 868 l 868 1042 m 1042 1042 l 1215 1042 l 1215 868 l 1042 868 l 1042 1042 m 521 868 l 694 868 l 694 694 l 521 694 l 521 868 m 694 868 l 868 868 l 868 694 l 694 694 l 694 868 m 521 694 l 694 694 l 694 521 l 521 521 l 521 694 m 694 694 l 868 694 l 868 521 l 694 521 l 694 694 m 521 521 l 694 521 l 694 347 l 521 347 l 521 521 m 694 521 l 868 521 l 868 347 l 694 347 l 694 521 m 174 347 l 347 347 l 347 174 l 174 174 l 174 347 m 347 347 l 521 347 l 521 174 l 347 174 l 347 347 m 521 347 l 694 347 l 694 174 l 521 174 l 521 347 m 694 347 l 868 347 l 868 174 l 694 174 l 694 347 m 868 347 l 1042 347 l 1042 174 l 868 174 l 868 347 m 1042 347 l 1215 347 l 1215 174 l 1042 174 l 1042 347 z "},"":{"ha":1389,"x_min":-2,"x_max":1217,"o":"m 0 1389 l 174 1389 l 174 1215 l 0 1215 l 0 1389 m 174 1389 l 347 1389 l 347 1215 l 174 1215 l 174 1389 m 347 1389 l 521 1389 l 521 1215 l 347 1215 l 347 1389 m 521 1389 l 694 1389 l 694 1215 l 521 1215 l 521 1389 m 694 1389 l 868 1389 l 868 1215 l 694 1215 l 694 1389 m 174 1215 l 347 1215 l 347 1042 l 174 1042 l 174 1215 m 347 1215 l 521 1215 l 521 1042 l 347 1042 l 347 1215 m 694 1215 l 868 1215 l 868 1042 l 694 1042 l 694 1215 m 868 1215 l 1042 1215 l 1042 1042 l 868 1042 l 868 1215 m 174 1042 l 347 1042 l 347 868 l 174 868 l 174 1042 m 347 1042 l 521 1042 l 521 868 l 347 868 l 347 1042 m 868 1042 l 1042 1042 l 1042 868 l 868 868 l 868 1042 m 1042 1042 l 1215 1042 l 1215 868 l 1042 868 l 1042 1042 m 0 868 l 174 868 l 174 694 l 0 694 l 0 868 m 174 868 l 347 868 l 347 694 l 174 694 l 174 868 m 347 868 l 521 868 l 521 694 l 347 694 l 347 868 m 521 868 l 694 868 l 694 694 l 521 694 l 521 868 m 868 868 l 1042 868 l 1042 694 l 868 694 l 868 868 m 1042 868 l 1215 868 l 1215 694 l 1042 694 l 1042 868 m 174 694 l 347 694 l 347 521 l 174 521 l 174 694 m 347 694 l 521 694 l 521 521 l 347 521 l 347 694 m 868 694 l 1042 694 l 1042 521 l 868 521 l 868 694 m 1042 694 l 1215 694 l 1215 521 l 1042 521 l 1042 694 m 174 521 l 347 521 l 347 347 l 174 347 l 174 521 m 347 521 l 521 521 l 521 347 l 347 347 l 347 521 m 694 521 l 868 521 l 868 347 l 694 347 l 694 521 m 868 521 l 1042 521 l 1042 347 l 868 347 l 868 521 m 0 347 l 174 347 l 174 174 l 0 174 l 0 347 m 174 347 l 347 347 l 347 174 l 174 174 l 174 347 m 347 347 l 521 347 l 521 174 l 347 174 l 347 347 m 521 347 l 694 347 l 694 174 l 521 174 l 521 347 m 694 347 l 868 347 l 868 174 l 694 174 l 694 347 z "}}}
